%TF.GenerationSoftware,KiCad,Pcbnew,(5.1.9)-1*%
%TF.CreationDate,2025-01-23T06:38:53-08:00*%
%TF.ProjectId,RADA3K,52414441-334b-42e6-9b69-6361645f7063,rev?*%
%TF.SameCoordinates,Original*%
%TF.FileFunction,Legend,Bot*%
%TF.FilePolarity,Positive*%
%FSLAX46Y46*%
G04 Gerber Fmt 4.6, Leading zero omitted, Abs format (unit mm)*
G04 Created by KiCad (PCBNEW (5.1.9)-1) date 2025-01-23 06:38:53*
%MOMM*%
%LPD*%
G01*
G04 APERTURE LIST*
%ADD10C,0.150000*%
%ADD11C,0.500000*%
G04 APERTURE END LIST*
D10*
X138745861Y-73074738D02*
X138793480Y-73217595D01*
X138793480Y-73455690D01*
X138745861Y-73550928D01*
X138698242Y-73598547D01*
X138603004Y-73646166D01*
X138507766Y-73646166D01*
X138412528Y-73598547D01*
X138364909Y-73550928D01*
X138317290Y-73455690D01*
X138269671Y-73265214D01*
X138222052Y-73169976D01*
X138174433Y-73122357D01*
X138079195Y-73074738D01*
X137983957Y-73074738D01*
X137888719Y-73122357D01*
X137841100Y-73169976D01*
X137793480Y-73265214D01*
X137793480Y-73503309D01*
X137841100Y-73646166D01*
X138269671Y-74074738D02*
X138269671Y-74408071D01*
X138793480Y-74550928D02*
X138793480Y-74074738D01*
X137793480Y-74074738D01*
X137793480Y-74550928D01*
X138793480Y-74979500D02*
X137793480Y-74979500D01*
X138793480Y-75550928D01*
X137793480Y-75550928D01*
X138793480Y-76027119D02*
X137793480Y-76027119D01*
X137793480Y-76265214D01*
X137841100Y-76408071D01*
X137936338Y-76503309D01*
X138031576Y-76550928D01*
X138222052Y-76598547D01*
X138364909Y-76598547D01*
X138555385Y-76550928D01*
X138650623Y-76503309D01*
X138745861Y-76408071D01*
X138793480Y-76265214D01*
X138793480Y-76027119D01*
X138745861Y-76979500D02*
X138793480Y-77122357D01*
X138793480Y-77360452D01*
X138745861Y-77455690D01*
X138698242Y-77503309D01*
X138603004Y-77550928D01*
X138507766Y-77550928D01*
X138412528Y-77503309D01*
X138364909Y-77455690D01*
X138317290Y-77360452D01*
X138269671Y-77169976D01*
X138222052Y-77074738D01*
X138174433Y-77027119D01*
X138079195Y-76979500D01*
X137983957Y-76979500D01*
X137888719Y-77027119D01*
X137841100Y-77074738D01*
X137793480Y-77169976D01*
X137793480Y-77408071D01*
X137841100Y-77550928D01*
X137841100Y-79265214D02*
X137793480Y-79169976D01*
X137793480Y-79027119D01*
X137841100Y-78884261D01*
X137936338Y-78789023D01*
X138031576Y-78741404D01*
X138222052Y-78693785D01*
X138364909Y-78693785D01*
X138555385Y-78741404D01*
X138650623Y-78789023D01*
X138745861Y-78884261D01*
X138793480Y-79027119D01*
X138793480Y-79122357D01*
X138745861Y-79265214D01*
X138698242Y-79312833D01*
X138364909Y-79312833D01*
X138364909Y-79122357D01*
X138793480Y-80312833D02*
X138317290Y-79979500D01*
X138793480Y-79741404D02*
X137793480Y-79741404D01*
X137793480Y-80122357D01*
X137841100Y-80217595D01*
X137888719Y-80265214D01*
X137983957Y-80312833D01*
X138126814Y-80312833D01*
X138222052Y-80265214D01*
X138269671Y-80217595D01*
X138317290Y-80122357D01*
X138317290Y-79741404D01*
X138269671Y-80741404D02*
X138269671Y-81074738D01*
X138793480Y-81217595D02*
X138793480Y-80741404D01*
X137793480Y-80741404D01*
X137793480Y-81217595D01*
X138269671Y-81646166D02*
X138269671Y-81979500D01*
X138793480Y-82122357D02*
X138793480Y-81646166D01*
X137793480Y-81646166D01*
X137793480Y-82122357D01*
X137793480Y-82408071D02*
X137793480Y-82979500D01*
X138793480Y-82693785D02*
X137793480Y-82693785D01*
X137793480Y-83217595D02*
X137793480Y-83884261D01*
X138793480Y-83217595D01*
X138793480Y-83884261D01*
X137793480Y-84884261D02*
X137793480Y-85455690D01*
X138793480Y-85169976D02*
X137793480Y-85169976D01*
X137793480Y-85979499D02*
X137793480Y-86169976D01*
X137841100Y-86265214D01*
X137936338Y-86360452D01*
X138126814Y-86408071D01*
X138460147Y-86408071D01*
X138650623Y-86360452D01*
X138745861Y-86265214D01*
X138793480Y-86169976D01*
X138793480Y-85979499D01*
X138745861Y-85884261D01*
X138650623Y-85789023D01*
X138460147Y-85741404D01*
X138126814Y-85741404D01*
X137936338Y-85789023D01*
X137841100Y-85884261D01*
X137793480Y-85979499D01*
X138698242Y-88169976D02*
X138745861Y-88122357D01*
X138793480Y-87979499D01*
X138793480Y-87884261D01*
X138745861Y-87741404D01*
X138650623Y-87646166D01*
X138555385Y-87598547D01*
X138364909Y-87550928D01*
X138222052Y-87550928D01*
X138031576Y-87598547D01*
X137936338Y-87646166D01*
X137841100Y-87741404D01*
X137793480Y-87884261D01*
X137793480Y-87979499D01*
X137841100Y-88122357D01*
X137888719Y-88169976D01*
X137793480Y-89027119D02*
X137793480Y-88836642D01*
X137841100Y-88741404D01*
X137888719Y-88693785D01*
X138031576Y-88598547D01*
X138222052Y-88550928D01*
X138603004Y-88550928D01*
X138698242Y-88598547D01*
X138745861Y-88646166D01*
X138793480Y-88741404D01*
X138793480Y-88931880D01*
X138745861Y-89027119D01*
X138698242Y-89074738D01*
X138603004Y-89122357D01*
X138364909Y-89122357D01*
X138269671Y-89074738D01*
X138222052Y-89027119D01*
X138174433Y-88931880D01*
X138174433Y-88741404D01*
X138222052Y-88646166D01*
X138269671Y-88598547D01*
X138364909Y-88550928D01*
X138126814Y-89979499D02*
X138793480Y-89979499D01*
X137745861Y-89741404D02*
X138460147Y-89503309D01*
X138460147Y-90122357D01*
X138793480Y-91265214D02*
X137793480Y-91265214D01*
X138269671Y-91265214D02*
X138269671Y-91836642D01*
X138793480Y-91836642D02*
X137793480Y-91836642D01*
X138507766Y-92265214D02*
X138507766Y-92741404D01*
X138793480Y-92169976D02*
X137793480Y-92503309D01*
X138793480Y-92836642D01*
X138698242Y-93741404D02*
X138745861Y-93693785D01*
X138793480Y-93550928D01*
X138793480Y-93455690D01*
X138745861Y-93312833D01*
X138650623Y-93217595D01*
X138555385Y-93169976D01*
X138364909Y-93122357D01*
X138222052Y-93122357D01*
X138031576Y-93169976D01*
X137936338Y-93217595D01*
X137841100Y-93312833D01*
X137793480Y-93455690D01*
X137793480Y-93550928D01*
X137841100Y-93693785D01*
X137888719Y-93741404D01*
X138793480Y-94169976D02*
X137793480Y-94169976D01*
X138793480Y-94741404D02*
X138222052Y-94312833D01*
X137793480Y-94741404D02*
X138364909Y-94169976D01*
X138269671Y-95169976D02*
X138269671Y-95503309D01*
X138793480Y-95646166D02*
X138793480Y-95169976D01*
X137793480Y-95169976D01*
X137793480Y-95646166D01*
X138793480Y-96646166D02*
X138317290Y-96312833D01*
X138793480Y-96074738D02*
X137793480Y-96074738D01*
X137793480Y-96455690D01*
X137841100Y-96550928D01*
X137888719Y-96598547D01*
X137983957Y-96646166D01*
X138126814Y-96646166D01*
X138222052Y-96598547D01*
X138269671Y-96550928D01*
X138317290Y-96455690D01*
X138317290Y-96074738D01*
X138745861Y-97027119D02*
X138793480Y-97169976D01*
X138793480Y-97408071D01*
X138745861Y-97503309D01*
X138698242Y-97550928D01*
X138603004Y-97598547D01*
X138507766Y-97598547D01*
X138412528Y-97550928D01*
X138364909Y-97503309D01*
X138317290Y-97408071D01*
X138269671Y-97217595D01*
X138222052Y-97122357D01*
X138174433Y-97074738D01*
X138079195Y-97027119D01*
X137983957Y-97027119D01*
X137888719Y-97074738D01*
X137841100Y-97122357D01*
X137793480Y-97217595D01*
X137793480Y-97455690D01*
X137841100Y-97598547D01*
X137793480Y-98693785D02*
X138793480Y-98931880D01*
X138079195Y-99122357D01*
X138793480Y-99312833D01*
X137793480Y-99550928D01*
X137793480Y-100122357D02*
X137793480Y-100312833D01*
X137841100Y-100408071D01*
X137936338Y-100503309D01*
X138126814Y-100550928D01*
X138460147Y-100550928D01*
X138650623Y-100503309D01*
X138745861Y-100408071D01*
X138793480Y-100312833D01*
X138793480Y-100122357D01*
X138745861Y-100027119D01*
X138650623Y-99931880D01*
X138460147Y-99884261D01*
X138126814Y-99884261D01*
X137936338Y-99931880D01*
X137841100Y-100027119D01*
X137793480Y-100122357D01*
X138793480Y-101550928D02*
X138317290Y-101217595D01*
X138793480Y-100979499D02*
X137793480Y-100979499D01*
X137793480Y-101360452D01*
X137841100Y-101455690D01*
X137888719Y-101503309D01*
X137983957Y-101550928D01*
X138126814Y-101550928D01*
X138222052Y-101503309D01*
X138269671Y-101455690D01*
X138317290Y-101360452D01*
X138317290Y-100979499D01*
X138793480Y-102455690D02*
X138793480Y-101979499D01*
X137793480Y-101979499D01*
X138793480Y-102789023D02*
X137793480Y-102789023D01*
X137793480Y-103027119D01*
X137841100Y-103169976D01*
X137936338Y-103265214D01*
X138031576Y-103312833D01*
X138222052Y-103360452D01*
X138364909Y-103360452D01*
X138555385Y-103312833D01*
X138650623Y-103265214D01*
X138745861Y-103169976D01*
X138793480Y-103027119D01*
X138793480Y-102789023D01*
X137793480Y-103693785D02*
X138793480Y-103931880D01*
X138079195Y-104122357D01*
X138793480Y-104312833D01*
X137793480Y-104550928D01*
X138793480Y-104931880D02*
X137793480Y-104931880D01*
X138793480Y-105408071D02*
X137793480Y-105408071D01*
X137793480Y-105646166D01*
X137841100Y-105789023D01*
X137936338Y-105884261D01*
X138031576Y-105931880D01*
X138222052Y-105979499D01*
X138364909Y-105979499D01*
X138555385Y-105931880D01*
X138650623Y-105884261D01*
X138745861Y-105789023D01*
X138793480Y-105646166D01*
X138793480Y-105408071D01*
X138269671Y-106408071D02*
X138269671Y-106741404D01*
X138793480Y-106884261D02*
X138793480Y-106408071D01*
X137793480Y-106408071D01*
X137793480Y-106884261D01*
D11*
X132159428Y-59836571D02*
X132445142Y-60693714D01*
X132730857Y-60979428D01*
X133302285Y-61265142D01*
X134159428Y-61265142D01*
X134730857Y-60979428D01*
X135016571Y-60693714D01*
X135302285Y-60122285D01*
X135302285Y-57836571D01*
X129302285Y-57836571D01*
X129302285Y-59836571D01*
X129588000Y-60408000D01*
X129873714Y-60693714D01*
X130445142Y-60979428D01*
X131016571Y-60979428D01*
X131588000Y-60693714D01*
X131873714Y-60408000D01*
X132159428Y-59836571D01*
X132159428Y-57836571D01*
X135302285Y-66693714D02*
X135302285Y-63836571D01*
X129302285Y-63836571D01*
X129302285Y-69836571D02*
X129302285Y-70979428D01*
X129588000Y-71550857D01*
X130159428Y-72122285D01*
X131302285Y-72408000D01*
X133302285Y-72408000D01*
X134445142Y-72122285D01*
X135016571Y-71550857D01*
X135302285Y-70979428D01*
X135302285Y-69836571D01*
X135016571Y-69265142D01*
X134445142Y-68693714D01*
X133302285Y-68408000D01*
X131302285Y-68408000D01*
X130159428Y-68693714D01*
X129588000Y-69265142D01*
X129302285Y-69836571D01*
X129302285Y-76122285D02*
X129302285Y-77265142D01*
X129588000Y-77836571D01*
X130159428Y-78408000D01*
X131302285Y-78693714D01*
X133302285Y-78693714D01*
X134445142Y-78408000D01*
X135016571Y-77836571D01*
X135302285Y-77265142D01*
X135302285Y-76122285D01*
X135016571Y-75550857D01*
X134445142Y-74979428D01*
X133302285Y-74693714D01*
X131302285Y-74693714D01*
X130159428Y-74979428D01*
X129588000Y-75550857D01*
X129302285Y-76122285D01*
X135302285Y-81265142D02*
X129302285Y-81265142D01*
X129302285Y-82693714D01*
X129588000Y-83550857D01*
X130159428Y-84122285D01*
X130730857Y-84408000D01*
X131873714Y-84693714D01*
X132730857Y-84693714D01*
X133873714Y-84408000D01*
X134445142Y-84122285D01*
X135016571Y-83550857D01*
X135302285Y-82693714D01*
X135302285Y-81265142D01*
X135302285Y-87265142D02*
X129302285Y-87265142D01*
X133588000Y-89265142D01*
X129302285Y-91265142D01*
X135302285Y-91265142D01*
X129302285Y-95265142D02*
X129302285Y-96408000D01*
X129588000Y-96979428D01*
X130159428Y-97550857D01*
X131302285Y-97836571D01*
X133302285Y-97836571D01*
X134445142Y-97550857D01*
X135016571Y-96979428D01*
X135302285Y-96408000D01*
X135302285Y-95265142D01*
X135016571Y-94693714D01*
X134445142Y-94122285D01*
X133302285Y-93836571D01*
X131302285Y-93836571D01*
X130159428Y-94122285D01*
X129588000Y-94693714D01*
X129302285Y-95265142D01*
X135016571Y-100122285D02*
X135302285Y-100979428D01*
X135302285Y-102408000D01*
X135016571Y-102979428D01*
X134730857Y-103265142D01*
X134159428Y-103550857D01*
X133588000Y-103550857D01*
X133016571Y-103265142D01*
X132730857Y-102979428D01*
X132445142Y-102408000D01*
X132159428Y-101265142D01*
X131873714Y-100693714D01*
X131588000Y-100408000D01*
X131016571Y-100122285D01*
X130445142Y-100122285D01*
X129873714Y-100408000D01*
X129588000Y-100693714D01*
X129302285Y-101265142D01*
X129302285Y-102693714D01*
X129588000Y-103550857D01*
X135302285Y-106122285D02*
X129302285Y-106122285D01*
X132159428Y-106122285D02*
X132159428Y-109550857D01*
X135302285Y-109550857D02*
X129302285Y-109550857D01*
X132159428Y-112408000D02*
X132159428Y-114407999D01*
X135302285Y-115265142D02*
X135302285Y-112408000D01*
X129302285Y-112408000D01*
X129302285Y-115265142D01*
X135302285Y-121265142D02*
X132445142Y-119265142D01*
X135302285Y-117836571D02*
X129302285Y-117836571D01*
X129302285Y-120122285D01*
X129588000Y-120693714D01*
X129873714Y-120979428D01*
X130445142Y-121265142D01*
X131302285Y-121265142D01*
X131873714Y-120979428D01*
X132159428Y-120693714D01*
X132445142Y-120122285D01*
X132445142Y-117836571D01*
M02*
