M48
; DRILL file {KiCad (5.1.9)-1} date 01/23/25 06:38:55
; FORMAT={-:-/ absolute / inch / decimal}
; #@! TF.CreationDate,2025-01-23T06:38:55-08:00
; #@! TF.GenerationSoftware,Kicad,Pcbnew,(5.1.9)-1
; #@! TF.FileFunction,Plated,1,6,PTH
FMAT,2
INCH
T1C0.0157
T2C0.0315
T3C0.0394
T4C0.0433
T5C0.1260
%
G90
G05
T1
X2.2906Y-5.1449
X2.3785Y-6.362
X2.3937Y-5.2165
X2.4786Y-6.2729
X2.5762Y-6.2749
X2.6399Y-6.1832
X2.676Y-6.3595
X2.7223Y-5.7485
X2.7266Y-5.5926
X2.7785Y-6.253
X2.8105Y-6.3438
X2.8938Y-6.2222
X2.9184Y-6.3391
X2.9785Y-6.2577
X3.0227Y-6.3304
X3.0785Y-6.2439
X3.1066Y-6.3308
X3.1345Y-6.1542
X3.1635Y-6.347
X3.2439Y-6.3073
X3.2685Y-6.3445
X3.3539Y-6.3708
X3.3786Y-6.3296
X3.3925Y-5.8715
X3.4544Y-6.2897
X3.479Y-6.3265
X3.6035Y-6.362
X3.646Y-6.3645
X3.6597Y-5.5615
X3.711Y-5.7945
X3.7352Y-6.1801
X3.7435Y-6.317
X3.8233Y-6.199
X3.878Y-6.0827
X3.881Y-6.2895
X3.9124Y-6.3509
X3.941Y-6.367
X3.981Y-6.2645
X4.0369Y-6.3429
X4.0617Y-6.3088
X4.138Y-6.3528
X4.1762Y-6.3081
X4.2056Y-6.0582
X4.2362Y-6.3386
X4.281Y-6.3085
X4.3436Y-6.3166
X4.3558Y-5.754
X4.4785Y-6.3595
T2
X1.716Y-1.8245
X1.716Y-2.7245
X1.716Y-3.7245
X1.716Y-4.7445
X2.6105Y-5.959
X2.6115Y-5.6185
X2.716Y-2.7245
X2.716Y-4.7445
X3.4635Y-5.5215
X3.4635Y-5.8235
X3.716Y-2.7245
X3.716Y-3.7245
X3.716Y-4.7445
X4.412Y-5.8235
X4.4125Y-5.5215
X4.4795Y-6.2855
X4.715Y-4.4783
X4.716Y-1.8245
X4.716Y-2.7245
X4.716Y-3.7245
T3
X2.2373Y-2.4245
X2.2373Y-2.5245
X2.2373Y-4.9245
X2.2373Y-5.0245
X2.3373Y-2.4245
X2.3373Y-2.5245
X2.3373Y-4.9245
X2.3373Y-5.0245
X2.4373Y-2.4245
X2.4373Y-2.5245
X2.4373Y-4.9245
X2.4373Y-5.0245
X2.4685Y-2.0063
X2.4685Y-2.1063
X2.5373Y-2.4245
X2.5373Y-2.5245
X2.5373Y-4.9245
X2.5373Y-5.0245
X2.5685Y-2.0063
X2.5685Y-2.1063
X2.6373Y-2.4245
X2.6373Y-2.5245
X2.6373Y-4.9245
X2.6373Y-5.0245
X2.6685Y-2.0063
X2.6685Y-2.1063
X2.7373Y-2.4245
X2.7373Y-2.5245
X2.7373Y-4.9245
X2.7373Y-5.0245
X2.7685Y-2.0063
X2.7685Y-2.1063
X2.8373Y-2.4245
X2.8373Y-2.5245
X2.8373Y-4.9245
X2.8373Y-5.0245
X2.8685Y-2.0063
X2.8685Y-2.1063
X2.9373Y-2.4245
X2.9373Y-2.5245
X2.9373Y-4.9245
X2.9373Y-5.0245
X2.9685Y-2.0063
X2.9685Y-2.1063
X3.0373Y-2.4245
X3.0373Y-2.5245
X3.0373Y-4.9245
X3.0373Y-5.0245
X3.0685Y-2.0063
X3.0685Y-2.1063
X3.1373Y-2.4245
X3.1373Y-2.5245
X3.1373Y-4.9245
X3.1373Y-5.0245
X3.1685Y-2.0063
X3.1685Y-2.1063
X3.2373Y-2.4245
X3.2373Y-2.5245
X3.2373Y-4.9245
X3.2373Y-5.0245
X3.2685Y-2.0063
X3.2685Y-2.1063
X3.3373Y-2.4245
X3.3373Y-2.5245
X3.3373Y-4.9245
X3.3373Y-5.0245
X3.3685Y-2.0063
X3.3685Y-2.1063
X3.4373Y-2.4245
X3.4373Y-2.5245
X3.4373Y-4.9245
X3.4373Y-5.0245
X3.4685Y-2.0063
X3.4685Y-2.1063
X3.5373Y-2.4245
X3.5373Y-2.5245
X3.5373Y-4.9245
X3.5373Y-5.0245
X3.5685Y-2.0063
X3.5685Y-2.1063
X3.6373Y-2.4245
X3.6373Y-2.5245
X3.6373Y-4.9245
X3.6373Y-5.0245
X3.6685Y-2.0063
X3.6685Y-2.1063
X3.7373Y-2.4245
X3.7373Y-2.5245
X3.7373Y-4.9245
X3.7373Y-5.0245
X3.7685Y-2.0063
X3.7685Y-2.1063
X3.8373Y-2.4245
X3.8373Y-2.5245
X3.8373Y-4.9245
X3.8373Y-5.0245
X3.8685Y-2.0063
X3.8685Y-2.1063
X3.9373Y-2.4245
X3.9373Y-2.5245
X3.9373Y-4.9245
X3.9373Y-5.0245
X3.9685Y-2.0063
X3.9685Y-2.1063
X4.0373Y-2.4245
X4.0373Y-2.5245
X4.0373Y-4.9245
X4.0373Y-5.0245
X4.0685Y-2.0063
X4.0685Y-2.1063
X4.1373Y-2.4245
X4.1373Y-2.5245
X4.1373Y-4.9245
X4.1373Y-5.0245
X4.1685Y-2.0063
X4.1685Y-2.1063
X4.2685Y-2.0063
X4.2685Y-2.1063
X4.3685Y-2.0063
X4.3685Y-2.1063
X4.7335Y-4.9
X4.7335Y-5.0
X4.7335Y-5.1
T4
X2.316Y-1.5245
X2.316Y-1.7245
X2.416Y-1.5245
X2.416Y-1.7245
X2.516Y-1.5245
X2.516Y-1.7245
X2.616Y-1.5245
X2.616Y-1.7245
X2.716Y-1.5245
X2.716Y-1.7245
X2.816Y-1.5245
X2.816Y-1.7245
X2.916Y-1.5245
X2.916Y-1.7245
X3.016Y-1.5245
X3.016Y-1.7245
X3.116Y-1.5245
X3.116Y-1.7245
X3.216Y-1.5245
X3.216Y-1.7245
X3.316Y-1.5245
X3.316Y-1.7245
X3.416Y-1.5245
X3.416Y-1.7245
X3.516Y-1.5245
X3.516Y-1.7245
X3.616Y-1.5245
X3.616Y-1.7245
X3.716Y-1.5245
X3.716Y-1.7245
X3.816Y-1.5245
X3.816Y-1.7245
X3.916Y-1.5245
X3.916Y-1.7245
X4.016Y-1.5245
X4.016Y-1.7245
X4.116Y-1.5245
X4.116Y-1.7245
X4.216Y-1.5245
X4.216Y-1.7245
X4.316Y-1.5245
X4.316Y-1.7245
X4.416Y-1.5245
X4.416Y-1.7245
T5
X1.4485Y-1.1935
X1.4485Y-5.3245
X5.3962Y-1.1935
X5.3962Y-5.3345
T0
M30
