%TF.GenerationSoftware,KiCad,Pcbnew,(5.1.9)-1*%
%TF.CreationDate,2025-05-03T12:54:25-07:00*%
%TF.ProjectId,RADA3K,52414441-334b-42e6-9b69-6361645f7063,rev?*%
%TF.SameCoordinates,Original*%
%TF.FileFunction,Soldermask,Top*%
%TF.FilePolarity,Negative*%
%FSLAX46Y46*%
G04 Gerber Fmt 4.6, Leading zero omitted, Abs format (unit mm)*
G04 Created by KiCad (PCBNEW (5.1.9)-1) date 2025-05-03 12:54:25*
%MOMM*%
%LPD*%
G01*
G04 APERTURE LIST*
%ADD10O,3.400000X2.900000*%
%ADD11C,2.130000*%
%ADD12C,4.464000*%
G04 APERTURE END LIST*
%TO.C,D2*%
G36*
G01*
X92100000Y-86750000D02*
X92100000Y-87950000D01*
G75*
G02*
X91900000Y-88150000I-200000J0D01*
G01*
X90700000Y-88150000D01*
G75*
G02*
X90500000Y-87950000I0J200000D01*
G01*
X90500000Y-86750000D01*
G75*
G02*
X90700000Y-86550000I200000J0D01*
G01*
X91900000Y-86550000D01*
G75*
G02*
X92100000Y-86750000I0J-200000D01*
G01*
G37*
G36*
G01*
X89900000Y-86750000D02*
X89900000Y-87950000D01*
G75*
G02*
X89700000Y-88150000I-200000J0D01*
G01*
X88500000Y-88150000D01*
G75*
G02*
X88300000Y-87950000I0J200000D01*
G01*
X88300000Y-86750000D01*
G75*
G02*
X88500000Y-86550000I200000J0D01*
G01*
X89700000Y-86550000D01*
G75*
G02*
X89900000Y-86750000I0J-200000D01*
G01*
G37*
%TD*%
%TO.C,D1*%
G36*
G01*
X80550000Y-87950000D02*
X80550000Y-86750000D01*
G75*
G02*
X80750000Y-86550000I200000J0D01*
G01*
X81950000Y-86550000D01*
G75*
G02*
X82150000Y-86750000I0J-200000D01*
G01*
X82150000Y-87950000D01*
G75*
G02*
X81950000Y-88150000I-200000J0D01*
G01*
X80750000Y-88150000D01*
G75*
G02*
X80550000Y-87950000I0J200000D01*
G01*
G37*
G36*
G01*
X82750000Y-87950000D02*
X82750000Y-86750000D01*
G75*
G02*
X82950000Y-86550000I200000J0D01*
G01*
X84150000Y-86550000D01*
G75*
G02*
X84350000Y-86750000I0J-200000D01*
G01*
X84350000Y-87950000D01*
G75*
G02*
X84150000Y-88150000I-200000J0D01*
G01*
X82950000Y-88150000D01*
G75*
G02*
X82750000Y-87950000I0J200000D01*
G01*
G37*
%TD*%
D10*
%TO.C,SW3*%
X109505000Y-58400000D03*
X109505000Y-63400000D03*
X97005000Y-58400000D03*
X97005000Y-63400000D03*
%TD*%
%TO.C,SW1*%
X76485000Y-58400000D03*
X76485000Y-63400000D03*
X63985000Y-58400000D03*
X63985000Y-63400000D03*
%TD*%
%TO.C,SW2*%
X92995000Y-58400000D03*
X92995000Y-63400000D03*
X80495000Y-58400000D03*
X80495000Y-63400000D03*
%TD*%
D11*
%TO.C,J1*%
X109660000Y-52230000D03*
X63940000Y-52230000D03*
%TD*%
D12*
%TO.C,GND*%
X36791900Y-135242300D03*
%TD*%
%TO.C,GND*%
X137063972Y-135496300D03*
%TD*%
%TO.C,GND*%
X36791900Y-30314900D03*
%TD*%
%TO.C,GND*%
X137063972Y-30314900D03*
%TD*%
M02*
