%TF.GenerationSoftware,KiCad,Pcbnew,(5.1.9)-1*%
%TF.CreationDate,2025-05-03T12:54:25-07:00*%
%TF.ProjectId,RADA3K,52414441-334b-42e6-9b69-6361645f7063,rev?*%
%TF.SameCoordinates,Original*%
%TF.FileFunction,Copper,L4,Bot*%
%TF.FilePolarity,Positive*%
%FSLAX46Y46*%
G04 Gerber Fmt 4.6, Leading zero omitted, Abs format (unit mm)*
G04 Created by KiCad (PCBNEW (5.1.9)-1) date 2025-05-03 12:54:25*
%MOMM*%
%LPD*%
G01*
G04 APERTURE LIST*
%TA.AperFunction,SMDPad,CuDef*%
%ADD10R,1.300000X1.500000*%
%TD*%
%TA.AperFunction,ComponentPad*%
%ADD11O,3.000000X2.500000*%
%TD*%
%TA.AperFunction,SMDPad,CuDef*%
%ADD12C,0.100000*%
%TD*%
%TA.AperFunction,SMDPad,CuDef*%
%ADD13R,1.270000X3.680000*%
%TD*%
%TA.AperFunction,ComponentPad*%
%ADD14C,4.064000*%
%TD*%
%TA.AperFunction,SMDPad,CuDef*%
%ADD15R,1.500000X1.300000*%
%TD*%
%TA.AperFunction,ViaPad*%
%ADD16C,0.600000*%
%TD*%
%TA.AperFunction,Conductor*%
%ADD17C,0.250000*%
%TD*%
%TA.AperFunction,NonConductor*%
%ADD18C,0.254000*%
%TD*%
%TA.AperFunction,NonConductor*%
%ADD19C,0.100000*%
%TD*%
G04 APERTURE END LIST*
D10*
%TO.P,R4,1*%
%TO.N,/GPIO_1_24*%
X78900000Y-81400000D03*
%TO.P,R4,2*%
%TO.N,Net-(D1-Pad2)*%
X78900000Y-84100000D03*
%TD*%
%TO.P,R3,1*%
%TO.N,/GPIO_1_24*%
X93650000Y-81400000D03*
%TO.P,R3,2*%
%TO.N,Net-(D2-Pad2)*%
X93650000Y-84100000D03*
%TD*%
D11*
%TO.P,SW3,1*%
%TO.N,GND*%
X109505000Y-58400000D03*
%TO.P,SW3,2*%
%TO.N,/GPIO_1_1*%
X109505000Y-63400000D03*
%TO.P,SW3,1*%
%TO.N,GND*%
X97005000Y-58400000D03*
%TO.P,SW3,2*%
%TO.N,/GPIO_1_1*%
X97005000Y-63400000D03*
%TD*%
%TO.P,SW1,1*%
%TO.N,GND*%
X76485000Y-58400000D03*
%TO.P,SW1,2*%
%TO.N,/FPGA__RST*%
X76485000Y-63400000D03*
%TO.P,SW1,1*%
%TO.N,GND*%
X63985000Y-58400000D03*
%TO.P,SW1,2*%
%TO.N,/FPGA__RST*%
X63985000Y-63400000D03*
%TD*%
%TO.P,SW2,1*%
%TO.N,GND*%
X92995000Y-58400000D03*
%TO.P,SW2,2*%
%TO.N,/GPIO_1_3*%
X92995000Y-63400000D03*
%TO.P,SW2,1*%
%TO.N,GND*%
X80495000Y-58400000D03*
%TO.P,SW2,2*%
%TO.N,/GPIO_1_3*%
X80495000Y-63400000D03*
%TD*%
%TA.AperFunction,SMDPad,CuDef*%
D12*
%TO.P,J1,01*%
%TO.N,/FPGA__RST*%
G36*
X62034025Y-51599904D02*
G01*
X62033087Y-51599619D01*
X62032222Y-51599157D01*
X62031464Y-51598536D01*
X62030843Y-51597778D01*
X62030381Y-51596913D01*
X62030096Y-51595975D01*
X62030000Y-51595000D01*
X62030000Y-47915000D01*
X62030096Y-47914025D01*
X62030381Y-47913087D01*
X62030843Y-47912222D01*
X62031464Y-47911464D01*
X62032222Y-47910843D01*
X62033087Y-47910381D01*
X62034025Y-47910096D01*
X62035000Y-47910000D01*
X63305000Y-47910000D01*
X63305975Y-47910096D01*
X63306913Y-47910381D01*
X63307778Y-47910843D01*
X63308536Y-47911464D01*
X63309157Y-47912222D01*
X63309619Y-47913087D01*
X63309904Y-47914025D01*
X63310000Y-47915000D01*
X63310000Y-51235000D01*
X63309904Y-51235975D01*
X63309619Y-51236913D01*
X63309157Y-51237778D01*
X63308536Y-51238536D01*
X62948536Y-51598536D01*
X62947778Y-51599157D01*
X62946913Y-51599619D01*
X62945975Y-51599904D01*
X62945000Y-51600000D01*
X62035000Y-51600000D01*
X62034025Y-51599904D01*
G37*
%TD.AperFunction*%
%TA.AperFunction,SMDPad,CuDef*%
%TO.P,J1,02*%
%TO.N,/GPIO_1_35*%
G36*
X62034025Y-56549904D02*
G01*
X62033087Y-56549619D01*
X62032222Y-56549157D01*
X62031464Y-56548536D01*
X62030843Y-56547778D01*
X62030381Y-56546913D01*
X62030096Y-56545975D01*
X62030000Y-56545000D01*
X62030000Y-52865000D01*
X62030096Y-52864025D01*
X62030381Y-52863087D01*
X62030843Y-52862222D01*
X62031464Y-52861464D01*
X62032222Y-52860843D01*
X62033087Y-52860381D01*
X62034025Y-52860096D01*
X62035000Y-52860000D01*
X62945000Y-52860000D01*
X62945975Y-52860096D01*
X62946913Y-52860381D01*
X62947778Y-52860843D01*
X62948536Y-52861464D01*
X63308536Y-53221464D01*
X63309157Y-53222222D01*
X63309619Y-53223087D01*
X63309904Y-53224025D01*
X63310000Y-53225000D01*
X63310000Y-56545000D01*
X63309904Y-56545975D01*
X63309619Y-56546913D01*
X63309157Y-56547778D01*
X63308536Y-56548536D01*
X63307778Y-56549157D01*
X63306913Y-56549619D01*
X63305975Y-56549904D01*
X63305000Y-56550000D01*
X62035000Y-56550000D01*
X62034025Y-56549904D01*
G37*
%TD.AperFunction*%
%TA.AperFunction,SMDPad,CuDef*%
%TO.P,J1,03*%
%TO.N,/FPGA__NMI*%
G36*
X64934025Y-51599904D02*
G01*
X64933087Y-51599619D01*
X64932222Y-51599157D01*
X64931464Y-51598536D01*
X64571464Y-51238536D01*
X64570843Y-51237778D01*
X64570381Y-51236913D01*
X64570096Y-51235975D01*
X64570000Y-51235000D01*
X64570000Y-47915000D01*
X64570096Y-47914025D01*
X64570381Y-47913087D01*
X64570843Y-47912222D01*
X64571464Y-47911464D01*
X64572222Y-47910843D01*
X64573087Y-47910381D01*
X64574025Y-47910096D01*
X64575000Y-47910000D01*
X65845000Y-47910000D01*
X65845975Y-47910096D01*
X65846913Y-47910381D01*
X65847778Y-47910843D01*
X65848536Y-47911464D01*
X65849157Y-47912222D01*
X65849619Y-47913087D01*
X65849904Y-47914025D01*
X65850000Y-47915000D01*
X65850000Y-51595000D01*
X65849904Y-51595975D01*
X65849619Y-51596913D01*
X65849157Y-51597778D01*
X65848536Y-51598536D01*
X65847778Y-51599157D01*
X65846913Y-51599619D01*
X65845975Y-51599904D01*
X65845000Y-51600000D01*
X64935000Y-51600000D01*
X64934025Y-51599904D01*
G37*
%TD.AperFunction*%
%TA.AperFunction,SMDPad,CuDef*%
%TO.P,J1,04*%
%TO.N,/GPIO_1_33*%
G36*
X64574025Y-56549904D02*
G01*
X64573087Y-56549619D01*
X64572222Y-56549157D01*
X64571464Y-56548536D01*
X64570843Y-56547778D01*
X64570381Y-56546913D01*
X64570096Y-56545975D01*
X64570000Y-56545000D01*
X64570000Y-53225000D01*
X64570096Y-53224025D01*
X64570381Y-53223087D01*
X64570843Y-53222222D01*
X64571464Y-53221464D01*
X64931464Y-52861464D01*
X64932222Y-52860843D01*
X64933087Y-52860381D01*
X64934025Y-52860096D01*
X64935000Y-52860000D01*
X65845000Y-52860000D01*
X65845975Y-52860096D01*
X65846913Y-52860381D01*
X65847778Y-52860843D01*
X65848536Y-52861464D01*
X65849157Y-52862222D01*
X65849619Y-52863087D01*
X65849904Y-52864025D01*
X65850000Y-52865000D01*
X65850000Y-56545000D01*
X65849904Y-56545975D01*
X65849619Y-56546913D01*
X65849157Y-56547778D01*
X65848536Y-56548536D01*
X65847778Y-56549157D01*
X65846913Y-56549619D01*
X65845975Y-56549904D01*
X65845000Y-56550000D01*
X64575000Y-56550000D01*
X64574025Y-56549904D01*
G37*
%TD.AperFunction*%
D13*
%TO.P,J1,05*%
%TO.N,/GPIO_1_30*%
X67750000Y-49755000D03*
%TO.P,J1,06*%
%TO.N,/GPIO_1_31*%
X67750000Y-54705000D03*
%TO.P,J1,07*%
%TO.N,/GPIO_1_28*%
X70290000Y-49755000D03*
%TO.P,J1,08*%
%TO.N,/GPIO_1_29*%
X70290000Y-54705000D03*
%TO.P,J1,09*%
%TO.N,/GPIO_1_26*%
X72830000Y-49755000D03*
%TO.P,J1,10*%
%TO.N,/GPIO_1_27*%
X72830000Y-54705000D03*
%TO.P,J1,11*%
%TO.N,/FPGA_3V*%
X75370000Y-49755000D03*
%TO.P,J1,12*%
%TO.N,GND*%
X75370000Y-54705000D03*
%TO.P,J1,13*%
%TO.N,/GPIO_1_24*%
X77910000Y-49755000D03*
%TO.P,J1,14*%
%TO.N,/GPIO_1_25*%
X77910000Y-54705000D03*
%TO.P,J1,15*%
%TO.N,/GPIO_1_22*%
X80450000Y-49755000D03*
%TO.P,J1,16*%
%TO.N,/GPIO_1_23*%
X80450000Y-54705000D03*
%TO.P,J1,17*%
%TO.N,/GPIO_1_20*%
X82990000Y-49755000D03*
%TO.P,J1,18*%
%TO.N,/GPIO_1_21*%
X82990000Y-54705000D03*
%TO.P,J1,19*%
%TO.N,/GPIO_1_18*%
X85530000Y-49755000D03*
%TO.P,J1,20*%
%TO.N,/GPIO_1_19*%
X85530000Y-54705000D03*
%TO.P,J1,21*%
%TO.N,/GPIO_1_16*%
X88070000Y-49755000D03*
%TO.P,J1,22*%
%TO.N,/GPIO_1_17*%
X88070000Y-54705000D03*
%TO.P,J1,23*%
%TO.N,/GPIO_1_14*%
X90610000Y-49755000D03*
%TO.P,J1,24*%
%TO.N,/GPIO_1_15*%
X90610000Y-54705000D03*
%TO.P,J1,25*%
%TO.N,/GPIO_1_12*%
X93150000Y-49755000D03*
%TO.P,J1,26*%
%TO.N,/GPIO_1_13*%
X93150000Y-54705000D03*
%TO.P,J1,27*%
%TO.N,/GPIO_1_10*%
X95690000Y-49755000D03*
%TO.P,J1,28*%
%TO.N,/GPIO_1_11*%
X95690000Y-54705000D03*
%TO.P,J1,29*%
%TO.N,/FPGA_5V*%
X98230000Y-49755000D03*
%TO.P,J1,30*%
%TO.N,GND*%
X98230000Y-54705000D03*
%TO.P,J1,31*%
%TO.N,/GPIO_1_8*%
X100770000Y-49755000D03*
%TO.P,J1,32*%
%TO.N,/GPIO_1_9*%
X100770000Y-54705000D03*
%TO.P,J1,33*%
%TO.N,/GPIO_1_6*%
X103310000Y-49755000D03*
%TO.P,J1,34*%
%TO.N,/GPIO_1_7*%
X103310000Y-54705000D03*
%TO.P,J1,35*%
%TO.N,Net-(J1-Pad35)*%
X105850000Y-49755000D03*
%TO.P,J1,36*%
%TO.N,/GPIO_1_5*%
X105850000Y-54705000D03*
%TA.AperFunction,SMDPad,CuDef*%
D12*
%TO.P,J1,37*%
%TO.N,Net-(J1-Pad37)*%
G36*
X107754025Y-51599904D02*
G01*
X107753087Y-51599619D01*
X107752222Y-51599157D01*
X107751464Y-51598536D01*
X107750843Y-51597778D01*
X107750381Y-51596913D01*
X107750096Y-51595975D01*
X107750000Y-51595000D01*
X107750000Y-47915000D01*
X107750096Y-47914025D01*
X107750381Y-47913087D01*
X107750843Y-47912222D01*
X107751464Y-47911464D01*
X107752222Y-47910843D01*
X107753087Y-47910381D01*
X107754025Y-47910096D01*
X107755000Y-47910000D01*
X109025000Y-47910000D01*
X109025975Y-47910096D01*
X109026913Y-47910381D01*
X109027778Y-47910843D01*
X109028536Y-47911464D01*
X109029157Y-47912222D01*
X109029619Y-47913087D01*
X109029904Y-47914025D01*
X109030000Y-47915000D01*
X109030000Y-51235000D01*
X109029904Y-51235975D01*
X109029619Y-51236913D01*
X109029157Y-51237778D01*
X109028536Y-51238536D01*
X108668536Y-51598536D01*
X108667778Y-51599157D01*
X108666913Y-51599619D01*
X108665975Y-51599904D01*
X108665000Y-51600000D01*
X107755000Y-51600000D01*
X107754025Y-51599904D01*
G37*
%TD.AperFunction*%
%TA.AperFunction,SMDPad,CuDef*%
%TO.P,J1,38*%
%TO.N,/GPIO_1_3*%
G36*
X107754025Y-56549904D02*
G01*
X107753087Y-56549619D01*
X107752222Y-56549157D01*
X107751464Y-56548536D01*
X107750843Y-56547778D01*
X107750381Y-56546913D01*
X107750096Y-56545975D01*
X107750000Y-56545000D01*
X107750000Y-52865000D01*
X107750096Y-52864025D01*
X107750381Y-52863087D01*
X107750843Y-52862222D01*
X107751464Y-52861464D01*
X107752222Y-52860843D01*
X107753087Y-52860381D01*
X107754025Y-52860096D01*
X107755000Y-52860000D01*
X108665000Y-52860000D01*
X108665975Y-52860096D01*
X108666913Y-52860381D01*
X108667778Y-52860843D01*
X108668536Y-52861464D01*
X109028536Y-53221464D01*
X109029157Y-53222222D01*
X109029619Y-53223087D01*
X109029904Y-53224025D01*
X109030000Y-53225000D01*
X109030000Y-56545000D01*
X109029904Y-56545975D01*
X109029619Y-56546913D01*
X109029157Y-56547778D01*
X109028536Y-56548536D01*
X109027778Y-56549157D01*
X109026913Y-56549619D01*
X109025975Y-56549904D01*
X109025000Y-56550000D01*
X107755000Y-56550000D01*
X107754025Y-56549904D01*
G37*
%TD.AperFunction*%
%TA.AperFunction,SMDPad,CuDef*%
%TO.P,J1,39*%
%TO.N,Net-(J1-Pad39)*%
G36*
X110654025Y-51599904D02*
G01*
X110653087Y-51599619D01*
X110652222Y-51599157D01*
X110651464Y-51598536D01*
X110291464Y-51238536D01*
X110290843Y-51237778D01*
X110290381Y-51236913D01*
X110290096Y-51235975D01*
X110290000Y-51235000D01*
X110290000Y-47915000D01*
X110290096Y-47914025D01*
X110290381Y-47913087D01*
X110290843Y-47912222D01*
X110291464Y-47911464D01*
X110292222Y-47910843D01*
X110293087Y-47910381D01*
X110294025Y-47910096D01*
X110295000Y-47910000D01*
X111565000Y-47910000D01*
X111565975Y-47910096D01*
X111566913Y-47910381D01*
X111567778Y-47910843D01*
X111568536Y-47911464D01*
X111569157Y-47912222D01*
X111569619Y-47913087D01*
X111569904Y-47914025D01*
X111570000Y-47915000D01*
X111570000Y-51595000D01*
X111569904Y-51595975D01*
X111569619Y-51596913D01*
X111569157Y-51597778D01*
X111568536Y-51598536D01*
X111567778Y-51599157D01*
X111566913Y-51599619D01*
X111565975Y-51599904D01*
X111565000Y-51600000D01*
X110655000Y-51600000D01*
X110654025Y-51599904D01*
G37*
%TD.AperFunction*%
%TA.AperFunction,SMDPad,CuDef*%
%TO.P,J1,40*%
%TO.N,/GPIO_1_1*%
G36*
X110294025Y-56549904D02*
G01*
X110293087Y-56549619D01*
X110292222Y-56549157D01*
X110291464Y-56548536D01*
X110290843Y-56547778D01*
X110290381Y-56546913D01*
X110290096Y-56545975D01*
X110290000Y-56545000D01*
X110290000Y-53225000D01*
X110290096Y-53224025D01*
X110290381Y-53223087D01*
X110290843Y-53222222D01*
X110291464Y-53221464D01*
X110651464Y-52861464D01*
X110652222Y-52860843D01*
X110653087Y-52860381D01*
X110654025Y-52860096D01*
X110655000Y-52860000D01*
X111565000Y-52860000D01*
X111565975Y-52860096D01*
X111566913Y-52860381D01*
X111567778Y-52860843D01*
X111568536Y-52861464D01*
X111569157Y-52862222D01*
X111569619Y-52863087D01*
X111569904Y-52864025D01*
X111570000Y-52865000D01*
X111570000Y-56545000D01*
X111569904Y-56545975D01*
X111569619Y-56546913D01*
X111569157Y-56547778D01*
X111568536Y-56548536D01*
X111567778Y-56549157D01*
X111566913Y-56549619D01*
X111565975Y-56549904D01*
X111565000Y-56550000D01*
X110295000Y-56550000D01*
X110294025Y-56549904D01*
G37*
%TD.AperFunction*%
%TD*%
D14*
%TO.P,GND,1*%
%TO.N,N/C*%
X36791900Y-135242300D03*
%TD*%
%TO.P,GND,1*%
%TO.N,N/C*%
X137063972Y-135496300D03*
%TD*%
%TO.P,GND,1*%
%TO.N,N/C*%
X36791900Y-30314900D03*
%TD*%
%TO.P,GND,1*%
%TO.N,N/C*%
X137063972Y-30314900D03*
%TD*%
D15*
%TO.P,R2,1*%
%TO.N,/FPGA_3V*%
X85700000Y-70150000D03*
%TO.P,R2,2*%
%TO.N,/GPIO_1_3*%
X88400000Y-70150000D03*
%TD*%
%TO.P,R1,1*%
%TO.N,/FPGA_3V*%
X102350000Y-70150000D03*
%TO.P,R1,2*%
%TO.N,/GPIO_1_1*%
X105050000Y-70150000D03*
%TD*%
D16*
%TO.N,GND*%
X86350000Y-87350000D03*
%TO.N,Net-(D1-Pad2)*%
X80050000Y-87350000D03*
%TO.N,Net-(D2-Pad2)*%
X92700000Y-87300000D03*
%TD*%
D17*
%TO.N,GND*%
X98230000Y-57175000D02*
X97005000Y-58400000D01*
X98230000Y-54705000D02*
X98230000Y-57175000D01*
X75370000Y-57285000D02*
X76485000Y-58400000D01*
X75370000Y-54705000D02*
X75370000Y-57285000D01*
%TO.N,/FPGA__RST*%
X60130000Y-52295000D02*
X62670000Y-49755000D01*
X63400000Y-63400000D02*
X60130000Y-60130000D01*
X63985000Y-63400000D02*
X63400000Y-63400000D01*
X60130000Y-60130000D02*
X60130000Y-52295000D01*
%TO.N,/FPGA_3V*%
X58050000Y-49550000D02*
X63050000Y-44550000D01*
X63050000Y-44550000D02*
X74150000Y-44550000D01*
X75370000Y-45770000D02*
X75370000Y-49755000D01*
X74150000Y-44550000D02*
X75370000Y-45770000D01*
X62950000Y-70150000D02*
X58050000Y-65250000D01*
X58050000Y-65250000D02*
X58050000Y-49550000D01*
X102350000Y-70150000D02*
X96650000Y-70150000D01*
X96650000Y-70150000D02*
X93200000Y-73600000D01*
X81900000Y-73600000D02*
X78450000Y-70150000D01*
X93200000Y-73600000D02*
X81900000Y-73600000D01*
X78450000Y-70150000D02*
X62950000Y-70150000D01*
X85700000Y-70150000D02*
X78450000Y-70150000D01*
%TO.N,/GPIO_1_1*%
X110930000Y-54705000D02*
X113155000Y-54705000D01*
X113155000Y-54705000D02*
X113950000Y-55500000D01*
X113950000Y-55500000D02*
X113950000Y-64205000D01*
X108005000Y-70150000D02*
X110302500Y-67852500D01*
X105050000Y-70150000D02*
X108005000Y-70150000D01*
X110302500Y-67852500D02*
X109655000Y-68500000D01*
X109505000Y-64555000D02*
X111552500Y-66602500D01*
X111552500Y-66602500D02*
X110302500Y-67852500D01*
X109505000Y-63400000D02*
X109505000Y-64555000D01*
X113950000Y-64205000D02*
X111552500Y-66602500D01*
%TO.N,/GPIO_1_3*%
X108390000Y-56550000D02*
X108390000Y-54705000D01*
X108390000Y-56550000D02*
X103990000Y-60950000D01*
X103990000Y-60950000D02*
X93850000Y-60950000D01*
X92995000Y-61805000D02*
X92995000Y-63400000D01*
X93850000Y-60950000D02*
X92995000Y-61805000D01*
X92995000Y-63400000D02*
X92995000Y-68155000D01*
X91000000Y-70150000D02*
X88400000Y-70150000D01*
X92995000Y-68155000D02*
X91000000Y-70150000D01*
%TO.N,/GPIO_1_24*%
X93650000Y-81400000D02*
X78900000Y-81400000D01*
X78900000Y-81400000D02*
X78900000Y-73850000D01*
X78900000Y-73850000D02*
X76600000Y-71550000D01*
X76600000Y-71550000D02*
X61350000Y-71550000D01*
X61350000Y-71550000D02*
X56250000Y-66450000D01*
X56250000Y-66450000D02*
X56250000Y-48750000D01*
X56250000Y-48750000D02*
X61700000Y-43300000D01*
X61700000Y-43300000D02*
X75500000Y-43300000D01*
X77910000Y-45710000D02*
X77910000Y-49755000D01*
X75500000Y-43300000D02*
X77910000Y-45710000D01*
%TO.N,Net-(J1-Pad37)*%
X108605000Y-48895000D02*
X108804700Y-48895000D01*
%TO.N,Net-(D1-Pad2)*%
X80050000Y-87350000D02*
X79500000Y-87350000D01*
X78900000Y-86750000D02*
X78900000Y-84100000D01*
X79500000Y-87350000D02*
X78900000Y-86750000D01*
%TO.N,Net-(D2-Pad2)*%
X93650000Y-86350000D02*
X93650000Y-84100000D01*
X92700000Y-87300000D02*
X93650000Y-86350000D01*
%TD*%
D18*
X141433972Y-139612300D02*
X32421900Y-139612300D01*
X32421900Y-134979623D01*
X34124900Y-134979623D01*
X34124900Y-135504977D01*
X34227392Y-136020235D01*
X34428436Y-136505598D01*
X34720306Y-136942413D01*
X35091787Y-137313894D01*
X35528602Y-137605764D01*
X36013965Y-137806808D01*
X36529223Y-137909300D01*
X37054577Y-137909300D01*
X37569835Y-137806808D01*
X38055198Y-137605764D01*
X38492013Y-137313894D01*
X38863494Y-136942413D01*
X39155364Y-136505598D01*
X39356408Y-136020235D01*
X39458900Y-135504977D01*
X39458900Y-135233623D01*
X134396972Y-135233623D01*
X134396972Y-135758977D01*
X134499464Y-136274235D01*
X134700508Y-136759598D01*
X134992378Y-137196413D01*
X135363859Y-137567894D01*
X135800674Y-137859764D01*
X136286037Y-138060808D01*
X136801295Y-138163300D01*
X137326649Y-138163300D01*
X137841907Y-138060808D01*
X138327270Y-137859764D01*
X138764085Y-137567894D01*
X139135566Y-137196413D01*
X139427436Y-136759598D01*
X139628480Y-136274235D01*
X139730972Y-135758977D01*
X139730972Y-135233623D01*
X139628480Y-134718365D01*
X139427436Y-134233002D01*
X139135566Y-133796187D01*
X138764085Y-133424706D01*
X138327270Y-133132836D01*
X137841907Y-132931792D01*
X137326649Y-132829300D01*
X136801295Y-132829300D01*
X136286037Y-132931792D01*
X135800674Y-133132836D01*
X135363859Y-133424706D01*
X134992378Y-133796187D01*
X134700508Y-134233002D01*
X134499464Y-134718365D01*
X134396972Y-135233623D01*
X39458900Y-135233623D01*
X39458900Y-134979623D01*
X39356408Y-134464365D01*
X39155364Y-133979002D01*
X38863494Y-133542187D01*
X38492013Y-133170706D01*
X38055198Y-132878836D01*
X37569835Y-132677792D01*
X37054577Y-132575300D01*
X36529223Y-132575300D01*
X36013965Y-132677792D01*
X35528602Y-132878836D01*
X35091787Y-133170706D01*
X34720306Y-133542187D01*
X34428436Y-133979002D01*
X34227392Y-134464365D01*
X34124900Y-134979623D01*
X32421900Y-134979623D01*
X32421900Y-48750000D01*
X55486324Y-48750000D01*
X55490001Y-48787333D01*
X55490000Y-66412678D01*
X55486324Y-66450000D01*
X55490000Y-66487322D01*
X55490000Y-66487332D01*
X55500997Y-66598985D01*
X55544454Y-66742246D01*
X55615026Y-66874276D01*
X55654871Y-66922826D01*
X55709999Y-66990001D01*
X55739003Y-67013804D01*
X60786200Y-72061002D01*
X60809999Y-72090001D01*
X60925724Y-72184974D01*
X61057753Y-72255546D01*
X61201014Y-72299003D01*
X61312667Y-72310000D01*
X61312676Y-72310000D01*
X61349999Y-72313676D01*
X61387322Y-72310000D01*
X76285199Y-72310000D01*
X78140001Y-74164803D01*
X78140000Y-80022762D01*
X78125518Y-80024188D01*
X78005820Y-80060498D01*
X77895506Y-80119463D01*
X77798815Y-80198815D01*
X77719463Y-80295506D01*
X77660498Y-80405820D01*
X77624188Y-80525518D01*
X77611928Y-80650000D01*
X77611928Y-82150000D01*
X77624188Y-82274482D01*
X77660498Y-82394180D01*
X77719463Y-82504494D01*
X77798815Y-82601185D01*
X77895506Y-82680537D01*
X78005820Y-82739502D01*
X78040427Y-82750000D01*
X78005820Y-82760498D01*
X77895506Y-82819463D01*
X77798815Y-82898815D01*
X77719463Y-82995506D01*
X77660498Y-83105820D01*
X77624188Y-83225518D01*
X77611928Y-83350000D01*
X77611928Y-84850000D01*
X77624188Y-84974482D01*
X77660498Y-85094180D01*
X77719463Y-85204494D01*
X77798815Y-85301185D01*
X77895506Y-85380537D01*
X78005820Y-85439502D01*
X78125518Y-85475812D01*
X78140000Y-85477238D01*
X78140000Y-86712677D01*
X78136324Y-86750000D01*
X78140000Y-86787322D01*
X78140000Y-86787332D01*
X78150997Y-86898985D01*
X78194454Y-87042246D01*
X78265026Y-87174276D01*
X78286969Y-87201013D01*
X78359999Y-87290001D01*
X78389002Y-87313803D01*
X78936200Y-87861002D01*
X78959999Y-87890001D01*
X78988997Y-87913799D01*
X79075723Y-87984974D01*
X79152967Y-88026262D01*
X79207753Y-88055546D01*
X79351014Y-88099003D01*
X79462667Y-88110000D01*
X79462676Y-88110000D01*
X79499999Y-88113676D01*
X79508686Y-88112820D01*
X79607111Y-88178586D01*
X79777271Y-88249068D01*
X79957911Y-88285000D01*
X80142089Y-88285000D01*
X80322729Y-88249068D01*
X80492889Y-88178586D01*
X80646028Y-88076262D01*
X80776262Y-87946028D01*
X80878586Y-87792889D01*
X80949068Y-87622729D01*
X80985000Y-87442089D01*
X80985000Y-87257911D01*
X85415000Y-87257911D01*
X85415000Y-87442089D01*
X85450932Y-87622729D01*
X85521414Y-87792889D01*
X85623738Y-87946028D01*
X85753972Y-88076262D01*
X85907111Y-88178586D01*
X86077271Y-88249068D01*
X86257911Y-88285000D01*
X86442089Y-88285000D01*
X86622729Y-88249068D01*
X86792889Y-88178586D01*
X86946028Y-88076262D01*
X87076262Y-87946028D01*
X87178586Y-87792889D01*
X87249068Y-87622729D01*
X87285000Y-87442089D01*
X87285000Y-87257911D01*
X87249068Y-87077271D01*
X87178586Y-86907111D01*
X87076262Y-86753972D01*
X86946028Y-86623738D01*
X86792889Y-86521414D01*
X86622729Y-86450932D01*
X86442089Y-86415000D01*
X86257911Y-86415000D01*
X86077271Y-86450932D01*
X85907111Y-86521414D01*
X85753972Y-86623738D01*
X85623738Y-86753972D01*
X85521414Y-86907111D01*
X85450932Y-87077271D01*
X85415000Y-87257911D01*
X80985000Y-87257911D01*
X80949068Y-87077271D01*
X80878586Y-86907111D01*
X80776262Y-86753972D01*
X80646028Y-86623738D01*
X80492889Y-86521414D01*
X80322729Y-86450932D01*
X80142089Y-86415000D01*
X79957911Y-86415000D01*
X79777271Y-86450932D01*
X79705473Y-86480671D01*
X79660000Y-86435199D01*
X79660000Y-85477238D01*
X79674482Y-85475812D01*
X79794180Y-85439502D01*
X79904494Y-85380537D01*
X80001185Y-85301185D01*
X80080537Y-85204494D01*
X80139502Y-85094180D01*
X80175812Y-84974482D01*
X80188072Y-84850000D01*
X80188072Y-83350000D01*
X80175812Y-83225518D01*
X80139502Y-83105820D01*
X80080537Y-82995506D01*
X80001185Y-82898815D01*
X79904494Y-82819463D01*
X79794180Y-82760498D01*
X79759573Y-82750000D01*
X79794180Y-82739502D01*
X79904494Y-82680537D01*
X80001185Y-82601185D01*
X80080537Y-82504494D01*
X80139502Y-82394180D01*
X80175812Y-82274482D01*
X80187087Y-82160000D01*
X92362913Y-82160000D01*
X92374188Y-82274482D01*
X92410498Y-82394180D01*
X92469463Y-82504494D01*
X92548815Y-82601185D01*
X92645506Y-82680537D01*
X92755820Y-82739502D01*
X92790427Y-82750000D01*
X92755820Y-82760498D01*
X92645506Y-82819463D01*
X92548815Y-82898815D01*
X92469463Y-82995506D01*
X92410498Y-83105820D01*
X92374188Y-83225518D01*
X92361928Y-83350000D01*
X92361928Y-84850000D01*
X92374188Y-84974482D01*
X92410498Y-85094180D01*
X92469463Y-85204494D01*
X92548815Y-85301185D01*
X92645506Y-85380537D01*
X92755820Y-85439502D01*
X92875518Y-85475812D01*
X92890000Y-85477238D01*
X92890000Y-86035198D01*
X92548351Y-86376847D01*
X92427271Y-86400932D01*
X92257111Y-86471414D01*
X92103972Y-86573738D01*
X91973738Y-86703972D01*
X91871414Y-86857111D01*
X91800932Y-87027271D01*
X91765000Y-87207911D01*
X91765000Y-87392089D01*
X91800932Y-87572729D01*
X91871414Y-87742889D01*
X91973738Y-87896028D01*
X92103972Y-88026262D01*
X92257111Y-88128586D01*
X92427271Y-88199068D01*
X92607911Y-88235000D01*
X92792089Y-88235000D01*
X92972729Y-88199068D01*
X93142889Y-88128586D01*
X93296028Y-88026262D01*
X93426262Y-87896028D01*
X93528586Y-87742889D01*
X93599068Y-87572729D01*
X93623153Y-87451649D01*
X94161004Y-86913798D01*
X94190001Y-86890001D01*
X94255657Y-86809999D01*
X94284974Y-86774277D01*
X94355546Y-86642247D01*
X94355546Y-86642246D01*
X94399003Y-86498986D01*
X94410000Y-86387333D01*
X94410000Y-86387323D01*
X94413676Y-86350000D01*
X94410000Y-86312677D01*
X94410000Y-85477238D01*
X94424482Y-85475812D01*
X94544180Y-85439502D01*
X94654494Y-85380537D01*
X94751185Y-85301185D01*
X94830537Y-85204494D01*
X94889502Y-85094180D01*
X94925812Y-84974482D01*
X94938072Y-84850000D01*
X94938072Y-83350000D01*
X94925812Y-83225518D01*
X94889502Y-83105820D01*
X94830537Y-82995506D01*
X94751185Y-82898815D01*
X94654494Y-82819463D01*
X94544180Y-82760498D01*
X94509573Y-82750000D01*
X94544180Y-82739502D01*
X94654494Y-82680537D01*
X94751185Y-82601185D01*
X94830537Y-82504494D01*
X94889502Y-82394180D01*
X94925812Y-82274482D01*
X94938072Y-82150000D01*
X94938072Y-80650000D01*
X94925812Y-80525518D01*
X94889502Y-80405820D01*
X94830537Y-80295506D01*
X94751185Y-80198815D01*
X94654494Y-80119463D01*
X94544180Y-80060498D01*
X94424482Y-80024188D01*
X94300000Y-80011928D01*
X93000000Y-80011928D01*
X92875518Y-80024188D01*
X92755820Y-80060498D01*
X92645506Y-80119463D01*
X92548815Y-80198815D01*
X92469463Y-80295506D01*
X92410498Y-80405820D01*
X92374188Y-80525518D01*
X92362913Y-80640000D01*
X80187087Y-80640000D01*
X80175812Y-80525518D01*
X80139502Y-80405820D01*
X80080537Y-80295506D01*
X80001185Y-80198815D01*
X79904494Y-80119463D01*
X79794180Y-80060498D01*
X79674482Y-80024188D01*
X79660000Y-80022762D01*
X79660000Y-73887322D01*
X79663676Y-73849999D01*
X79660000Y-73812676D01*
X79660000Y-73812667D01*
X79649003Y-73701014D01*
X79605546Y-73557753D01*
X79534974Y-73425724D01*
X79440001Y-73309999D01*
X79411003Y-73286201D01*
X77163804Y-71039003D01*
X77140001Y-71009999D01*
X77024276Y-70915026D01*
X77014873Y-70910000D01*
X78135199Y-70910000D01*
X81336201Y-74111003D01*
X81359999Y-74140001D01*
X81475724Y-74234974D01*
X81607753Y-74305546D01*
X81751014Y-74349003D01*
X81862667Y-74360000D01*
X81862675Y-74360000D01*
X81900000Y-74363676D01*
X81937325Y-74360000D01*
X93162678Y-74360000D01*
X93200000Y-74363676D01*
X93237322Y-74360000D01*
X93237333Y-74360000D01*
X93348986Y-74349003D01*
X93492247Y-74305546D01*
X93624276Y-74234974D01*
X93740001Y-74140001D01*
X93763804Y-74110997D01*
X96964802Y-70910000D01*
X100972762Y-70910000D01*
X100974188Y-70924482D01*
X101010498Y-71044180D01*
X101069463Y-71154494D01*
X101148815Y-71251185D01*
X101245506Y-71330537D01*
X101355820Y-71389502D01*
X101475518Y-71425812D01*
X101600000Y-71438072D01*
X103100000Y-71438072D01*
X103224482Y-71425812D01*
X103344180Y-71389502D01*
X103454494Y-71330537D01*
X103551185Y-71251185D01*
X103630537Y-71154494D01*
X103689502Y-71044180D01*
X103700000Y-71009573D01*
X103710498Y-71044180D01*
X103769463Y-71154494D01*
X103848815Y-71251185D01*
X103945506Y-71330537D01*
X104055820Y-71389502D01*
X104175518Y-71425812D01*
X104300000Y-71438072D01*
X105800000Y-71438072D01*
X105924482Y-71425812D01*
X106044180Y-71389502D01*
X106154494Y-71330537D01*
X106251185Y-71251185D01*
X106330537Y-71154494D01*
X106389502Y-71044180D01*
X106425812Y-70924482D01*
X106427238Y-70910000D01*
X107967678Y-70910000D01*
X108005000Y-70913676D01*
X108042322Y-70910000D01*
X108042333Y-70910000D01*
X108153986Y-70899003D01*
X108297247Y-70855546D01*
X108429276Y-70784974D01*
X108545001Y-70690001D01*
X108568804Y-70660997D01*
X110866299Y-68363503D01*
X110866303Y-68363498D01*
X112063513Y-67166289D01*
X112092500Y-67142500D01*
X112116289Y-67113513D01*
X112116299Y-67113503D01*
X112116303Y-67113498D01*
X114461003Y-64768799D01*
X114490001Y-64745001D01*
X114538257Y-64686201D01*
X114584974Y-64629277D01*
X114655546Y-64497247D01*
X114683220Y-64406015D01*
X114699003Y-64353986D01*
X114710000Y-64242333D01*
X114710000Y-64242323D01*
X114713676Y-64205001D01*
X114710000Y-64167678D01*
X114710000Y-55537325D01*
X114713676Y-55500000D01*
X114710000Y-55462675D01*
X114710000Y-55462667D01*
X114699003Y-55351014D01*
X114655546Y-55207753D01*
X114584974Y-55075724D01*
X114490001Y-54959999D01*
X114461004Y-54936202D01*
X113718803Y-54194002D01*
X113695001Y-54164999D01*
X113579276Y-54070026D01*
X113447247Y-53999454D01*
X113303986Y-53955997D01*
X113192333Y-53945000D01*
X113192322Y-53945000D01*
X113155000Y-53941324D01*
X113117678Y-53945000D01*
X112208072Y-53945000D01*
X112208072Y-52865000D01*
X112205001Y-52802477D01*
X112204905Y-52801502D01*
X112180417Y-52678528D01*
X112180132Y-52677590D01*
X112132443Y-52562480D01*
X112131981Y-52561615D01*
X112062736Y-52457852D01*
X112062115Y-52457094D01*
X111972906Y-52367885D01*
X111972148Y-52367264D01*
X111868385Y-52298019D01*
X111867520Y-52297557D01*
X111752410Y-52249868D01*
X111751472Y-52249583D01*
X111653130Y-52230000D01*
X111751472Y-52210417D01*
X111752410Y-52210132D01*
X111867520Y-52162443D01*
X111868385Y-52161981D01*
X111972148Y-52092736D01*
X111972906Y-52092115D01*
X112062115Y-52002906D01*
X112062736Y-52002148D01*
X112131981Y-51898385D01*
X112132443Y-51897520D01*
X112180132Y-51782410D01*
X112180417Y-51781472D01*
X112204905Y-51658498D01*
X112205001Y-51657523D01*
X112208072Y-51595000D01*
X112208072Y-47915000D01*
X112205001Y-47852477D01*
X112204905Y-47851502D01*
X112180417Y-47728528D01*
X112180132Y-47727590D01*
X112132443Y-47612480D01*
X112131981Y-47611615D01*
X112062736Y-47507852D01*
X112062115Y-47507094D01*
X111972906Y-47417885D01*
X111972148Y-47417264D01*
X111868385Y-47348019D01*
X111867520Y-47347557D01*
X111752410Y-47299868D01*
X111751472Y-47299583D01*
X111628498Y-47275095D01*
X111627523Y-47274999D01*
X111565000Y-47271928D01*
X110295000Y-47271928D01*
X110232477Y-47274999D01*
X110231502Y-47275095D01*
X110108528Y-47299583D01*
X110107590Y-47299868D01*
X109992480Y-47347557D01*
X109991615Y-47348019D01*
X109887852Y-47417264D01*
X109887094Y-47417885D01*
X109797885Y-47507094D01*
X109797264Y-47507852D01*
X109728019Y-47611615D01*
X109727557Y-47612480D01*
X109679868Y-47727590D01*
X109679583Y-47728528D01*
X109660000Y-47826870D01*
X109640417Y-47728528D01*
X109640132Y-47727590D01*
X109592443Y-47612480D01*
X109591981Y-47611615D01*
X109522736Y-47507852D01*
X109522115Y-47507094D01*
X109432906Y-47417885D01*
X109432148Y-47417264D01*
X109328385Y-47348019D01*
X109327520Y-47347557D01*
X109212410Y-47299868D01*
X109211472Y-47299583D01*
X109088498Y-47275095D01*
X109087523Y-47274999D01*
X109025000Y-47271928D01*
X107755000Y-47271928D01*
X107692477Y-47274999D01*
X107691502Y-47275095D01*
X107568528Y-47299583D01*
X107567590Y-47299868D01*
X107452480Y-47347557D01*
X107451615Y-47348019D01*
X107347852Y-47417264D01*
X107347094Y-47417885D01*
X107257885Y-47507094D01*
X107257264Y-47507852D01*
X107188019Y-47611615D01*
X107187557Y-47612480D01*
X107139868Y-47727590D01*
X107139583Y-47728528D01*
X107116248Y-47845712D01*
X107110812Y-47790518D01*
X107074502Y-47670820D01*
X107015537Y-47560506D01*
X106936185Y-47463815D01*
X106839494Y-47384463D01*
X106729180Y-47325498D01*
X106609482Y-47289188D01*
X106485000Y-47276928D01*
X105215000Y-47276928D01*
X105090518Y-47289188D01*
X104970820Y-47325498D01*
X104860506Y-47384463D01*
X104763815Y-47463815D01*
X104684463Y-47560506D01*
X104625498Y-47670820D01*
X104589188Y-47790518D01*
X104580000Y-47883808D01*
X104570812Y-47790518D01*
X104534502Y-47670820D01*
X104475537Y-47560506D01*
X104396185Y-47463815D01*
X104299494Y-47384463D01*
X104189180Y-47325498D01*
X104069482Y-47289188D01*
X103945000Y-47276928D01*
X102675000Y-47276928D01*
X102550518Y-47289188D01*
X102430820Y-47325498D01*
X102320506Y-47384463D01*
X102223815Y-47463815D01*
X102144463Y-47560506D01*
X102085498Y-47670820D01*
X102049188Y-47790518D01*
X102040000Y-47883808D01*
X102030812Y-47790518D01*
X101994502Y-47670820D01*
X101935537Y-47560506D01*
X101856185Y-47463815D01*
X101759494Y-47384463D01*
X101649180Y-47325498D01*
X101529482Y-47289188D01*
X101405000Y-47276928D01*
X100135000Y-47276928D01*
X100010518Y-47289188D01*
X99890820Y-47325498D01*
X99780506Y-47384463D01*
X99683815Y-47463815D01*
X99604463Y-47560506D01*
X99545498Y-47670820D01*
X99509188Y-47790518D01*
X99500000Y-47883808D01*
X99490812Y-47790518D01*
X99454502Y-47670820D01*
X99395537Y-47560506D01*
X99316185Y-47463815D01*
X99219494Y-47384463D01*
X99109180Y-47325498D01*
X98989482Y-47289188D01*
X98865000Y-47276928D01*
X97595000Y-47276928D01*
X97470518Y-47289188D01*
X97350820Y-47325498D01*
X97240506Y-47384463D01*
X97143815Y-47463815D01*
X97064463Y-47560506D01*
X97005498Y-47670820D01*
X96969188Y-47790518D01*
X96960000Y-47883808D01*
X96950812Y-47790518D01*
X96914502Y-47670820D01*
X96855537Y-47560506D01*
X96776185Y-47463815D01*
X96679494Y-47384463D01*
X96569180Y-47325498D01*
X96449482Y-47289188D01*
X96325000Y-47276928D01*
X95055000Y-47276928D01*
X94930518Y-47289188D01*
X94810820Y-47325498D01*
X94700506Y-47384463D01*
X94603815Y-47463815D01*
X94524463Y-47560506D01*
X94465498Y-47670820D01*
X94429188Y-47790518D01*
X94420000Y-47883808D01*
X94410812Y-47790518D01*
X94374502Y-47670820D01*
X94315537Y-47560506D01*
X94236185Y-47463815D01*
X94139494Y-47384463D01*
X94029180Y-47325498D01*
X93909482Y-47289188D01*
X93785000Y-47276928D01*
X92515000Y-47276928D01*
X92390518Y-47289188D01*
X92270820Y-47325498D01*
X92160506Y-47384463D01*
X92063815Y-47463815D01*
X91984463Y-47560506D01*
X91925498Y-47670820D01*
X91889188Y-47790518D01*
X91880000Y-47883808D01*
X91870812Y-47790518D01*
X91834502Y-47670820D01*
X91775537Y-47560506D01*
X91696185Y-47463815D01*
X91599494Y-47384463D01*
X91489180Y-47325498D01*
X91369482Y-47289188D01*
X91245000Y-47276928D01*
X89975000Y-47276928D01*
X89850518Y-47289188D01*
X89730820Y-47325498D01*
X89620506Y-47384463D01*
X89523815Y-47463815D01*
X89444463Y-47560506D01*
X89385498Y-47670820D01*
X89349188Y-47790518D01*
X89340000Y-47883808D01*
X89330812Y-47790518D01*
X89294502Y-47670820D01*
X89235537Y-47560506D01*
X89156185Y-47463815D01*
X89059494Y-47384463D01*
X88949180Y-47325498D01*
X88829482Y-47289188D01*
X88705000Y-47276928D01*
X87435000Y-47276928D01*
X87310518Y-47289188D01*
X87190820Y-47325498D01*
X87080506Y-47384463D01*
X86983815Y-47463815D01*
X86904463Y-47560506D01*
X86845498Y-47670820D01*
X86809188Y-47790518D01*
X86800000Y-47883808D01*
X86790812Y-47790518D01*
X86754502Y-47670820D01*
X86695537Y-47560506D01*
X86616185Y-47463815D01*
X86519494Y-47384463D01*
X86409180Y-47325498D01*
X86289482Y-47289188D01*
X86165000Y-47276928D01*
X84895000Y-47276928D01*
X84770518Y-47289188D01*
X84650820Y-47325498D01*
X84540506Y-47384463D01*
X84443815Y-47463815D01*
X84364463Y-47560506D01*
X84305498Y-47670820D01*
X84269188Y-47790518D01*
X84260000Y-47883808D01*
X84250812Y-47790518D01*
X84214502Y-47670820D01*
X84155537Y-47560506D01*
X84076185Y-47463815D01*
X83979494Y-47384463D01*
X83869180Y-47325498D01*
X83749482Y-47289188D01*
X83625000Y-47276928D01*
X82355000Y-47276928D01*
X82230518Y-47289188D01*
X82110820Y-47325498D01*
X82000506Y-47384463D01*
X81903815Y-47463815D01*
X81824463Y-47560506D01*
X81765498Y-47670820D01*
X81729188Y-47790518D01*
X81720000Y-47883808D01*
X81710812Y-47790518D01*
X81674502Y-47670820D01*
X81615537Y-47560506D01*
X81536185Y-47463815D01*
X81439494Y-47384463D01*
X81329180Y-47325498D01*
X81209482Y-47289188D01*
X81085000Y-47276928D01*
X79815000Y-47276928D01*
X79690518Y-47289188D01*
X79570820Y-47325498D01*
X79460506Y-47384463D01*
X79363815Y-47463815D01*
X79284463Y-47560506D01*
X79225498Y-47670820D01*
X79189188Y-47790518D01*
X79180000Y-47883808D01*
X79170812Y-47790518D01*
X79134502Y-47670820D01*
X79075537Y-47560506D01*
X78996185Y-47463815D01*
X78899494Y-47384463D01*
X78789180Y-47325498D01*
X78670000Y-47289345D01*
X78670000Y-45747325D01*
X78673676Y-45710000D01*
X78670000Y-45672675D01*
X78670000Y-45672667D01*
X78659003Y-45561014D01*
X78615546Y-45417753D01*
X78544974Y-45285724D01*
X78450001Y-45169999D01*
X78421004Y-45146202D01*
X76063804Y-42789003D01*
X76040001Y-42759999D01*
X75924276Y-42665026D01*
X75792247Y-42594454D01*
X75648986Y-42550997D01*
X75537333Y-42540000D01*
X75537322Y-42540000D01*
X75500000Y-42536324D01*
X75462678Y-42540000D01*
X61737323Y-42540000D01*
X61700000Y-42536324D01*
X61662677Y-42540000D01*
X61662667Y-42540000D01*
X61551014Y-42550997D01*
X61407753Y-42594454D01*
X61275723Y-42665026D01*
X61192083Y-42733668D01*
X61159999Y-42759999D01*
X61136201Y-42788997D01*
X55738998Y-48186201D01*
X55710000Y-48209999D01*
X55686202Y-48238997D01*
X55686201Y-48238998D01*
X55615026Y-48325724D01*
X55544454Y-48457754D01*
X55500998Y-48601015D01*
X55486324Y-48750000D01*
X32421900Y-48750000D01*
X32421900Y-30052223D01*
X34124900Y-30052223D01*
X34124900Y-30577577D01*
X34227392Y-31092835D01*
X34428436Y-31578198D01*
X34720306Y-32015013D01*
X35091787Y-32386494D01*
X35528602Y-32678364D01*
X36013965Y-32879408D01*
X36529223Y-32981900D01*
X37054577Y-32981900D01*
X37569835Y-32879408D01*
X38055198Y-32678364D01*
X38492013Y-32386494D01*
X38863494Y-32015013D01*
X39155364Y-31578198D01*
X39356408Y-31092835D01*
X39458900Y-30577577D01*
X39458900Y-30052223D01*
X134396972Y-30052223D01*
X134396972Y-30577577D01*
X134499464Y-31092835D01*
X134700508Y-31578198D01*
X134992378Y-32015013D01*
X135363859Y-32386494D01*
X135800674Y-32678364D01*
X136286037Y-32879408D01*
X136801295Y-32981900D01*
X137326649Y-32981900D01*
X137841907Y-32879408D01*
X138327270Y-32678364D01*
X138764085Y-32386494D01*
X139135566Y-32015013D01*
X139427436Y-31578198D01*
X139628480Y-31092835D01*
X139730972Y-30577577D01*
X139730972Y-30052223D01*
X139628480Y-29536965D01*
X139427436Y-29051602D01*
X139135566Y-28614787D01*
X138764085Y-28243306D01*
X138327270Y-27951436D01*
X137841907Y-27750392D01*
X137326649Y-27647900D01*
X136801295Y-27647900D01*
X136286037Y-27750392D01*
X135800674Y-27951436D01*
X135363859Y-28243306D01*
X134992378Y-28614787D01*
X134700508Y-29051602D01*
X134499464Y-29536965D01*
X134396972Y-30052223D01*
X39458900Y-30052223D01*
X39356408Y-29536965D01*
X39155364Y-29051602D01*
X38863494Y-28614787D01*
X38492013Y-28243306D01*
X38055198Y-27951436D01*
X37569835Y-27750392D01*
X37054577Y-27647900D01*
X36529223Y-27647900D01*
X36013965Y-27750392D01*
X35528602Y-27951436D01*
X35091787Y-28243306D01*
X34720306Y-28614787D01*
X34428436Y-29051602D01*
X34227392Y-29536965D01*
X34124900Y-30052223D01*
X32421900Y-30052223D01*
X32421900Y-25944900D01*
X141433973Y-25944900D01*
X141433972Y-139612300D01*
%TA.AperFunction,NonConductor*%
D19*
G36*
X141433972Y-139612300D02*
G01*
X32421900Y-139612300D01*
X32421900Y-134979623D01*
X34124900Y-134979623D01*
X34124900Y-135504977D01*
X34227392Y-136020235D01*
X34428436Y-136505598D01*
X34720306Y-136942413D01*
X35091787Y-137313894D01*
X35528602Y-137605764D01*
X36013965Y-137806808D01*
X36529223Y-137909300D01*
X37054577Y-137909300D01*
X37569835Y-137806808D01*
X38055198Y-137605764D01*
X38492013Y-137313894D01*
X38863494Y-136942413D01*
X39155364Y-136505598D01*
X39356408Y-136020235D01*
X39458900Y-135504977D01*
X39458900Y-135233623D01*
X134396972Y-135233623D01*
X134396972Y-135758977D01*
X134499464Y-136274235D01*
X134700508Y-136759598D01*
X134992378Y-137196413D01*
X135363859Y-137567894D01*
X135800674Y-137859764D01*
X136286037Y-138060808D01*
X136801295Y-138163300D01*
X137326649Y-138163300D01*
X137841907Y-138060808D01*
X138327270Y-137859764D01*
X138764085Y-137567894D01*
X139135566Y-137196413D01*
X139427436Y-136759598D01*
X139628480Y-136274235D01*
X139730972Y-135758977D01*
X139730972Y-135233623D01*
X139628480Y-134718365D01*
X139427436Y-134233002D01*
X139135566Y-133796187D01*
X138764085Y-133424706D01*
X138327270Y-133132836D01*
X137841907Y-132931792D01*
X137326649Y-132829300D01*
X136801295Y-132829300D01*
X136286037Y-132931792D01*
X135800674Y-133132836D01*
X135363859Y-133424706D01*
X134992378Y-133796187D01*
X134700508Y-134233002D01*
X134499464Y-134718365D01*
X134396972Y-135233623D01*
X39458900Y-135233623D01*
X39458900Y-134979623D01*
X39356408Y-134464365D01*
X39155364Y-133979002D01*
X38863494Y-133542187D01*
X38492013Y-133170706D01*
X38055198Y-132878836D01*
X37569835Y-132677792D01*
X37054577Y-132575300D01*
X36529223Y-132575300D01*
X36013965Y-132677792D01*
X35528602Y-132878836D01*
X35091787Y-133170706D01*
X34720306Y-133542187D01*
X34428436Y-133979002D01*
X34227392Y-134464365D01*
X34124900Y-134979623D01*
X32421900Y-134979623D01*
X32421900Y-48750000D01*
X55486324Y-48750000D01*
X55490001Y-48787333D01*
X55490000Y-66412678D01*
X55486324Y-66450000D01*
X55490000Y-66487322D01*
X55490000Y-66487332D01*
X55500997Y-66598985D01*
X55544454Y-66742246D01*
X55615026Y-66874276D01*
X55654871Y-66922826D01*
X55709999Y-66990001D01*
X55739003Y-67013804D01*
X60786200Y-72061002D01*
X60809999Y-72090001D01*
X60925724Y-72184974D01*
X61057753Y-72255546D01*
X61201014Y-72299003D01*
X61312667Y-72310000D01*
X61312676Y-72310000D01*
X61349999Y-72313676D01*
X61387322Y-72310000D01*
X76285199Y-72310000D01*
X78140001Y-74164803D01*
X78140000Y-80022762D01*
X78125518Y-80024188D01*
X78005820Y-80060498D01*
X77895506Y-80119463D01*
X77798815Y-80198815D01*
X77719463Y-80295506D01*
X77660498Y-80405820D01*
X77624188Y-80525518D01*
X77611928Y-80650000D01*
X77611928Y-82150000D01*
X77624188Y-82274482D01*
X77660498Y-82394180D01*
X77719463Y-82504494D01*
X77798815Y-82601185D01*
X77895506Y-82680537D01*
X78005820Y-82739502D01*
X78040427Y-82750000D01*
X78005820Y-82760498D01*
X77895506Y-82819463D01*
X77798815Y-82898815D01*
X77719463Y-82995506D01*
X77660498Y-83105820D01*
X77624188Y-83225518D01*
X77611928Y-83350000D01*
X77611928Y-84850000D01*
X77624188Y-84974482D01*
X77660498Y-85094180D01*
X77719463Y-85204494D01*
X77798815Y-85301185D01*
X77895506Y-85380537D01*
X78005820Y-85439502D01*
X78125518Y-85475812D01*
X78140000Y-85477238D01*
X78140000Y-86712677D01*
X78136324Y-86750000D01*
X78140000Y-86787322D01*
X78140000Y-86787332D01*
X78150997Y-86898985D01*
X78194454Y-87042246D01*
X78265026Y-87174276D01*
X78286969Y-87201013D01*
X78359999Y-87290001D01*
X78389002Y-87313803D01*
X78936200Y-87861002D01*
X78959999Y-87890001D01*
X78988997Y-87913799D01*
X79075723Y-87984974D01*
X79152967Y-88026262D01*
X79207753Y-88055546D01*
X79351014Y-88099003D01*
X79462667Y-88110000D01*
X79462676Y-88110000D01*
X79499999Y-88113676D01*
X79508686Y-88112820D01*
X79607111Y-88178586D01*
X79777271Y-88249068D01*
X79957911Y-88285000D01*
X80142089Y-88285000D01*
X80322729Y-88249068D01*
X80492889Y-88178586D01*
X80646028Y-88076262D01*
X80776262Y-87946028D01*
X80878586Y-87792889D01*
X80949068Y-87622729D01*
X80985000Y-87442089D01*
X80985000Y-87257911D01*
X85415000Y-87257911D01*
X85415000Y-87442089D01*
X85450932Y-87622729D01*
X85521414Y-87792889D01*
X85623738Y-87946028D01*
X85753972Y-88076262D01*
X85907111Y-88178586D01*
X86077271Y-88249068D01*
X86257911Y-88285000D01*
X86442089Y-88285000D01*
X86622729Y-88249068D01*
X86792889Y-88178586D01*
X86946028Y-88076262D01*
X87076262Y-87946028D01*
X87178586Y-87792889D01*
X87249068Y-87622729D01*
X87285000Y-87442089D01*
X87285000Y-87257911D01*
X87249068Y-87077271D01*
X87178586Y-86907111D01*
X87076262Y-86753972D01*
X86946028Y-86623738D01*
X86792889Y-86521414D01*
X86622729Y-86450932D01*
X86442089Y-86415000D01*
X86257911Y-86415000D01*
X86077271Y-86450932D01*
X85907111Y-86521414D01*
X85753972Y-86623738D01*
X85623738Y-86753972D01*
X85521414Y-86907111D01*
X85450932Y-87077271D01*
X85415000Y-87257911D01*
X80985000Y-87257911D01*
X80949068Y-87077271D01*
X80878586Y-86907111D01*
X80776262Y-86753972D01*
X80646028Y-86623738D01*
X80492889Y-86521414D01*
X80322729Y-86450932D01*
X80142089Y-86415000D01*
X79957911Y-86415000D01*
X79777271Y-86450932D01*
X79705473Y-86480671D01*
X79660000Y-86435199D01*
X79660000Y-85477238D01*
X79674482Y-85475812D01*
X79794180Y-85439502D01*
X79904494Y-85380537D01*
X80001185Y-85301185D01*
X80080537Y-85204494D01*
X80139502Y-85094180D01*
X80175812Y-84974482D01*
X80188072Y-84850000D01*
X80188072Y-83350000D01*
X80175812Y-83225518D01*
X80139502Y-83105820D01*
X80080537Y-82995506D01*
X80001185Y-82898815D01*
X79904494Y-82819463D01*
X79794180Y-82760498D01*
X79759573Y-82750000D01*
X79794180Y-82739502D01*
X79904494Y-82680537D01*
X80001185Y-82601185D01*
X80080537Y-82504494D01*
X80139502Y-82394180D01*
X80175812Y-82274482D01*
X80187087Y-82160000D01*
X92362913Y-82160000D01*
X92374188Y-82274482D01*
X92410498Y-82394180D01*
X92469463Y-82504494D01*
X92548815Y-82601185D01*
X92645506Y-82680537D01*
X92755820Y-82739502D01*
X92790427Y-82750000D01*
X92755820Y-82760498D01*
X92645506Y-82819463D01*
X92548815Y-82898815D01*
X92469463Y-82995506D01*
X92410498Y-83105820D01*
X92374188Y-83225518D01*
X92361928Y-83350000D01*
X92361928Y-84850000D01*
X92374188Y-84974482D01*
X92410498Y-85094180D01*
X92469463Y-85204494D01*
X92548815Y-85301185D01*
X92645506Y-85380537D01*
X92755820Y-85439502D01*
X92875518Y-85475812D01*
X92890000Y-85477238D01*
X92890000Y-86035198D01*
X92548351Y-86376847D01*
X92427271Y-86400932D01*
X92257111Y-86471414D01*
X92103972Y-86573738D01*
X91973738Y-86703972D01*
X91871414Y-86857111D01*
X91800932Y-87027271D01*
X91765000Y-87207911D01*
X91765000Y-87392089D01*
X91800932Y-87572729D01*
X91871414Y-87742889D01*
X91973738Y-87896028D01*
X92103972Y-88026262D01*
X92257111Y-88128586D01*
X92427271Y-88199068D01*
X92607911Y-88235000D01*
X92792089Y-88235000D01*
X92972729Y-88199068D01*
X93142889Y-88128586D01*
X93296028Y-88026262D01*
X93426262Y-87896028D01*
X93528586Y-87742889D01*
X93599068Y-87572729D01*
X93623153Y-87451649D01*
X94161004Y-86913798D01*
X94190001Y-86890001D01*
X94255657Y-86809999D01*
X94284974Y-86774277D01*
X94355546Y-86642247D01*
X94355546Y-86642246D01*
X94399003Y-86498986D01*
X94410000Y-86387333D01*
X94410000Y-86387323D01*
X94413676Y-86350000D01*
X94410000Y-86312677D01*
X94410000Y-85477238D01*
X94424482Y-85475812D01*
X94544180Y-85439502D01*
X94654494Y-85380537D01*
X94751185Y-85301185D01*
X94830537Y-85204494D01*
X94889502Y-85094180D01*
X94925812Y-84974482D01*
X94938072Y-84850000D01*
X94938072Y-83350000D01*
X94925812Y-83225518D01*
X94889502Y-83105820D01*
X94830537Y-82995506D01*
X94751185Y-82898815D01*
X94654494Y-82819463D01*
X94544180Y-82760498D01*
X94509573Y-82750000D01*
X94544180Y-82739502D01*
X94654494Y-82680537D01*
X94751185Y-82601185D01*
X94830537Y-82504494D01*
X94889502Y-82394180D01*
X94925812Y-82274482D01*
X94938072Y-82150000D01*
X94938072Y-80650000D01*
X94925812Y-80525518D01*
X94889502Y-80405820D01*
X94830537Y-80295506D01*
X94751185Y-80198815D01*
X94654494Y-80119463D01*
X94544180Y-80060498D01*
X94424482Y-80024188D01*
X94300000Y-80011928D01*
X93000000Y-80011928D01*
X92875518Y-80024188D01*
X92755820Y-80060498D01*
X92645506Y-80119463D01*
X92548815Y-80198815D01*
X92469463Y-80295506D01*
X92410498Y-80405820D01*
X92374188Y-80525518D01*
X92362913Y-80640000D01*
X80187087Y-80640000D01*
X80175812Y-80525518D01*
X80139502Y-80405820D01*
X80080537Y-80295506D01*
X80001185Y-80198815D01*
X79904494Y-80119463D01*
X79794180Y-80060498D01*
X79674482Y-80024188D01*
X79660000Y-80022762D01*
X79660000Y-73887322D01*
X79663676Y-73849999D01*
X79660000Y-73812676D01*
X79660000Y-73812667D01*
X79649003Y-73701014D01*
X79605546Y-73557753D01*
X79534974Y-73425724D01*
X79440001Y-73309999D01*
X79411003Y-73286201D01*
X77163804Y-71039003D01*
X77140001Y-71009999D01*
X77024276Y-70915026D01*
X77014873Y-70910000D01*
X78135199Y-70910000D01*
X81336201Y-74111003D01*
X81359999Y-74140001D01*
X81475724Y-74234974D01*
X81607753Y-74305546D01*
X81751014Y-74349003D01*
X81862667Y-74360000D01*
X81862675Y-74360000D01*
X81900000Y-74363676D01*
X81937325Y-74360000D01*
X93162678Y-74360000D01*
X93200000Y-74363676D01*
X93237322Y-74360000D01*
X93237333Y-74360000D01*
X93348986Y-74349003D01*
X93492247Y-74305546D01*
X93624276Y-74234974D01*
X93740001Y-74140001D01*
X93763804Y-74110997D01*
X96964802Y-70910000D01*
X100972762Y-70910000D01*
X100974188Y-70924482D01*
X101010498Y-71044180D01*
X101069463Y-71154494D01*
X101148815Y-71251185D01*
X101245506Y-71330537D01*
X101355820Y-71389502D01*
X101475518Y-71425812D01*
X101600000Y-71438072D01*
X103100000Y-71438072D01*
X103224482Y-71425812D01*
X103344180Y-71389502D01*
X103454494Y-71330537D01*
X103551185Y-71251185D01*
X103630537Y-71154494D01*
X103689502Y-71044180D01*
X103700000Y-71009573D01*
X103710498Y-71044180D01*
X103769463Y-71154494D01*
X103848815Y-71251185D01*
X103945506Y-71330537D01*
X104055820Y-71389502D01*
X104175518Y-71425812D01*
X104300000Y-71438072D01*
X105800000Y-71438072D01*
X105924482Y-71425812D01*
X106044180Y-71389502D01*
X106154494Y-71330537D01*
X106251185Y-71251185D01*
X106330537Y-71154494D01*
X106389502Y-71044180D01*
X106425812Y-70924482D01*
X106427238Y-70910000D01*
X107967678Y-70910000D01*
X108005000Y-70913676D01*
X108042322Y-70910000D01*
X108042333Y-70910000D01*
X108153986Y-70899003D01*
X108297247Y-70855546D01*
X108429276Y-70784974D01*
X108545001Y-70690001D01*
X108568804Y-70660997D01*
X110866299Y-68363503D01*
X110866303Y-68363498D01*
X112063513Y-67166289D01*
X112092500Y-67142500D01*
X112116289Y-67113513D01*
X112116299Y-67113503D01*
X112116303Y-67113498D01*
X114461003Y-64768799D01*
X114490001Y-64745001D01*
X114538257Y-64686201D01*
X114584974Y-64629277D01*
X114655546Y-64497247D01*
X114683220Y-64406015D01*
X114699003Y-64353986D01*
X114710000Y-64242333D01*
X114710000Y-64242323D01*
X114713676Y-64205001D01*
X114710000Y-64167678D01*
X114710000Y-55537325D01*
X114713676Y-55500000D01*
X114710000Y-55462675D01*
X114710000Y-55462667D01*
X114699003Y-55351014D01*
X114655546Y-55207753D01*
X114584974Y-55075724D01*
X114490001Y-54959999D01*
X114461004Y-54936202D01*
X113718803Y-54194002D01*
X113695001Y-54164999D01*
X113579276Y-54070026D01*
X113447247Y-53999454D01*
X113303986Y-53955997D01*
X113192333Y-53945000D01*
X113192322Y-53945000D01*
X113155000Y-53941324D01*
X113117678Y-53945000D01*
X112208072Y-53945000D01*
X112208072Y-52865000D01*
X112205001Y-52802477D01*
X112204905Y-52801502D01*
X112180417Y-52678528D01*
X112180132Y-52677590D01*
X112132443Y-52562480D01*
X112131981Y-52561615D01*
X112062736Y-52457852D01*
X112062115Y-52457094D01*
X111972906Y-52367885D01*
X111972148Y-52367264D01*
X111868385Y-52298019D01*
X111867520Y-52297557D01*
X111752410Y-52249868D01*
X111751472Y-52249583D01*
X111653130Y-52230000D01*
X111751472Y-52210417D01*
X111752410Y-52210132D01*
X111867520Y-52162443D01*
X111868385Y-52161981D01*
X111972148Y-52092736D01*
X111972906Y-52092115D01*
X112062115Y-52002906D01*
X112062736Y-52002148D01*
X112131981Y-51898385D01*
X112132443Y-51897520D01*
X112180132Y-51782410D01*
X112180417Y-51781472D01*
X112204905Y-51658498D01*
X112205001Y-51657523D01*
X112208072Y-51595000D01*
X112208072Y-47915000D01*
X112205001Y-47852477D01*
X112204905Y-47851502D01*
X112180417Y-47728528D01*
X112180132Y-47727590D01*
X112132443Y-47612480D01*
X112131981Y-47611615D01*
X112062736Y-47507852D01*
X112062115Y-47507094D01*
X111972906Y-47417885D01*
X111972148Y-47417264D01*
X111868385Y-47348019D01*
X111867520Y-47347557D01*
X111752410Y-47299868D01*
X111751472Y-47299583D01*
X111628498Y-47275095D01*
X111627523Y-47274999D01*
X111565000Y-47271928D01*
X110295000Y-47271928D01*
X110232477Y-47274999D01*
X110231502Y-47275095D01*
X110108528Y-47299583D01*
X110107590Y-47299868D01*
X109992480Y-47347557D01*
X109991615Y-47348019D01*
X109887852Y-47417264D01*
X109887094Y-47417885D01*
X109797885Y-47507094D01*
X109797264Y-47507852D01*
X109728019Y-47611615D01*
X109727557Y-47612480D01*
X109679868Y-47727590D01*
X109679583Y-47728528D01*
X109660000Y-47826870D01*
X109640417Y-47728528D01*
X109640132Y-47727590D01*
X109592443Y-47612480D01*
X109591981Y-47611615D01*
X109522736Y-47507852D01*
X109522115Y-47507094D01*
X109432906Y-47417885D01*
X109432148Y-47417264D01*
X109328385Y-47348019D01*
X109327520Y-47347557D01*
X109212410Y-47299868D01*
X109211472Y-47299583D01*
X109088498Y-47275095D01*
X109087523Y-47274999D01*
X109025000Y-47271928D01*
X107755000Y-47271928D01*
X107692477Y-47274999D01*
X107691502Y-47275095D01*
X107568528Y-47299583D01*
X107567590Y-47299868D01*
X107452480Y-47347557D01*
X107451615Y-47348019D01*
X107347852Y-47417264D01*
X107347094Y-47417885D01*
X107257885Y-47507094D01*
X107257264Y-47507852D01*
X107188019Y-47611615D01*
X107187557Y-47612480D01*
X107139868Y-47727590D01*
X107139583Y-47728528D01*
X107116248Y-47845712D01*
X107110812Y-47790518D01*
X107074502Y-47670820D01*
X107015537Y-47560506D01*
X106936185Y-47463815D01*
X106839494Y-47384463D01*
X106729180Y-47325498D01*
X106609482Y-47289188D01*
X106485000Y-47276928D01*
X105215000Y-47276928D01*
X105090518Y-47289188D01*
X104970820Y-47325498D01*
X104860506Y-47384463D01*
X104763815Y-47463815D01*
X104684463Y-47560506D01*
X104625498Y-47670820D01*
X104589188Y-47790518D01*
X104580000Y-47883808D01*
X104570812Y-47790518D01*
X104534502Y-47670820D01*
X104475537Y-47560506D01*
X104396185Y-47463815D01*
X104299494Y-47384463D01*
X104189180Y-47325498D01*
X104069482Y-47289188D01*
X103945000Y-47276928D01*
X102675000Y-47276928D01*
X102550518Y-47289188D01*
X102430820Y-47325498D01*
X102320506Y-47384463D01*
X102223815Y-47463815D01*
X102144463Y-47560506D01*
X102085498Y-47670820D01*
X102049188Y-47790518D01*
X102040000Y-47883808D01*
X102030812Y-47790518D01*
X101994502Y-47670820D01*
X101935537Y-47560506D01*
X101856185Y-47463815D01*
X101759494Y-47384463D01*
X101649180Y-47325498D01*
X101529482Y-47289188D01*
X101405000Y-47276928D01*
X100135000Y-47276928D01*
X100010518Y-47289188D01*
X99890820Y-47325498D01*
X99780506Y-47384463D01*
X99683815Y-47463815D01*
X99604463Y-47560506D01*
X99545498Y-47670820D01*
X99509188Y-47790518D01*
X99500000Y-47883808D01*
X99490812Y-47790518D01*
X99454502Y-47670820D01*
X99395537Y-47560506D01*
X99316185Y-47463815D01*
X99219494Y-47384463D01*
X99109180Y-47325498D01*
X98989482Y-47289188D01*
X98865000Y-47276928D01*
X97595000Y-47276928D01*
X97470518Y-47289188D01*
X97350820Y-47325498D01*
X97240506Y-47384463D01*
X97143815Y-47463815D01*
X97064463Y-47560506D01*
X97005498Y-47670820D01*
X96969188Y-47790518D01*
X96960000Y-47883808D01*
X96950812Y-47790518D01*
X96914502Y-47670820D01*
X96855537Y-47560506D01*
X96776185Y-47463815D01*
X96679494Y-47384463D01*
X96569180Y-47325498D01*
X96449482Y-47289188D01*
X96325000Y-47276928D01*
X95055000Y-47276928D01*
X94930518Y-47289188D01*
X94810820Y-47325498D01*
X94700506Y-47384463D01*
X94603815Y-47463815D01*
X94524463Y-47560506D01*
X94465498Y-47670820D01*
X94429188Y-47790518D01*
X94420000Y-47883808D01*
X94410812Y-47790518D01*
X94374502Y-47670820D01*
X94315537Y-47560506D01*
X94236185Y-47463815D01*
X94139494Y-47384463D01*
X94029180Y-47325498D01*
X93909482Y-47289188D01*
X93785000Y-47276928D01*
X92515000Y-47276928D01*
X92390518Y-47289188D01*
X92270820Y-47325498D01*
X92160506Y-47384463D01*
X92063815Y-47463815D01*
X91984463Y-47560506D01*
X91925498Y-47670820D01*
X91889188Y-47790518D01*
X91880000Y-47883808D01*
X91870812Y-47790518D01*
X91834502Y-47670820D01*
X91775537Y-47560506D01*
X91696185Y-47463815D01*
X91599494Y-47384463D01*
X91489180Y-47325498D01*
X91369482Y-47289188D01*
X91245000Y-47276928D01*
X89975000Y-47276928D01*
X89850518Y-47289188D01*
X89730820Y-47325498D01*
X89620506Y-47384463D01*
X89523815Y-47463815D01*
X89444463Y-47560506D01*
X89385498Y-47670820D01*
X89349188Y-47790518D01*
X89340000Y-47883808D01*
X89330812Y-47790518D01*
X89294502Y-47670820D01*
X89235537Y-47560506D01*
X89156185Y-47463815D01*
X89059494Y-47384463D01*
X88949180Y-47325498D01*
X88829482Y-47289188D01*
X88705000Y-47276928D01*
X87435000Y-47276928D01*
X87310518Y-47289188D01*
X87190820Y-47325498D01*
X87080506Y-47384463D01*
X86983815Y-47463815D01*
X86904463Y-47560506D01*
X86845498Y-47670820D01*
X86809188Y-47790518D01*
X86800000Y-47883808D01*
X86790812Y-47790518D01*
X86754502Y-47670820D01*
X86695537Y-47560506D01*
X86616185Y-47463815D01*
X86519494Y-47384463D01*
X86409180Y-47325498D01*
X86289482Y-47289188D01*
X86165000Y-47276928D01*
X84895000Y-47276928D01*
X84770518Y-47289188D01*
X84650820Y-47325498D01*
X84540506Y-47384463D01*
X84443815Y-47463815D01*
X84364463Y-47560506D01*
X84305498Y-47670820D01*
X84269188Y-47790518D01*
X84260000Y-47883808D01*
X84250812Y-47790518D01*
X84214502Y-47670820D01*
X84155537Y-47560506D01*
X84076185Y-47463815D01*
X83979494Y-47384463D01*
X83869180Y-47325498D01*
X83749482Y-47289188D01*
X83625000Y-47276928D01*
X82355000Y-47276928D01*
X82230518Y-47289188D01*
X82110820Y-47325498D01*
X82000506Y-47384463D01*
X81903815Y-47463815D01*
X81824463Y-47560506D01*
X81765498Y-47670820D01*
X81729188Y-47790518D01*
X81720000Y-47883808D01*
X81710812Y-47790518D01*
X81674502Y-47670820D01*
X81615537Y-47560506D01*
X81536185Y-47463815D01*
X81439494Y-47384463D01*
X81329180Y-47325498D01*
X81209482Y-47289188D01*
X81085000Y-47276928D01*
X79815000Y-47276928D01*
X79690518Y-47289188D01*
X79570820Y-47325498D01*
X79460506Y-47384463D01*
X79363815Y-47463815D01*
X79284463Y-47560506D01*
X79225498Y-47670820D01*
X79189188Y-47790518D01*
X79180000Y-47883808D01*
X79170812Y-47790518D01*
X79134502Y-47670820D01*
X79075537Y-47560506D01*
X78996185Y-47463815D01*
X78899494Y-47384463D01*
X78789180Y-47325498D01*
X78670000Y-47289345D01*
X78670000Y-45747325D01*
X78673676Y-45710000D01*
X78670000Y-45672675D01*
X78670000Y-45672667D01*
X78659003Y-45561014D01*
X78615546Y-45417753D01*
X78544974Y-45285724D01*
X78450001Y-45169999D01*
X78421004Y-45146202D01*
X76063804Y-42789003D01*
X76040001Y-42759999D01*
X75924276Y-42665026D01*
X75792247Y-42594454D01*
X75648986Y-42550997D01*
X75537333Y-42540000D01*
X75537322Y-42540000D01*
X75500000Y-42536324D01*
X75462678Y-42540000D01*
X61737323Y-42540000D01*
X61700000Y-42536324D01*
X61662677Y-42540000D01*
X61662667Y-42540000D01*
X61551014Y-42550997D01*
X61407753Y-42594454D01*
X61275723Y-42665026D01*
X61192083Y-42733668D01*
X61159999Y-42759999D01*
X61136201Y-42788997D01*
X55738998Y-48186201D01*
X55710000Y-48209999D01*
X55686202Y-48238997D01*
X55686201Y-48238998D01*
X55615026Y-48325724D01*
X55544454Y-48457754D01*
X55500998Y-48601015D01*
X55486324Y-48750000D01*
X32421900Y-48750000D01*
X32421900Y-30052223D01*
X34124900Y-30052223D01*
X34124900Y-30577577D01*
X34227392Y-31092835D01*
X34428436Y-31578198D01*
X34720306Y-32015013D01*
X35091787Y-32386494D01*
X35528602Y-32678364D01*
X36013965Y-32879408D01*
X36529223Y-32981900D01*
X37054577Y-32981900D01*
X37569835Y-32879408D01*
X38055198Y-32678364D01*
X38492013Y-32386494D01*
X38863494Y-32015013D01*
X39155364Y-31578198D01*
X39356408Y-31092835D01*
X39458900Y-30577577D01*
X39458900Y-30052223D01*
X134396972Y-30052223D01*
X134396972Y-30577577D01*
X134499464Y-31092835D01*
X134700508Y-31578198D01*
X134992378Y-32015013D01*
X135363859Y-32386494D01*
X135800674Y-32678364D01*
X136286037Y-32879408D01*
X136801295Y-32981900D01*
X137326649Y-32981900D01*
X137841907Y-32879408D01*
X138327270Y-32678364D01*
X138764085Y-32386494D01*
X139135566Y-32015013D01*
X139427436Y-31578198D01*
X139628480Y-31092835D01*
X139730972Y-30577577D01*
X139730972Y-30052223D01*
X139628480Y-29536965D01*
X139427436Y-29051602D01*
X139135566Y-28614787D01*
X138764085Y-28243306D01*
X138327270Y-27951436D01*
X137841907Y-27750392D01*
X137326649Y-27647900D01*
X136801295Y-27647900D01*
X136286037Y-27750392D01*
X135800674Y-27951436D01*
X135363859Y-28243306D01*
X134992378Y-28614787D01*
X134700508Y-29051602D01*
X134499464Y-29536965D01*
X134396972Y-30052223D01*
X39458900Y-30052223D01*
X39356408Y-29536965D01*
X39155364Y-29051602D01*
X38863494Y-28614787D01*
X38492013Y-28243306D01*
X38055198Y-27951436D01*
X37569835Y-27750392D01*
X37054577Y-27647900D01*
X36529223Y-27647900D01*
X36013965Y-27750392D01*
X35528602Y-27951436D01*
X35091787Y-28243306D01*
X34720306Y-28614787D01*
X34428436Y-29051602D01*
X34227392Y-29536965D01*
X34124900Y-30052223D01*
X32421900Y-30052223D01*
X32421900Y-25944900D01*
X141433973Y-25944900D01*
X141433972Y-139612300D01*
G37*
%TD.AperFunction*%
D18*
X113190000Y-55814802D02*
X113190001Y-63890197D01*
X111552500Y-65527699D01*
X110912985Y-64888183D01*
X111094345Y-64739345D01*
X111329903Y-64452317D01*
X111504939Y-64124848D01*
X111612725Y-63769524D01*
X111649120Y-63400000D01*
X111612725Y-63030476D01*
X111504939Y-62675152D01*
X111329903Y-62347683D01*
X111094345Y-62060655D01*
X110807317Y-61825097D01*
X110479848Y-61650061D01*
X110124524Y-61542275D01*
X109847597Y-61515000D01*
X109162403Y-61515000D01*
X108885476Y-61542275D01*
X108530152Y-61650061D01*
X108202683Y-61825097D01*
X107915655Y-62060655D01*
X107680097Y-62347683D01*
X107505061Y-62675152D01*
X107397275Y-63030476D01*
X107360880Y-63400000D01*
X107397275Y-63769524D01*
X107505061Y-64124848D01*
X107680097Y-64452317D01*
X107915655Y-64739345D01*
X108202683Y-64974903D01*
X108530152Y-65149939D01*
X108885476Y-65257725D01*
X109159958Y-65284759D01*
X110477698Y-66602500D01*
X109791502Y-67288697D01*
X109791497Y-67288701D01*
X107690199Y-69390000D01*
X106427238Y-69390000D01*
X106425812Y-69375518D01*
X106389502Y-69255820D01*
X106330537Y-69145506D01*
X106251185Y-69048815D01*
X106154494Y-68969463D01*
X106044180Y-68910498D01*
X105924482Y-68874188D01*
X105800000Y-68861928D01*
X104300000Y-68861928D01*
X104175518Y-68874188D01*
X104055820Y-68910498D01*
X103945506Y-68969463D01*
X103848815Y-69048815D01*
X103769463Y-69145506D01*
X103710498Y-69255820D01*
X103700000Y-69290427D01*
X103689502Y-69255820D01*
X103630537Y-69145506D01*
X103551185Y-69048815D01*
X103454494Y-68969463D01*
X103344180Y-68910498D01*
X103224482Y-68874188D01*
X103100000Y-68861928D01*
X101600000Y-68861928D01*
X101475518Y-68874188D01*
X101355820Y-68910498D01*
X101245506Y-68969463D01*
X101148815Y-69048815D01*
X101069463Y-69145506D01*
X101010498Y-69255820D01*
X100974188Y-69375518D01*
X100972762Y-69390000D01*
X96687325Y-69390000D01*
X96650000Y-69386324D01*
X96612675Y-69390000D01*
X96612667Y-69390000D01*
X96501014Y-69400997D01*
X96357753Y-69444454D01*
X96225724Y-69515026D01*
X96109999Y-69609999D01*
X96086202Y-69638996D01*
X92885199Y-72840000D01*
X82214802Y-72840000D01*
X80284801Y-70910000D01*
X84322762Y-70910000D01*
X84324188Y-70924482D01*
X84360498Y-71044180D01*
X84419463Y-71154494D01*
X84498815Y-71251185D01*
X84595506Y-71330537D01*
X84705820Y-71389502D01*
X84825518Y-71425812D01*
X84950000Y-71438072D01*
X86450000Y-71438072D01*
X86574482Y-71425812D01*
X86694180Y-71389502D01*
X86804494Y-71330537D01*
X86901185Y-71251185D01*
X86980537Y-71154494D01*
X87039502Y-71044180D01*
X87050000Y-71009573D01*
X87060498Y-71044180D01*
X87119463Y-71154494D01*
X87198815Y-71251185D01*
X87295506Y-71330537D01*
X87405820Y-71389502D01*
X87525518Y-71425812D01*
X87650000Y-71438072D01*
X89150000Y-71438072D01*
X89274482Y-71425812D01*
X89394180Y-71389502D01*
X89504494Y-71330537D01*
X89601185Y-71251185D01*
X89680537Y-71154494D01*
X89739502Y-71044180D01*
X89775812Y-70924482D01*
X89777238Y-70910000D01*
X90962678Y-70910000D01*
X91000000Y-70913676D01*
X91037322Y-70910000D01*
X91037333Y-70910000D01*
X91148986Y-70899003D01*
X91292247Y-70855546D01*
X91424276Y-70784974D01*
X91540001Y-70690001D01*
X91563804Y-70660997D01*
X93506003Y-68718799D01*
X93535001Y-68695001D01*
X93611734Y-68601502D01*
X93629974Y-68579277D01*
X93700546Y-68447247D01*
X93709934Y-68416299D01*
X93744003Y-68303986D01*
X93755000Y-68192333D01*
X93755000Y-68192324D01*
X93758676Y-68155001D01*
X93755000Y-68117678D01*
X93755000Y-65215112D01*
X93969848Y-65149939D01*
X94297317Y-64974903D01*
X94584345Y-64739345D01*
X94819903Y-64452317D01*
X94994939Y-64124848D01*
X95000000Y-64108164D01*
X95005061Y-64124848D01*
X95180097Y-64452317D01*
X95415655Y-64739345D01*
X95702683Y-64974903D01*
X96030152Y-65149939D01*
X96385476Y-65257725D01*
X96662403Y-65285000D01*
X97347597Y-65285000D01*
X97624524Y-65257725D01*
X97979848Y-65149939D01*
X98307317Y-64974903D01*
X98594345Y-64739345D01*
X98829903Y-64452317D01*
X99004939Y-64124848D01*
X99112725Y-63769524D01*
X99149120Y-63400000D01*
X99112725Y-63030476D01*
X99004939Y-62675152D01*
X98829903Y-62347683D01*
X98594345Y-62060655D01*
X98307317Y-61825097D01*
X98091986Y-61710000D01*
X103952678Y-61710000D01*
X103990000Y-61713676D01*
X104027322Y-61710000D01*
X104027333Y-61710000D01*
X104138986Y-61699003D01*
X104282247Y-61655546D01*
X104414276Y-61584974D01*
X104530001Y-61490001D01*
X104553804Y-61460997D01*
X107383647Y-58631155D01*
X107397275Y-58769524D01*
X107505061Y-59124848D01*
X107680097Y-59452317D01*
X107915655Y-59739345D01*
X108202683Y-59974903D01*
X108530152Y-60149939D01*
X108885476Y-60257725D01*
X109162403Y-60285000D01*
X109847597Y-60285000D01*
X110124524Y-60257725D01*
X110479848Y-60149939D01*
X110807317Y-59974903D01*
X111094345Y-59739345D01*
X111329903Y-59452317D01*
X111504939Y-59124848D01*
X111612725Y-58769524D01*
X111649120Y-58400000D01*
X111612725Y-58030476D01*
X111504939Y-57675152D01*
X111329903Y-57347683D01*
X111198914Y-57188072D01*
X111565000Y-57188072D01*
X111627523Y-57185001D01*
X111628498Y-57184905D01*
X111751472Y-57160417D01*
X111752410Y-57160132D01*
X111867520Y-57112443D01*
X111868385Y-57111981D01*
X111972148Y-57042736D01*
X111972906Y-57042115D01*
X112062115Y-56952906D01*
X112062736Y-56952148D01*
X112131981Y-56848385D01*
X112132443Y-56847520D01*
X112180132Y-56732410D01*
X112180417Y-56731472D01*
X112204905Y-56608498D01*
X112205001Y-56607523D01*
X112208072Y-56545000D01*
X112208072Y-55465000D01*
X112840199Y-55465000D01*
X113190000Y-55814802D01*
%TA.AperFunction,NonConductor*%
D19*
G36*
X113190000Y-55814802D02*
G01*
X113190001Y-63890197D01*
X111552500Y-65527699D01*
X110912985Y-64888183D01*
X111094345Y-64739345D01*
X111329903Y-64452317D01*
X111504939Y-64124848D01*
X111612725Y-63769524D01*
X111649120Y-63400000D01*
X111612725Y-63030476D01*
X111504939Y-62675152D01*
X111329903Y-62347683D01*
X111094345Y-62060655D01*
X110807317Y-61825097D01*
X110479848Y-61650061D01*
X110124524Y-61542275D01*
X109847597Y-61515000D01*
X109162403Y-61515000D01*
X108885476Y-61542275D01*
X108530152Y-61650061D01*
X108202683Y-61825097D01*
X107915655Y-62060655D01*
X107680097Y-62347683D01*
X107505061Y-62675152D01*
X107397275Y-63030476D01*
X107360880Y-63400000D01*
X107397275Y-63769524D01*
X107505061Y-64124848D01*
X107680097Y-64452317D01*
X107915655Y-64739345D01*
X108202683Y-64974903D01*
X108530152Y-65149939D01*
X108885476Y-65257725D01*
X109159958Y-65284759D01*
X110477698Y-66602500D01*
X109791502Y-67288697D01*
X109791497Y-67288701D01*
X107690199Y-69390000D01*
X106427238Y-69390000D01*
X106425812Y-69375518D01*
X106389502Y-69255820D01*
X106330537Y-69145506D01*
X106251185Y-69048815D01*
X106154494Y-68969463D01*
X106044180Y-68910498D01*
X105924482Y-68874188D01*
X105800000Y-68861928D01*
X104300000Y-68861928D01*
X104175518Y-68874188D01*
X104055820Y-68910498D01*
X103945506Y-68969463D01*
X103848815Y-69048815D01*
X103769463Y-69145506D01*
X103710498Y-69255820D01*
X103700000Y-69290427D01*
X103689502Y-69255820D01*
X103630537Y-69145506D01*
X103551185Y-69048815D01*
X103454494Y-68969463D01*
X103344180Y-68910498D01*
X103224482Y-68874188D01*
X103100000Y-68861928D01*
X101600000Y-68861928D01*
X101475518Y-68874188D01*
X101355820Y-68910498D01*
X101245506Y-68969463D01*
X101148815Y-69048815D01*
X101069463Y-69145506D01*
X101010498Y-69255820D01*
X100974188Y-69375518D01*
X100972762Y-69390000D01*
X96687325Y-69390000D01*
X96650000Y-69386324D01*
X96612675Y-69390000D01*
X96612667Y-69390000D01*
X96501014Y-69400997D01*
X96357753Y-69444454D01*
X96225724Y-69515026D01*
X96109999Y-69609999D01*
X96086202Y-69638996D01*
X92885199Y-72840000D01*
X82214802Y-72840000D01*
X80284801Y-70910000D01*
X84322762Y-70910000D01*
X84324188Y-70924482D01*
X84360498Y-71044180D01*
X84419463Y-71154494D01*
X84498815Y-71251185D01*
X84595506Y-71330537D01*
X84705820Y-71389502D01*
X84825518Y-71425812D01*
X84950000Y-71438072D01*
X86450000Y-71438072D01*
X86574482Y-71425812D01*
X86694180Y-71389502D01*
X86804494Y-71330537D01*
X86901185Y-71251185D01*
X86980537Y-71154494D01*
X87039502Y-71044180D01*
X87050000Y-71009573D01*
X87060498Y-71044180D01*
X87119463Y-71154494D01*
X87198815Y-71251185D01*
X87295506Y-71330537D01*
X87405820Y-71389502D01*
X87525518Y-71425812D01*
X87650000Y-71438072D01*
X89150000Y-71438072D01*
X89274482Y-71425812D01*
X89394180Y-71389502D01*
X89504494Y-71330537D01*
X89601185Y-71251185D01*
X89680537Y-71154494D01*
X89739502Y-71044180D01*
X89775812Y-70924482D01*
X89777238Y-70910000D01*
X90962678Y-70910000D01*
X91000000Y-70913676D01*
X91037322Y-70910000D01*
X91037333Y-70910000D01*
X91148986Y-70899003D01*
X91292247Y-70855546D01*
X91424276Y-70784974D01*
X91540001Y-70690001D01*
X91563804Y-70660997D01*
X93506003Y-68718799D01*
X93535001Y-68695001D01*
X93611734Y-68601502D01*
X93629974Y-68579277D01*
X93700546Y-68447247D01*
X93709934Y-68416299D01*
X93744003Y-68303986D01*
X93755000Y-68192333D01*
X93755000Y-68192324D01*
X93758676Y-68155001D01*
X93755000Y-68117678D01*
X93755000Y-65215112D01*
X93969848Y-65149939D01*
X94297317Y-64974903D01*
X94584345Y-64739345D01*
X94819903Y-64452317D01*
X94994939Y-64124848D01*
X95000000Y-64108164D01*
X95005061Y-64124848D01*
X95180097Y-64452317D01*
X95415655Y-64739345D01*
X95702683Y-64974903D01*
X96030152Y-65149939D01*
X96385476Y-65257725D01*
X96662403Y-65285000D01*
X97347597Y-65285000D01*
X97624524Y-65257725D01*
X97979848Y-65149939D01*
X98307317Y-64974903D01*
X98594345Y-64739345D01*
X98829903Y-64452317D01*
X99004939Y-64124848D01*
X99112725Y-63769524D01*
X99149120Y-63400000D01*
X99112725Y-63030476D01*
X99004939Y-62675152D01*
X98829903Y-62347683D01*
X98594345Y-62060655D01*
X98307317Y-61825097D01*
X98091986Y-61710000D01*
X103952678Y-61710000D01*
X103990000Y-61713676D01*
X104027322Y-61710000D01*
X104027333Y-61710000D01*
X104138986Y-61699003D01*
X104282247Y-61655546D01*
X104414276Y-61584974D01*
X104530001Y-61490001D01*
X104553804Y-61460997D01*
X107383647Y-58631155D01*
X107397275Y-58769524D01*
X107505061Y-59124848D01*
X107680097Y-59452317D01*
X107915655Y-59739345D01*
X108202683Y-59974903D01*
X108530152Y-60149939D01*
X108885476Y-60257725D01*
X109162403Y-60285000D01*
X109847597Y-60285000D01*
X110124524Y-60257725D01*
X110479848Y-60149939D01*
X110807317Y-59974903D01*
X111094345Y-59739345D01*
X111329903Y-59452317D01*
X111504939Y-59124848D01*
X111612725Y-58769524D01*
X111649120Y-58400000D01*
X111612725Y-58030476D01*
X111504939Y-57675152D01*
X111329903Y-57347683D01*
X111198914Y-57188072D01*
X111565000Y-57188072D01*
X111627523Y-57185001D01*
X111628498Y-57184905D01*
X111751472Y-57160417D01*
X111752410Y-57160132D01*
X111867520Y-57112443D01*
X111868385Y-57111981D01*
X111972148Y-57042736D01*
X111972906Y-57042115D01*
X112062115Y-56952906D01*
X112062736Y-56952148D01*
X112131981Y-56848385D01*
X112132443Y-56847520D01*
X112180132Y-56732410D01*
X112180417Y-56731472D01*
X112204905Y-56608498D01*
X112205001Y-56607523D01*
X112208072Y-56545000D01*
X112208072Y-55465000D01*
X112840199Y-55465000D01*
X113190000Y-55814802D01*
G37*
%TD.AperFunction*%
D18*
X57538998Y-48986201D02*
X57510000Y-49009999D01*
X57486202Y-49038997D01*
X57486201Y-49038998D01*
X57415026Y-49125724D01*
X57344454Y-49257754D01*
X57300998Y-49401015D01*
X57286324Y-49550000D01*
X57290001Y-49587333D01*
X57290000Y-65212678D01*
X57286324Y-65250000D01*
X57290000Y-65287322D01*
X57290000Y-65287332D01*
X57300997Y-65398985D01*
X57344454Y-65542246D01*
X57415026Y-65674276D01*
X57454871Y-65722826D01*
X57509999Y-65790001D01*
X57539003Y-65813804D01*
X62386205Y-70661008D01*
X62409999Y-70690001D01*
X62438992Y-70713795D01*
X62438996Y-70713799D01*
X62509685Y-70771811D01*
X62525724Y-70784974D01*
X62535127Y-70790000D01*
X61664802Y-70790000D01*
X57010000Y-66135199D01*
X57010000Y-49064801D01*
X62014802Y-44060000D01*
X62465198Y-44060000D01*
X57538998Y-48986201D01*
%TA.AperFunction,NonConductor*%
D19*
G36*
X57538998Y-48986201D02*
G01*
X57510000Y-49009999D01*
X57486202Y-49038997D01*
X57486201Y-49038998D01*
X57415026Y-49125724D01*
X57344454Y-49257754D01*
X57300998Y-49401015D01*
X57286324Y-49550000D01*
X57290001Y-49587333D01*
X57290000Y-65212678D01*
X57286324Y-65250000D01*
X57290000Y-65287322D01*
X57290000Y-65287332D01*
X57300997Y-65398985D01*
X57344454Y-65542246D01*
X57415026Y-65674276D01*
X57454871Y-65722826D01*
X57509999Y-65790001D01*
X57539003Y-65813804D01*
X62386205Y-70661008D01*
X62409999Y-70690001D01*
X62438992Y-70713795D01*
X62438996Y-70713799D01*
X62509685Y-70771811D01*
X62525724Y-70784974D01*
X62535127Y-70790000D01*
X61664802Y-70790000D01*
X57010000Y-66135199D01*
X57010000Y-49064801D01*
X62014802Y-44060000D01*
X62465198Y-44060000D01*
X57538998Y-48986201D01*
G37*
%TD.AperFunction*%
D18*
X74610000Y-46084802D02*
X74610000Y-47289345D01*
X74490820Y-47325498D01*
X74380506Y-47384463D01*
X74283815Y-47463815D01*
X74204463Y-47560506D01*
X74145498Y-47670820D01*
X74109188Y-47790518D01*
X74100000Y-47883808D01*
X74090812Y-47790518D01*
X74054502Y-47670820D01*
X73995537Y-47560506D01*
X73916185Y-47463815D01*
X73819494Y-47384463D01*
X73709180Y-47325498D01*
X73589482Y-47289188D01*
X73465000Y-47276928D01*
X72195000Y-47276928D01*
X72070518Y-47289188D01*
X71950820Y-47325498D01*
X71840506Y-47384463D01*
X71743815Y-47463815D01*
X71664463Y-47560506D01*
X71605498Y-47670820D01*
X71569188Y-47790518D01*
X71560000Y-47883808D01*
X71550812Y-47790518D01*
X71514502Y-47670820D01*
X71455537Y-47560506D01*
X71376185Y-47463815D01*
X71279494Y-47384463D01*
X71169180Y-47325498D01*
X71049482Y-47289188D01*
X70925000Y-47276928D01*
X69655000Y-47276928D01*
X69530518Y-47289188D01*
X69410820Y-47325498D01*
X69300506Y-47384463D01*
X69203815Y-47463815D01*
X69124463Y-47560506D01*
X69065498Y-47670820D01*
X69029188Y-47790518D01*
X69020000Y-47883808D01*
X69010812Y-47790518D01*
X68974502Y-47670820D01*
X68915537Y-47560506D01*
X68836185Y-47463815D01*
X68739494Y-47384463D01*
X68629180Y-47325498D01*
X68509482Y-47289188D01*
X68385000Y-47276928D01*
X67115000Y-47276928D01*
X66990518Y-47289188D01*
X66870820Y-47325498D01*
X66760506Y-47384463D01*
X66663815Y-47463815D01*
X66584463Y-47560506D01*
X66525498Y-47670820D01*
X66489188Y-47790518D01*
X66483752Y-47845712D01*
X66460417Y-47728528D01*
X66460132Y-47727590D01*
X66412443Y-47612480D01*
X66411981Y-47611615D01*
X66342736Y-47507852D01*
X66342115Y-47507094D01*
X66252906Y-47417885D01*
X66252148Y-47417264D01*
X66148385Y-47348019D01*
X66147520Y-47347557D01*
X66032410Y-47299868D01*
X66031472Y-47299583D01*
X65908498Y-47275095D01*
X65907523Y-47274999D01*
X65845000Y-47271928D01*
X64575000Y-47271928D01*
X64512477Y-47274999D01*
X64511502Y-47275095D01*
X64388528Y-47299583D01*
X64387590Y-47299868D01*
X64272480Y-47347557D01*
X64271615Y-47348019D01*
X64167852Y-47417264D01*
X64167094Y-47417885D01*
X64077885Y-47507094D01*
X64077264Y-47507852D01*
X64008019Y-47611615D01*
X64007557Y-47612480D01*
X63959868Y-47727590D01*
X63959583Y-47728528D01*
X63940000Y-47826870D01*
X63920417Y-47728528D01*
X63920132Y-47727590D01*
X63872443Y-47612480D01*
X63871981Y-47611615D01*
X63802736Y-47507852D01*
X63802115Y-47507094D01*
X63712906Y-47417885D01*
X63712148Y-47417264D01*
X63608385Y-47348019D01*
X63607520Y-47347557D01*
X63492410Y-47299868D01*
X63491472Y-47299583D01*
X63368498Y-47275095D01*
X63367523Y-47274999D01*
X63305000Y-47271928D01*
X62035000Y-47271928D01*
X61972477Y-47274999D01*
X61971502Y-47275095D01*
X61848528Y-47299583D01*
X61847590Y-47299868D01*
X61732480Y-47347557D01*
X61731615Y-47348019D01*
X61627852Y-47417264D01*
X61627094Y-47417885D01*
X61537885Y-47507094D01*
X61537264Y-47507852D01*
X61468019Y-47611615D01*
X61467557Y-47612480D01*
X61419868Y-47727590D01*
X61419583Y-47728528D01*
X61395095Y-47851502D01*
X61394999Y-47852477D01*
X61391928Y-47915000D01*
X61391928Y-49958270D01*
X59618998Y-51731201D01*
X59590000Y-51754999D01*
X59566202Y-51783997D01*
X59566201Y-51783998D01*
X59495026Y-51870724D01*
X59424454Y-52002754D01*
X59380998Y-52146015D01*
X59366324Y-52295000D01*
X59370001Y-52332332D01*
X59370000Y-60092678D01*
X59366324Y-60130000D01*
X59370000Y-60167322D01*
X59370000Y-60167332D01*
X59380997Y-60278985D01*
X59391930Y-60315026D01*
X59424454Y-60422246D01*
X59495026Y-60554276D01*
X59534871Y-60602826D01*
X59589999Y-60670001D01*
X59619003Y-60693804D01*
X61895522Y-62970324D01*
X61877275Y-63030476D01*
X61840880Y-63400000D01*
X61877275Y-63769524D01*
X61985061Y-64124848D01*
X62160097Y-64452317D01*
X62395655Y-64739345D01*
X62682683Y-64974903D01*
X63010152Y-65149939D01*
X63365476Y-65257725D01*
X63642403Y-65285000D01*
X64327597Y-65285000D01*
X64604524Y-65257725D01*
X64959848Y-65149939D01*
X65287317Y-64974903D01*
X65574345Y-64739345D01*
X65809903Y-64452317D01*
X65984939Y-64124848D01*
X66092725Y-63769524D01*
X66129120Y-63400000D01*
X74340880Y-63400000D01*
X74377275Y-63769524D01*
X74485061Y-64124848D01*
X74660097Y-64452317D01*
X74895655Y-64739345D01*
X75182683Y-64974903D01*
X75510152Y-65149939D01*
X75865476Y-65257725D01*
X76142403Y-65285000D01*
X76827597Y-65285000D01*
X77104524Y-65257725D01*
X77459848Y-65149939D01*
X77787317Y-64974903D01*
X78074345Y-64739345D01*
X78309903Y-64452317D01*
X78484939Y-64124848D01*
X78490000Y-64108164D01*
X78495061Y-64124848D01*
X78670097Y-64452317D01*
X78905655Y-64739345D01*
X79192683Y-64974903D01*
X79520152Y-65149939D01*
X79875476Y-65257725D01*
X80152403Y-65285000D01*
X80837597Y-65285000D01*
X81114524Y-65257725D01*
X81469848Y-65149939D01*
X81797317Y-64974903D01*
X82084345Y-64739345D01*
X82319903Y-64452317D01*
X82494939Y-64124848D01*
X82602725Y-63769524D01*
X82639120Y-63400000D01*
X82602725Y-63030476D01*
X82494939Y-62675152D01*
X82319903Y-62347683D01*
X82084345Y-62060655D01*
X81797317Y-61825097D01*
X81469848Y-61650061D01*
X81114524Y-61542275D01*
X80837597Y-61515000D01*
X80152403Y-61515000D01*
X79875476Y-61542275D01*
X79520152Y-61650061D01*
X79192683Y-61825097D01*
X78905655Y-62060655D01*
X78670097Y-62347683D01*
X78495061Y-62675152D01*
X78490000Y-62691836D01*
X78484939Y-62675152D01*
X78309903Y-62347683D01*
X78074345Y-62060655D01*
X77787317Y-61825097D01*
X77459848Y-61650061D01*
X77104524Y-61542275D01*
X76827597Y-61515000D01*
X76142403Y-61515000D01*
X75865476Y-61542275D01*
X75510152Y-61650061D01*
X75182683Y-61825097D01*
X74895655Y-62060655D01*
X74660097Y-62347683D01*
X74485061Y-62675152D01*
X74377275Y-63030476D01*
X74340880Y-63400000D01*
X66129120Y-63400000D01*
X66092725Y-63030476D01*
X65984939Y-62675152D01*
X65809903Y-62347683D01*
X65574345Y-62060655D01*
X65287317Y-61825097D01*
X64959848Y-61650061D01*
X64604524Y-61542275D01*
X64327597Y-61515000D01*
X63642403Y-61515000D01*
X63365476Y-61542275D01*
X63010152Y-61650061D01*
X62824237Y-61749435D01*
X60890000Y-59815199D01*
X60890000Y-52609801D01*
X61521410Y-51978391D01*
X61537264Y-52002148D01*
X61537885Y-52002906D01*
X61627094Y-52092115D01*
X61627852Y-52092736D01*
X61731615Y-52161981D01*
X61732480Y-52162443D01*
X61847590Y-52210132D01*
X61848528Y-52210417D01*
X61946870Y-52230000D01*
X61848528Y-52249583D01*
X61847590Y-52249868D01*
X61732480Y-52297557D01*
X61731615Y-52298019D01*
X61627852Y-52367264D01*
X61627094Y-52367885D01*
X61537885Y-52457094D01*
X61537264Y-52457852D01*
X61468019Y-52561615D01*
X61467557Y-52562480D01*
X61419868Y-52677590D01*
X61419583Y-52678528D01*
X61395095Y-52801502D01*
X61394999Y-52802477D01*
X61391928Y-52865000D01*
X61391928Y-56545000D01*
X61394999Y-56607523D01*
X61395095Y-56608498D01*
X61419583Y-56731472D01*
X61419868Y-56732410D01*
X61467557Y-56847520D01*
X61468019Y-56848385D01*
X61537264Y-56952148D01*
X61537885Y-56952906D01*
X61627094Y-57042115D01*
X61627852Y-57042736D01*
X61731615Y-57111981D01*
X61732480Y-57112443D01*
X61847590Y-57160132D01*
X61848528Y-57160417D01*
X61971502Y-57184905D01*
X61972477Y-57185001D01*
X62035000Y-57188072D01*
X62291086Y-57188072D01*
X62160097Y-57347683D01*
X61985061Y-57675152D01*
X61877275Y-58030476D01*
X61840880Y-58400000D01*
X61877275Y-58769524D01*
X61985061Y-59124848D01*
X62160097Y-59452317D01*
X62395655Y-59739345D01*
X62682683Y-59974903D01*
X63010152Y-60149939D01*
X63365476Y-60257725D01*
X63642403Y-60285000D01*
X64327597Y-60285000D01*
X64604524Y-60257725D01*
X64959848Y-60149939D01*
X65287317Y-59974903D01*
X65574345Y-59739345D01*
X65809903Y-59452317D01*
X65984939Y-59124848D01*
X66092725Y-58769524D01*
X66129120Y-58400000D01*
X66092725Y-58030476D01*
X65984939Y-57675152D01*
X65809903Y-57347683D01*
X65678914Y-57188072D01*
X65845000Y-57188072D01*
X65907523Y-57185001D01*
X65908498Y-57184905D01*
X66031472Y-57160417D01*
X66032410Y-57160132D01*
X66147520Y-57112443D01*
X66148385Y-57111981D01*
X66252148Y-57042736D01*
X66252906Y-57042115D01*
X66342115Y-56952906D01*
X66342736Y-56952148D01*
X66411981Y-56848385D01*
X66412443Y-56847520D01*
X66460132Y-56732410D01*
X66460417Y-56731472D01*
X66483752Y-56614288D01*
X66489188Y-56669482D01*
X66525498Y-56789180D01*
X66584463Y-56899494D01*
X66663815Y-56996185D01*
X66760506Y-57075537D01*
X66870820Y-57134502D01*
X66990518Y-57170812D01*
X67115000Y-57183072D01*
X68385000Y-57183072D01*
X68509482Y-57170812D01*
X68629180Y-57134502D01*
X68739494Y-57075537D01*
X68836185Y-56996185D01*
X68915537Y-56899494D01*
X68974502Y-56789180D01*
X69010812Y-56669482D01*
X69020000Y-56576192D01*
X69029188Y-56669482D01*
X69065498Y-56789180D01*
X69124463Y-56899494D01*
X69203815Y-56996185D01*
X69300506Y-57075537D01*
X69410820Y-57134502D01*
X69530518Y-57170812D01*
X69655000Y-57183072D01*
X70925000Y-57183072D01*
X71049482Y-57170812D01*
X71169180Y-57134502D01*
X71279494Y-57075537D01*
X71376185Y-56996185D01*
X71455537Y-56899494D01*
X71514502Y-56789180D01*
X71550812Y-56669482D01*
X71560000Y-56576192D01*
X71569188Y-56669482D01*
X71605498Y-56789180D01*
X71664463Y-56899494D01*
X71743815Y-56996185D01*
X71840506Y-57075537D01*
X71950820Y-57134502D01*
X72070518Y-57170812D01*
X72195000Y-57183072D01*
X73465000Y-57183072D01*
X73589482Y-57170812D01*
X73709180Y-57134502D01*
X73819494Y-57075537D01*
X73916185Y-56996185D01*
X73995537Y-56899494D01*
X74054502Y-56789180D01*
X74090812Y-56669482D01*
X74100000Y-56576192D01*
X74109188Y-56669482D01*
X74145498Y-56789180D01*
X74204463Y-56899494D01*
X74283815Y-56996185D01*
X74380506Y-57075537D01*
X74490820Y-57134502D01*
X74610001Y-57170655D01*
X74610001Y-57247668D01*
X74606324Y-57285000D01*
X74610001Y-57322333D01*
X74619904Y-57422879D01*
X74485061Y-57675152D01*
X74377275Y-58030476D01*
X74340880Y-58400000D01*
X74377275Y-58769524D01*
X74485061Y-59124848D01*
X74660097Y-59452317D01*
X74895655Y-59739345D01*
X75182683Y-59974903D01*
X75510152Y-60149939D01*
X75865476Y-60257725D01*
X76142403Y-60285000D01*
X76827597Y-60285000D01*
X77104524Y-60257725D01*
X77459848Y-60149939D01*
X77787317Y-59974903D01*
X78074345Y-59739345D01*
X78309903Y-59452317D01*
X78484939Y-59124848D01*
X78490000Y-59108164D01*
X78495061Y-59124848D01*
X78670097Y-59452317D01*
X78905655Y-59739345D01*
X79192683Y-59974903D01*
X79520152Y-60149939D01*
X79875476Y-60257725D01*
X80152403Y-60285000D01*
X80837597Y-60285000D01*
X81114524Y-60257725D01*
X81469848Y-60149939D01*
X81797317Y-59974903D01*
X82084345Y-59739345D01*
X82319903Y-59452317D01*
X82494939Y-59124848D01*
X82602725Y-58769524D01*
X82639120Y-58400000D01*
X82602725Y-58030476D01*
X82494939Y-57675152D01*
X82319903Y-57347683D01*
X82156263Y-57148287D01*
X82230518Y-57170812D01*
X82355000Y-57183072D01*
X83625000Y-57183072D01*
X83749482Y-57170812D01*
X83869180Y-57134502D01*
X83979494Y-57075537D01*
X84076185Y-56996185D01*
X84155537Y-56899494D01*
X84214502Y-56789180D01*
X84250812Y-56669482D01*
X84260000Y-56576192D01*
X84269188Y-56669482D01*
X84305498Y-56789180D01*
X84364463Y-56899494D01*
X84443815Y-56996185D01*
X84540506Y-57075537D01*
X84650820Y-57134502D01*
X84770518Y-57170812D01*
X84895000Y-57183072D01*
X86165000Y-57183072D01*
X86289482Y-57170812D01*
X86409180Y-57134502D01*
X86519494Y-57075537D01*
X86616185Y-56996185D01*
X86695537Y-56899494D01*
X86754502Y-56789180D01*
X86790812Y-56669482D01*
X86800000Y-56576192D01*
X86809188Y-56669482D01*
X86845498Y-56789180D01*
X86904463Y-56899494D01*
X86983815Y-56996185D01*
X87080506Y-57075537D01*
X87190820Y-57134502D01*
X87310518Y-57170812D01*
X87435000Y-57183072D01*
X88705000Y-57183072D01*
X88829482Y-57170812D01*
X88949180Y-57134502D01*
X89059494Y-57075537D01*
X89156185Y-56996185D01*
X89235537Y-56899494D01*
X89294502Y-56789180D01*
X89330812Y-56669482D01*
X89340000Y-56576192D01*
X89349188Y-56669482D01*
X89385498Y-56789180D01*
X89444463Y-56899494D01*
X89523815Y-56996185D01*
X89620506Y-57075537D01*
X89730820Y-57134502D01*
X89850518Y-57170812D01*
X89975000Y-57183072D01*
X91245000Y-57183072D01*
X91310483Y-57176623D01*
X91170097Y-57347683D01*
X90995061Y-57675152D01*
X90887275Y-58030476D01*
X90850880Y-58400000D01*
X90887275Y-58769524D01*
X90995061Y-59124848D01*
X91170097Y-59452317D01*
X91405655Y-59739345D01*
X91692683Y-59974903D01*
X92020152Y-60149939D01*
X92375476Y-60257725D01*
X92652403Y-60285000D01*
X93337597Y-60285000D01*
X93514493Y-60267577D01*
X93425724Y-60315026D01*
X93309999Y-60409999D01*
X93286201Y-60438997D01*
X92484002Y-61241197D01*
X92454999Y-61264999D01*
X92399871Y-61332174D01*
X92360026Y-61380724D01*
X92317116Y-61461003D01*
X92289454Y-61512754D01*
X92270874Y-61574006D01*
X92020152Y-61650061D01*
X91692683Y-61825097D01*
X91405655Y-62060655D01*
X91170097Y-62347683D01*
X90995061Y-62675152D01*
X90887275Y-63030476D01*
X90850880Y-63400000D01*
X90887275Y-63769524D01*
X90995061Y-64124848D01*
X91170097Y-64452317D01*
X91405655Y-64739345D01*
X91692683Y-64974903D01*
X92020152Y-65149939D01*
X92235000Y-65215112D01*
X92235001Y-67840197D01*
X90685199Y-69390000D01*
X89777238Y-69390000D01*
X89775812Y-69375518D01*
X89739502Y-69255820D01*
X89680537Y-69145506D01*
X89601185Y-69048815D01*
X89504494Y-68969463D01*
X89394180Y-68910498D01*
X89274482Y-68874188D01*
X89150000Y-68861928D01*
X87650000Y-68861928D01*
X87525518Y-68874188D01*
X87405820Y-68910498D01*
X87295506Y-68969463D01*
X87198815Y-69048815D01*
X87119463Y-69145506D01*
X87060498Y-69255820D01*
X87050000Y-69290427D01*
X87039502Y-69255820D01*
X86980537Y-69145506D01*
X86901185Y-69048815D01*
X86804494Y-68969463D01*
X86694180Y-68910498D01*
X86574482Y-68874188D01*
X86450000Y-68861928D01*
X84950000Y-68861928D01*
X84825518Y-68874188D01*
X84705820Y-68910498D01*
X84595506Y-68969463D01*
X84498815Y-69048815D01*
X84419463Y-69145506D01*
X84360498Y-69255820D01*
X84324188Y-69375518D01*
X84322762Y-69390000D01*
X78487322Y-69390000D01*
X78450000Y-69386324D01*
X78412678Y-69390000D01*
X63264803Y-69390000D01*
X58810000Y-64935199D01*
X58810000Y-49864801D01*
X63364802Y-45310000D01*
X73835199Y-45310000D01*
X74610000Y-46084802D01*
%TA.AperFunction,NonConductor*%
D19*
G36*
X74610000Y-46084802D02*
G01*
X74610000Y-47289345D01*
X74490820Y-47325498D01*
X74380506Y-47384463D01*
X74283815Y-47463815D01*
X74204463Y-47560506D01*
X74145498Y-47670820D01*
X74109188Y-47790518D01*
X74100000Y-47883808D01*
X74090812Y-47790518D01*
X74054502Y-47670820D01*
X73995537Y-47560506D01*
X73916185Y-47463815D01*
X73819494Y-47384463D01*
X73709180Y-47325498D01*
X73589482Y-47289188D01*
X73465000Y-47276928D01*
X72195000Y-47276928D01*
X72070518Y-47289188D01*
X71950820Y-47325498D01*
X71840506Y-47384463D01*
X71743815Y-47463815D01*
X71664463Y-47560506D01*
X71605498Y-47670820D01*
X71569188Y-47790518D01*
X71560000Y-47883808D01*
X71550812Y-47790518D01*
X71514502Y-47670820D01*
X71455537Y-47560506D01*
X71376185Y-47463815D01*
X71279494Y-47384463D01*
X71169180Y-47325498D01*
X71049482Y-47289188D01*
X70925000Y-47276928D01*
X69655000Y-47276928D01*
X69530518Y-47289188D01*
X69410820Y-47325498D01*
X69300506Y-47384463D01*
X69203815Y-47463815D01*
X69124463Y-47560506D01*
X69065498Y-47670820D01*
X69029188Y-47790518D01*
X69020000Y-47883808D01*
X69010812Y-47790518D01*
X68974502Y-47670820D01*
X68915537Y-47560506D01*
X68836185Y-47463815D01*
X68739494Y-47384463D01*
X68629180Y-47325498D01*
X68509482Y-47289188D01*
X68385000Y-47276928D01*
X67115000Y-47276928D01*
X66990518Y-47289188D01*
X66870820Y-47325498D01*
X66760506Y-47384463D01*
X66663815Y-47463815D01*
X66584463Y-47560506D01*
X66525498Y-47670820D01*
X66489188Y-47790518D01*
X66483752Y-47845712D01*
X66460417Y-47728528D01*
X66460132Y-47727590D01*
X66412443Y-47612480D01*
X66411981Y-47611615D01*
X66342736Y-47507852D01*
X66342115Y-47507094D01*
X66252906Y-47417885D01*
X66252148Y-47417264D01*
X66148385Y-47348019D01*
X66147520Y-47347557D01*
X66032410Y-47299868D01*
X66031472Y-47299583D01*
X65908498Y-47275095D01*
X65907523Y-47274999D01*
X65845000Y-47271928D01*
X64575000Y-47271928D01*
X64512477Y-47274999D01*
X64511502Y-47275095D01*
X64388528Y-47299583D01*
X64387590Y-47299868D01*
X64272480Y-47347557D01*
X64271615Y-47348019D01*
X64167852Y-47417264D01*
X64167094Y-47417885D01*
X64077885Y-47507094D01*
X64077264Y-47507852D01*
X64008019Y-47611615D01*
X64007557Y-47612480D01*
X63959868Y-47727590D01*
X63959583Y-47728528D01*
X63940000Y-47826870D01*
X63920417Y-47728528D01*
X63920132Y-47727590D01*
X63872443Y-47612480D01*
X63871981Y-47611615D01*
X63802736Y-47507852D01*
X63802115Y-47507094D01*
X63712906Y-47417885D01*
X63712148Y-47417264D01*
X63608385Y-47348019D01*
X63607520Y-47347557D01*
X63492410Y-47299868D01*
X63491472Y-47299583D01*
X63368498Y-47275095D01*
X63367523Y-47274999D01*
X63305000Y-47271928D01*
X62035000Y-47271928D01*
X61972477Y-47274999D01*
X61971502Y-47275095D01*
X61848528Y-47299583D01*
X61847590Y-47299868D01*
X61732480Y-47347557D01*
X61731615Y-47348019D01*
X61627852Y-47417264D01*
X61627094Y-47417885D01*
X61537885Y-47507094D01*
X61537264Y-47507852D01*
X61468019Y-47611615D01*
X61467557Y-47612480D01*
X61419868Y-47727590D01*
X61419583Y-47728528D01*
X61395095Y-47851502D01*
X61394999Y-47852477D01*
X61391928Y-47915000D01*
X61391928Y-49958270D01*
X59618998Y-51731201D01*
X59590000Y-51754999D01*
X59566202Y-51783997D01*
X59566201Y-51783998D01*
X59495026Y-51870724D01*
X59424454Y-52002754D01*
X59380998Y-52146015D01*
X59366324Y-52295000D01*
X59370001Y-52332332D01*
X59370000Y-60092678D01*
X59366324Y-60130000D01*
X59370000Y-60167322D01*
X59370000Y-60167332D01*
X59380997Y-60278985D01*
X59391930Y-60315026D01*
X59424454Y-60422246D01*
X59495026Y-60554276D01*
X59534871Y-60602826D01*
X59589999Y-60670001D01*
X59619003Y-60693804D01*
X61895522Y-62970324D01*
X61877275Y-63030476D01*
X61840880Y-63400000D01*
X61877275Y-63769524D01*
X61985061Y-64124848D01*
X62160097Y-64452317D01*
X62395655Y-64739345D01*
X62682683Y-64974903D01*
X63010152Y-65149939D01*
X63365476Y-65257725D01*
X63642403Y-65285000D01*
X64327597Y-65285000D01*
X64604524Y-65257725D01*
X64959848Y-65149939D01*
X65287317Y-64974903D01*
X65574345Y-64739345D01*
X65809903Y-64452317D01*
X65984939Y-64124848D01*
X66092725Y-63769524D01*
X66129120Y-63400000D01*
X74340880Y-63400000D01*
X74377275Y-63769524D01*
X74485061Y-64124848D01*
X74660097Y-64452317D01*
X74895655Y-64739345D01*
X75182683Y-64974903D01*
X75510152Y-65149939D01*
X75865476Y-65257725D01*
X76142403Y-65285000D01*
X76827597Y-65285000D01*
X77104524Y-65257725D01*
X77459848Y-65149939D01*
X77787317Y-64974903D01*
X78074345Y-64739345D01*
X78309903Y-64452317D01*
X78484939Y-64124848D01*
X78490000Y-64108164D01*
X78495061Y-64124848D01*
X78670097Y-64452317D01*
X78905655Y-64739345D01*
X79192683Y-64974903D01*
X79520152Y-65149939D01*
X79875476Y-65257725D01*
X80152403Y-65285000D01*
X80837597Y-65285000D01*
X81114524Y-65257725D01*
X81469848Y-65149939D01*
X81797317Y-64974903D01*
X82084345Y-64739345D01*
X82319903Y-64452317D01*
X82494939Y-64124848D01*
X82602725Y-63769524D01*
X82639120Y-63400000D01*
X82602725Y-63030476D01*
X82494939Y-62675152D01*
X82319903Y-62347683D01*
X82084345Y-62060655D01*
X81797317Y-61825097D01*
X81469848Y-61650061D01*
X81114524Y-61542275D01*
X80837597Y-61515000D01*
X80152403Y-61515000D01*
X79875476Y-61542275D01*
X79520152Y-61650061D01*
X79192683Y-61825097D01*
X78905655Y-62060655D01*
X78670097Y-62347683D01*
X78495061Y-62675152D01*
X78490000Y-62691836D01*
X78484939Y-62675152D01*
X78309903Y-62347683D01*
X78074345Y-62060655D01*
X77787317Y-61825097D01*
X77459848Y-61650061D01*
X77104524Y-61542275D01*
X76827597Y-61515000D01*
X76142403Y-61515000D01*
X75865476Y-61542275D01*
X75510152Y-61650061D01*
X75182683Y-61825097D01*
X74895655Y-62060655D01*
X74660097Y-62347683D01*
X74485061Y-62675152D01*
X74377275Y-63030476D01*
X74340880Y-63400000D01*
X66129120Y-63400000D01*
X66092725Y-63030476D01*
X65984939Y-62675152D01*
X65809903Y-62347683D01*
X65574345Y-62060655D01*
X65287317Y-61825097D01*
X64959848Y-61650061D01*
X64604524Y-61542275D01*
X64327597Y-61515000D01*
X63642403Y-61515000D01*
X63365476Y-61542275D01*
X63010152Y-61650061D01*
X62824237Y-61749435D01*
X60890000Y-59815199D01*
X60890000Y-52609801D01*
X61521410Y-51978391D01*
X61537264Y-52002148D01*
X61537885Y-52002906D01*
X61627094Y-52092115D01*
X61627852Y-52092736D01*
X61731615Y-52161981D01*
X61732480Y-52162443D01*
X61847590Y-52210132D01*
X61848528Y-52210417D01*
X61946870Y-52230000D01*
X61848528Y-52249583D01*
X61847590Y-52249868D01*
X61732480Y-52297557D01*
X61731615Y-52298019D01*
X61627852Y-52367264D01*
X61627094Y-52367885D01*
X61537885Y-52457094D01*
X61537264Y-52457852D01*
X61468019Y-52561615D01*
X61467557Y-52562480D01*
X61419868Y-52677590D01*
X61419583Y-52678528D01*
X61395095Y-52801502D01*
X61394999Y-52802477D01*
X61391928Y-52865000D01*
X61391928Y-56545000D01*
X61394999Y-56607523D01*
X61395095Y-56608498D01*
X61419583Y-56731472D01*
X61419868Y-56732410D01*
X61467557Y-56847520D01*
X61468019Y-56848385D01*
X61537264Y-56952148D01*
X61537885Y-56952906D01*
X61627094Y-57042115D01*
X61627852Y-57042736D01*
X61731615Y-57111981D01*
X61732480Y-57112443D01*
X61847590Y-57160132D01*
X61848528Y-57160417D01*
X61971502Y-57184905D01*
X61972477Y-57185001D01*
X62035000Y-57188072D01*
X62291086Y-57188072D01*
X62160097Y-57347683D01*
X61985061Y-57675152D01*
X61877275Y-58030476D01*
X61840880Y-58400000D01*
X61877275Y-58769524D01*
X61985061Y-59124848D01*
X62160097Y-59452317D01*
X62395655Y-59739345D01*
X62682683Y-59974903D01*
X63010152Y-60149939D01*
X63365476Y-60257725D01*
X63642403Y-60285000D01*
X64327597Y-60285000D01*
X64604524Y-60257725D01*
X64959848Y-60149939D01*
X65287317Y-59974903D01*
X65574345Y-59739345D01*
X65809903Y-59452317D01*
X65984939Y-59124848D01*
X66092725Y-58769524D01*
X66129120Y-58400000D01*
X66092725Y-58030476D01*
X65984939Y-57675152D01*
X65809903Y-57347683D01*
X65678914Y-57188072D01*
X65845000Y-57188072D01*
X65907523Y-57185001D01*
X65908498Y-57184905D01*
X66031472Y-57160417D01*
X66032410Y-57160132D01*
X66147520Y-57112443D01*
X66148385Y-57111981D01*
X66252148Y-57042736D01*
X66252906Y-57042115D01*
X66342115Y-56952906D01*
X66342736Y-56952148D01*
X66411981Y-56848385D01*
X66412443Y-56847520D01*
X66460132Y-56732410D01*
X66460417Y-56731472D01*
X66483752Y-56614288D01*
X66489188Y-56669482D01*
X66525498Y-56789180D01*
X66584463Y-56899494D01*
X66663815Y-56996185D01*
X66760506Y-57075537D01*
X66870820Y-57134502D01*
X66990518Y-57170812D01*
X67115000Y-57183072D01*
X68385000Y-57183072D01*
X68509482Y-57170812D01*
X68629180Y-57134502D01*
X68739494Y-57075537D01*
X68836185Y-56996185D01*
X68915537Y-56899494D01*
X68974502Y-56789180D01*
X69010812Y-56669482D01*
X69020000Y-56576192D01*
X69029188Y-56669482D01*
X69065498Y-56789180D01*
X69124463Y-56899494D01*
X69203815Y-56996185D01*
X69300506Y-57075537D01*
X69410820Y-57134502D01*
X69530518Y-57170812D01*
X69655000Y-57183072D01*
X70925000Y-57183072D01*
X71049482Y-57170812D01*
X71169180Y-57134502D01*
X71279494Y-57075537D01*
X71376185Y-56996185D01*
X71455537Y-56899494D01*
X71514502Y-56789180D01*
X71550812Y-56669482D01*
X71560000Y-56576192D01*
X71569188Y-56669482D01*
X71605498Y-56789180D01*
X71664463Y-56899494D01*
X71743815Y-56996185D01*
X71840506Y-57075537D01*
X71950820Y-57134502D01*
X72070518Y-57170812D01*
X72195000Y-57183072D01*
X73465000Y-57183072D01*
X73589482Y-57170812D01*
X73709180Y-57134502D01*
X73819494Y-57075537D01*
X73916185Y-56996185D01*
X73995537Y-56899494D01*
X74054502Y-56789180D01*
X74090812Y-56669482D01*
X74100000Y-56576192D01*
X74109188Y-56669482D01*
X74145498Y-56789180D01*
X74204463Y-56899494D01*
X74283815Y-56996185D01*
X74380506Y-57075537D01*
X74490820Y-57134502D01*
X74610001Y-57170655D01*
X74610001Y-57247668D01*
X74606324Y-57285000D01*
X74610001Y-57322333D01*
X74619904Y-57422879D01*
X74485061Y-57675152D01*
X74377275Y-58030476D01*
X74340880Y-58400000D01*
X74377275Y-58769524D01*
X74485061Y-59124848D01*
X74660097Y-59452317D01*
X74895655Y-59739345D01*
X75182683Y-59974903D01*
X75510152Y-60149939D01*
X75865476Y-60257725D01*
X76142403Y-60285000D01*
X76827597Y-60285000D01*
X77104524Y-60257725D01*
X77459848Y-60149939D01*
X77787317Y-59974903D01*
X78074345Y-59739345D01*
X78309903Y-59452317D01*
X78484939Y-59124848D01*
X78490000Y-59108164D01*
X78495061Y-59124848D01*
X78670097Y-59452317D01*
X78905655Y-59739345D01*
X79192683Y-59974903D01*
X79520152Y-60149939D01*
X79875476Y-60257725D01*
X80152403Y-60285000D01*
X80837597Y-60285000D01*
X81114524Y-60257725D01*
X81469848Y-60149939D01*
X81797317Y-59974903D01*
X82084345Y-59739345D01*
X82319903Y-59452317D01*
X82494939Y-59124848D01*
X82602725Y-58769524D01*
X82639120Y-58400000D01*
X82602725Y-58030476D01*
X82494939Y-57675152D01*
X82319903Y-57347683D01*
X82156263Y-57148287D01*
X82230518Y-57170812D01*
X82355000Y-57183072D01*
X83625000Y-57183072D01*
X83749482Y-57170812D01*
X83869180Y-57134502D01*
X83979494Y-57075537D01*
X84076185Y-56996185D01*
X84155537Y-56899494D01*
X84214502Y-56789180D01*
X84250812Y-56669482D01*
X84260000Y-56576192D01*
X84269188Y-56669482D01*
X84305498Y-56789180D01*
X84364463Y-56899494D01*
X84443815Y-56996185D01*
X84540506Y-57075537D01*
X84650820Y-57134502D01*
X84770518Y-57170812D01*
X84895000Y-57183072D01*
X86165000Y-57183072D01*
X86289482Y-57170812D01*
X86409180Y-57134502D01*
X86519494Y-57075537D01*
X86616185Y-56996185D01*
X86695537Y-56899494D01*
X86754502Y-56789180D01*
X86790812Y-56669482D01*
X86800000Y-56576192D01*
X86809188Y-56669482D01*
X86845498Y-56789180D01*
X86904463Y-56899494D01*
X86983815Y-56996185D01*
X87080506Y-57075537D01*
X87190820Y-57134502D01*
X87310518Y-57170812D01*
X87435000Y-57183072D01*
X88705000Y-57183072D01*
X88829482Y-57170812D01*
X88949180Y-57134502D01*
X89059494Y-57075537D01*
X89156185Y-56996185D01*
X89235537Y-56899494D01*
X89294502Y-56789180D01*
X89330812Y-56669482D01*
X89340000Y-56576192D01*
X89349188Y-56669482D01*
X89385498Y-56789180D01*
X89444463Y-56899494D01*
X89523815Y-56996185D01*
X89620506Y-57075537D01*
X89730820Y-57134502D01*
X89850518Y-57170812D01*
X89975000Y-57183072D01*
X91245000Y-57183072D01*
X91310483Y-57176623D01*
X91170097Y-57347683D01*
X90995061Y-57675152D01*
X90887275Y-58030476D01*
X90850880Y-58400000D01*
X90887275Y-58769524D01*
X90995061Y-59124848D01*
X91170097Y-59452317D01*
X91405655Y-59739345D01*
X91692683Y-59974903D01*
X92020152Y-60149939D01*
X92375476Y-60257725D01*
X92652403Y-60285000D01*
X93337597Y-60285000D01*
X93514493Y-60267577D01*
X93425724Y-60315026D01*
X93309999Y-60409999D01*
X93286201Y-60438997D01*
X92484002Y-61241197D01*
X92454999Y-61264999D01*
X92399871Y-61332174D01*
X92360026Y-61380724D01*
X92317116Y-61461003D01*
X92289454Y-61512754D01*
X92270874Y-61574006D01*
X92020152Y-61650061D01*
X91692683Y-61825097D01*
X91405655Y-62060655D01*
X91170097Y-62347683D01*
X90995061Y-62675152D01*
X90887275Y-63030476D01*
X90850880Y-63400000D01*
X90887275Y-63769524D01*
X90995061Y-64124848D01*
X91170097Y-64452317D01*
X91405655Y-64739345D01*
X91692683Y-64974903D01*
X92020152Y-65149939D01*
X92235000Y-65215112D01*
X92235001Y-67840197D01*
X90685199Y-69390000D01*
X89777238Y-69390000D01*
X89775812Y-69375518D01*
X89739502Y-69255820D01*
X89680537Y-69145506D01*
X89601185Y-69048815D01*
X89504494Y-68969463D01*
X89394180Y-68910498D01*
X89274482Y-68874188D01*
X89150000Y-68861928D01*
X87650000Y-68861928D01*
X87525518Y-68874188D01*
X87405820Y-68910498D01*
X87295506Y-68969463D01*
X87198815Y-69048815D01*
X87119463Y-69145506D01*
X87060498Y-69255820D01*
X87050000Y-69290427D01*
X87039502Y-69255820D01*
X86980537Y-69145506D01*
X86901185Y-69048815D01*
X86804494Y-68969463D01*
X86694180Y-68910498D01*
X86574482Y-68874188D01*
X86450000Y-68861928D01*
X84950000Y-68861928D01*
X84825518Y-68874188D01*
X84705820Y-68910498D01*
X84595506Y-68969463D01*
X84498815Y-69048815D01*
X84419463Y-69145506D01*
X84360498Y-69255820D01*
X84324188Y-69375518D01*
X84322762Y-69390000D01*
X78487322Y-69390000D01*
X78450000Y-69386324D01*
X78412678Y-69390000D01*
X63264803Y-69390000D01*
X58810000Y-64935199D01*
X58810000Y-49864801D01*
X63364802Y-45310000D01*
X73835199Y-45310000D01*
X74610000Y-46084802D01*
G37*
%TD.AperFunction*%
D18*
X95702683Y-61825097D02*
X95415655Y-62060655D01*
X95180097Y-62347683D01*
X95005061Y-62675152D01*
X95000000Y-62691836D01*
X94994939Y-62675152D01*
X94819903Y-62347683D01*
X94584345Y-62060655D01*
X94297317Y-61825097D01*
X94135955Y-61738847D01*
X94164802Y-61710000D01*
X95918014Y-61710000D01*
X95702683Y-61825097D01*
%TA.AperFunction,NonConductor*%
D19*
G36*
X95702683Y-61825097D02*
G01*
X95415655Y-62060655D01*
X95180097Y-62347683D01*
X95005061Y-62675152D01*
X95000000Y-62691836D01*
X94994939Y-62675152D01*
X94819903Y-62347683D01*
X94584345Y-62060655D01*
X94297317Y-61825097D01*
X94135955Y-61738847D01*
X94164802Y-61710000D01*
X95918014Y-61710000D01*
X95702683Y-61825097D01*
G37*
%TD.AperFunction*%
D18*
X95005061Y-59124848D02*
X95180097Y-59452317D01*
X95415655Y-59739345D01*
X95702683Y-59974903D01*
X96030152Y-60149939D01*
X96162216Y-60190000D01*
X93887333Y-60190000D01*
X93850000Y-60186323D01*
X93849860Y-60186337D01*
X93969848Y-60149939D01*
X94297317Y-59974903D01*
X94584345Y-59739345D01*
X94819903Y-59452317D01*
X94994939Y-59124848D01*
X95000000Y-59108164D01*
X95005061Y-59124848D01*
%TA.AperFunction,NonConductor*%
D19*
G36*
X95005061Y-59124848D02*
G01*
X95180097Y-59452317D01*
X95415655Y-59739345D01*
X95702683Y-59974903D01*
X96030152Y-60149939D01*
X96162216Y-60190000D01*
X93887333Y-60190000D01*
X93850000Y-60186323D01*
X93849860Y-60186337D01*
X93969848Y-60149939D01*
X94297317Y-59974903D01*
X94584345Y-59739345D01*
X94819903Y-59452317D01*
X94994939Y-59124848D01*
X95000000Y-59108164D01*
X95005061Y-59124848D01*
G37*
%TD.AperFunction*%
D18*
X104589188Y-56669482D02*
X104625498Y-56789180D01*
X104684463Y-56899494D01*
X104763815Y-56996185D01*
X104860506Y-57075537D01*
X104970820Y-57134502D01*
X105090518Y-57170812D01*
X105215000Y-57183072D01*
X106485000Y-57183072D01*
X106609482Y-57170812D01*
X106729180Y-57134502D01*
X106732437Y-57132761D01*
X103675199Y-60190000D01*
X97847784Y-60190000D01*
X97979848Y-60149939D01*
X98307317Y-59974903D01*
X98594345Y-59739345D01*
X98829903Y-59452317D01*
X99004939Y-59124848D01*
X99112725Y-58769524D01*
X99149120Y-58400000D01*
X99112725Y-58030476D01*
X99004939Y-57675152D01*
X98914679Y-57506287D01*
X98935546Y-57467247D01*
X98979003Y-57323986D01*
X98990000Y-57212333D01*
X98993677Y-57175000D01*
X98993155Y-57169698D01*
X99109180Y-57134502D01*
X99219494Y-57075537D01*
X99316185Y-56996185D01*
X99395537Y-56899494D01*
X99454502Y-56789180D01*
X99490812Y-56669482D01*
X99500000Y-56576192D01*
X99509188Y-56669482D01*
X99545498Y-56789180D01*
X99604463Y-56899494D01*
X99683815Y-56996185D01*
X99780506Y-57075537D01*
X99890820Y-57134502D01*
X100010518Y-57170812D01*
X100135000Y-57183072D01*
X101405000Y-57183072D01*
X101529482Y-57170812D01*
X101649180Y-57134502D01*
X101759494Y-57075537D01*
X101856185Y-56996185D01*
X101935537Y-56899494D01*
X101994502Y-56789180D01*
X102030812Y-56669482D01*
X102040000Y-56576192D01*
X102049188Y-56669482D01*
X102085498Y-56789180D01*
X102144463Y-56899494D01*
X102223815Y-56996185D01*
X102320506Y-57075537D01*
X102430820Y-57134502D01*
X102550518Y-57170812D01*
X102675000Y-57183072D01*
X103945000Y-57183072D01*
X104069482Y-57170812D01*
X104189180Y-57134502D01*
X104299494Y-57075537D01*
X104396185Y-56996185D01*
X104475537Y-56899494D01*
X104534502Y-56789180D01*
X104570812Y-56669482D01*
X104580000Y-56576192D01*
X104589188Y-56669482D01*
%TA.AperFunction,NonConductor*%
D19*
G36*
X104589188Y-56669482D02*
G01*
X104625498Y-56789180D01*
X104684463Y-56899494D01*
X104763815Y-56996185D01*
X104860506Y-57075537D01*
X104970820Y-57134502D01*
X105090518Y-57170812D01*
X105215000Y-57183072D01*
X106485000Y-57183072D01*
X106609482Y-57170812D01*
X106729180Y-57134502D01*
X106732437Y-57132761D01*
X103675199Y-60190000D01*
X97847784Y-60190000D01*
X97979848Y-60149939D01*
X98307317Y-59974903D01*
X98594345Y-59739345D01*
X98829903Y-59452317D01*
X99004939Y-59124848D01*
X99112725Y-58769524D01*
X99149120Y-58400000D01*
X99112725Y-58030476D01*
X99004939Y-57675152D01*
X98914679Y-57506287D01*
X98935546Y-57467247D01*
X98979003Y-57323986D01*
X98990000Y-57212333D01*
X98993677Y-57175000D01*
X98993155Y-57169698D01*
X99109180Y-57134502D01*
X99219494Y-57075537D01*
X99316185Y-56996185D01*
X99395537Y-56899494D01*
X99454502Y-56789180D01*
X99490812Y-56669482D01*
X99500000Y-56576192D01*
X99509188Y-56669482D01*
X99545498Y-56789180D01*
X99604463Y-56899494D01*
X99683815Y-56996185D01*
X99780506Y-57075537D01*
X99890820Y-57134502D01*
X100010518Y-57170812D01*
X100135000Y-57183072D01*
X101405000Y-57183072D01*
X101529482Y-57170812D01*
X101649180Y-57134502D01*
X101759494Y-57075537D01*
X101856185Y-56996185D01*
X101935537Y-56899494D01*
X101994502Y-56789180D01*
X102030812Y-56669482D01*
X102040000Y-56576192D01*
X102049188Y-56669482D01*
X102085498Y-56789180D01*
X102144463Y-56899494D01*
X102223815Y-56996185D01*
X102320506Y-57075537D01*
X102430820Y-57134502D01*
X102550518Y-57170812D01*
X102675000Y-57183072D01*
X103945000Y-57183072D01*
X104069482Y-57170812D01*
X104189180Y-57134502D01*
X104299494Y-57075537D01*
X104396185Y-56996185D01*
X104475537Y-56899494D01*
X104534502Y-56789180D01*
X104570812Y-56669482D01*
X104580000Y-56576192D01*
X104589188Y-56669482D01*
G37*
%TD.AperFunction*%
D18*
X94429188Y-56669482D02*
X94465498Y-56789180D01*
X94524463Y-56899494D01*
X94603815Y-56996185D01*
X94700506Y-57075537D01*
X94810820Y-57134502D01*
X94930518Y-57170812D01*
X95055000Y-57183072D01*
X95315190Y-57183072D01*
X95180097Y-57347683D01*
X95005061Y-57675152D01*
X95000000Y-57691836D01*
X94994939Y-57675152D01*
X94819903Y-57347683D01*
X94584345Y-57060655D01*
X94337623Y-56858175D01*
X94374502Y-56789180D01*
X94410812Y-56669482D01*
X94420000Y-56576192D01*
X94429188Y-56669482D01*
%TA.AperFunction,NonConductor*%
D19*
G36*
X94429188Y-56669482D02*
G01*
X94465498Y-56789180D01*
X94524463Y-56899494D01*
X94603815Y-56996185D01*
X94700506Y-57075537D01*
X94810820Y-57134502D01*
X94930518Y-57170812D01*
X95055000Y-57183072D01*
X95315190Y-57183072D01*
X95180097Y-57347683D01*
X95005061Y-57675152D01*
X95000000Y-57691836D01*
X94994939Y-57675152D01*
X94819903Y-57347683D01*
X94584345Y-57060655D01*
X94337623Y-56858175D01*
X94374502Y-56789180D01*
X94410812Y-56669482D01*
X94420000Y-56576192D01*
X94429188Y-56669482D01*
G37*
%TD.AperFunction*%
D18*
X78670097Y-57347683D02*
X78495061Y-57675152D01*
X78490000Y-57691836D01*
X78484939Y-57675152D01*
X78309903Y-57347683D01*
X78174810Y-57183072D01*
X78545000Y-57183072D01*
X78669482Y-57170812D01*
X78789180Y-57134502D01*
X78888712Y-57081300D01*
X78670097Y-57347683D01*
%TA.AperFunction,NonConductor*%
D19*
G36*
X78670097Y-57347683D02*
G01*
X78495061Y-57675152D01*
X78490000Y-57691836D01*
X78484939Y-57675152D01*
X78309903Y-57347683D01*
X78174810Y-57183072D01*
X78545000Y-57183072D01*
X78669482Y-57170812D01*
X78789180Y-57134502D01*
X78888712Y-57081300D01*
X78670097Y-57347683D01*
G37*
%TD.AperFunction*%
D18*
X79189188Y-56669482D02*
X79225498Y-56789180D01*
X79233138Y-56803473D01*
X79192683Y-56825097D01*
X79020884Y-56966089D01*
X79075537Y-56899494D01*
X79134502Y-56789180D01*
X79170812Y-56669482D01*
X79180000Y-56576192D01*
X79189188Y-56669482D01*
%TA.AperFunction,NonConductor*%
D19*
G36*
X79189188Y-56669482D02*
G01*
X79225498Y-56789180D01*
X79233138Y-56803473D01*
X79192683Y-56825097D01*
X79020884Y-56966089D01*
X79075537Y-56899494D01*
X79134502Y-56789180D01*
X79170812Y-56669482D01*
X79180000Y-56576192D01*
X79189188Y-56669482D01*
G37*
%TD.AperFunction*%
D18*
X81729188Y-56669482D02*
X81765498Y-56789180D01*
X81779648Y-56815653D01*
X81682262Y-56763599D01*
X81710812Y-56669482D01*
X81720000Y-56576192D01*
X81729188Y-56669482D01*
%TA.AperFunction,NonConductor*%
D19*
G36*
X81729188Y-56669482D02*
G01*
X81765498Y-56789180D01*
X81779648Y-56815653D01*
X81682262Y-56763599D01*
X81710812Y-56669482D01*
X81720000Y-56576192D01*
X81729188Y-56669482D01*
G37*
%TD.AperFunction*%
D18*
X107138610Y-56726588D02*
X107072761Y-56792437D01*
X107074502Y-56789180D01*
X107110812Y-56669482D01*
X107116248Y-56614288D01*
X107138610Y-56726588D01*
%TA.AperFunction,NonConductor*%
D19*
G36*
X107138610Y-56726588D02*
G01*
X107072761Y-56792437D01*
X107074502Y-56789180D01*
X107110812Y-56669482D01*
X107116248Y-56614288D01*
X107138610Y-56726588D01*
G37*
%TD.AperFunction*%
D18*
X91889188Y-56669482D02*
X91902391Y-56713006D01*
X91848943Y-56741574D01*
X91870812Y-56669482D01*
X91880000Y-56576192D01*
X91889188Y-56669482D01*
%TA.AperFunction,NonConductor*%
D19*
G36*
X91889188Y-56669482D02*
G01*
X91902391Y-56713006D01*
X91848943Y-56741574D01*
X91870812Y-56669482D01*
X91880000Y-56576192D01*
X91889188Y-56669482D01*
G37*
%TD.AperFunction*%
D18*
X79189188Y-51719482D02*
X79225498Y-51839180D01*
X79284463Y-51949494D01*
X79363815Y-52046185D01*
X79460506Y-52125537D01*
X79570820Y-52184502D01*
X79690518Y-52220812D01*
X79783808Y-52230000D01*
X79690518Y-52239188D01*
X79570820Y-52275498D01*
X79460506Y-52334463D01*
X79363815Y-52413815D01*
X79284463Y-52510506D01*
X79225498Y-52620820D01*
X79189188Y-52740518D01*
X79180000Y-52833808D01*
X79170812Y-52740518D01*
X79134502Y-52620820D01*
X79075537Y-52510506D01*
X78996185Y-52413815D01*
X78899494Y-52334463D01*
X78789180Y-52275498D01*
X78669482Y-52239188D01*
X78576192Y-52230000D01*
X78669482Y-52220812D01*
X78789180Y-52184502D01*
X78899494Y-52125537D01*
X78996185Y-52046185D01*
X79075537Y-51949494D01*
X79134502Y-51839180D01*
X79170812Y-51719482D01*
X79180000Y-51626192D01*
X79189188Y-51719482D01*
%TA.AperFunction,NonConductor*%
D19*
G36*
X79189188Y-51719482D02*
G01*
X79225498Y-51839180D01*
X79284463Y-51949494D01*
X79363815Y-52046185D01*
X79460506Y-52125537D01*
X79570820Y-52184502D01*
X79690518Y-52220812D01*
X79783808Y-52230000D01*
X79690518Y-52239188D01*
X79570820Y-52275498D01*
X79460506Y-52334463D01*
X79363815Y-52413815D01*
X79284463Y-52510506D01*
X79225498Y-52620820D01*
X79189188Y-52740518D01*
X79180000Y-52833808D01*
X79170812Y-52740518D01*
X79134502Y-52620820D01*
X79075537Y-52510506D01*
X78996185Y-52413815D01*
X78899494Y-52334463D01*
X78789180Y-52275498D01*
X78669482Y-52239188D01*
X78576192Y-52230000D01*
X78669482Y-52220812D01*
X78789180Y-52184502D01*
X78899494Y-52125537D01*
X78996185Y-52046185D01*
X79075537Y-51949494D01*
X79134502Y-51839180D01*
X79170812Y-51719482D01*
X79180000Y-51626192D01*
X79189188Y-51719482D01*
G37*
%TD.AperFunction*%
D18*
X76649188Y-51719482D02*
X76685498Y-51839180D01*
X76744463Y-51949494D01*
X76823815Y-52046185D01*
X76920506Y-52125537D01*
X77030820Y-52184502D01*
X77150518Y-52220812D01*
X77243808Y-52230000D01*
X77150518Y-52239188D01*
X77030820Y-52275498D01*
X76920506Y-52334463D01*
X76823815Y-52413815D01*
X76744463Y-52510506D01*
X76685498Y-52620820D01*
X76649188Y-52740518D01*
X76640000Y-52833808D01*
X76630812Y-52740518D01*
X76594502Y-52620820D01*
X76535537Y-52510506D01*
X76456185Y-52413815D01*
X76359494Y-52334463D01*
X76249180Y-52275498D01*
X76129482Y-52239188D01*
X76036192Y-52230000D01*
X76129482Y-52220812D01*
X76249180Y-52184502D01*
X76359494Y-52125537D01*
X76456185Y-52046185D01*
X76535537Y-51949494D01*
X76594502Y-51839180D01*
X76630812Y-51719482D01*
X76640000Y-51626192D01*
X76649188Y-51719482D01*
%TA.AperFunction,NonConductor*%
D19*
G36*
X76649188Y-51719482D02*
G01*
X76685498Y-51839180D01*
X76744463Y-51949494D01*
X76823815Y-52046185D01*
X76920506Y-52125537D01*
X77030820Y-52184502D01*
X77150518Y-52220812D01*
X77243808Y-52230000D01*
X77150518Y-52239188D01*
X77030820Y-52275498D01*
X76920506Y-52334463D01*
X76823815Y-52413815D01*
X76744463Y-52510506D01*
X76685498Y-52620820D01*
X76649188Y-52740518D01*
X76640000Y-52833808D01*
X76630812Y-52740518D01*
X76594502Y-52620820D01*
X76535537Y-52510506D01*
X76456185Y-52413815D01*
X76359494Y-52334463D01*
X76249180Y-52275498D01*
X76129482Y-52239188D01*
X76036192Y-52230000D01*
X76129482Y-52220812D01*
X76249180Y-52184502D01*
X76359494Y-52125537D01*
X76456185Y-52046185D01*
X76535537Y-51949494D01*
X76594502Y-51839180D01*
X76630812Y-51719482D01*
X76640000Y-51626192D01*
X76649188Y-51719482D01*
G37*
%TD.AperFunction*%
D18*
X74109188Y-51719482D02*
X74145498Y-51839180D01*
X74204463Y-51949494D01*
X74283815Y-52046185D01*
X74380506Y-52125537D01*
X74490820Y-52184502D01*
X74610518Y-52220812D01*
X74703808Y-52230000D01*
X74610518Y-52239188D01*
X74490820Y-52275498D01*
X74380506Y-52334463D01*
X74283815Y-52413815D01*
X74204463Y-52510506D01*
X74145498Y-52620820D01*
X74109188Y-52740518D01*
X74100000Y-52833808D01*
X74090812Y-52740518D01*
X74054502Y-52620820D01*
X73995537Y-52510506D01*
X73916185Y-52413815D01*
X73819494Y-52334463D01*
X73709180Y-52275498D01*
X73589482Y-52239188D01*
X73496192Y-52230000D01*
X73589482Y-52220812D01*
X73709180Y-52184502D01*
X73819494Y-52125537D01*
X73916185Y-52046185D01*
X73995537Y-51949494D01*
X74054502Y-51839180D01*
X74090812Y-51719482D01*
X74100000Y-51626192D01*
X74109188Y-51719482D01*
%TA.AperFunction,NonConductor*%
D19*
G36*
X74109188Y-51719482D02*
G01*
X74145498Y-51839180D01*
X74204463Y-51949494D01*
X74283815Y-52046185D01*
X74380506Y-52125537D01*
X74490820Y-52184502D01*
X74610518Y-52220812D01*
X74703808Y-52230000D01*
X74610518Y-52239188D01*
X74490820Y-52275498D01*
X74380506Y-52334463D01*
X74283815Y-52413815D01*
X74204463Y-52510506D01*
X74145498Y-52620820D01*
X74109188Y-52740518D01*
X74100000Y-52833808D01*
X74090812Y-52740518D01*
X74054502Y-52620820D01*
X73995537Y-52510506D01*
X73916185Y-52413815D01*
X73819494Y-52334463D01*
X73709180Y-52275498D01*
X73589482Y-52239188D01*
X73496192Y-52230000D01*
X73589482Y-52220812D01*
X73709180Y-52184502D01*
X73819494Y-52125537D01*
X73916185Y-52046185D01*
X73995537Y-51949494D01*
X74054502Y-51839180D01*
X74090812Y-51719482D01*
X74100000Y-51626192D01*
X74109188Y-51719482D01*
G37*
%TD.AperFunction*%
D18*
X89349188Y-51719482D02*
X89385498Y-51839180D01*
X89444463Y-51949494D01*
X89523815Y-52046185D01*
X89620506Y-52125537D01*
X89730820Y-52184502D01*
X89850518Y-52220812D01*
X89943808Y-52230000D01*
X89850518Y-52239188D01*
X89730820Y-52275498D01*
X89620506Y-52334463D01*
X89523815Y-52413815D01*
X89444463Y-52510506D01*
X89385498Y-52620820D01*
X89349188Y-52740518D01*
X89340000Y-52833808D01*
X89330812Y-52740518D01*
X89294502Y-52620820D01*
X89235537Y-52510506D01*
X89156185Y-52413815D01*
X89059494Y-52334463D01*
X88949180Y-52275498D01*
X88829482Y-52239188D01*
X88736192Y-52230000D01*
X88829482Y-52220812D01*
X88949180Y-52184502D01*
X89059494Y-52125537D01*
X89156185Y-52046185D01*
X89235537Y-51949494D01*
X89294502Y-51839180D01*
X89330812Y-51719482D01*
X89340000Y-51626192D01*
X89349188Y-51719482D01*
%TA.AperFunction,NonConductor*%
D19*
G36*
X89349188Y-51719482D02*
G01*
X89385498Y-51839180D01*
X89444463Y-51949494D01*
X89523815Y-52046185D01*
X89620506Y-52125537D01*
X89730820Y-52184502D01*
X89850518Y-52220812D01*
X89943808Y-52230000D01*
X89850518Y-52239188D01*
X89730820Y-52275498D01*
X89620506Y-52334463D01*
X89523815Y-52413815D01*
X89444463Y-52510506D01*
X89385498Y-52620820D01*
X89349188Y-52740518D01*
X89340000Y-52833808D01*
X89330812Y-52740518D01*
X89294502Y-52620820D01*
X89235537Y-52510506D01*
X89156185Y-52413815D01*
X89059494Y-52334463D01*
X88949180Y-52275498D01*
X88829482Y-52239188D01*
X88736192Y-52230000D01*
X88829482Y-52220812D01*
X88949180Y-52184502D01*
X89059494Y-52125537D01*
X89156185Y-52046185D01*
X89235537Y-51949494D01*
X89294502Y-51839180D01*
X89330812Y-51719482D01*
X89340000Y-51626192D01*
X89349188Y-51719482D01*
G37*
%TD.AperFunction*%
D18*
X104589188Y-51719482D02*
X104625498Y-51839180D01*
X104684463Y-51949494D01*
X104763815Y-52046185D01*
X104860506Y-52125537D01*
X104970820Y-52184502D01*
X105090518Y-52220812D01*
X105183808Y-52230000D01*
X105090518Y-52239188D01*
X104970820Y-52275498D01*
X104860506Y-52334463D01*
X104763815Y-52413815D01*
X104684463Y-52510506D01*
X104625498Y-52620820D01*
X104589188Y-52740518D01*
X104580000Y-52833808D01*
X104570812Y-52740518D01*
X104534502Y-52620820D01*
X104475537Y-52510506D01*
X104396185Y-52413815D01*
X104299494Y-52334463D01*
X104189180Y-52275498D01*
X104069482Y-52239188D01*
X103976192Y-52230000D01*
X104069482Y-52220812D01*
X104189180Y-52184502D01*
X104299494Y-52125537D01*
X104396185Y-52046185D01*
X104475537Y-51949494D01*
X104534502Y-51839180D01*
X104570812Y-51719482D01*
X104580000Y-51626192D01*
X104589188Y-51719482D01*
%TA.AperFunction,NonConductor*%
D19*
G36*
X104589188Y-51719482D02*
G01*
X104625498Y-51839180D01*
X104684463Y-51949494D01*
X104763815Y-52046185D01*
X104860506Y-52125537D01*
X104970820Y-52184502D01*
X105090518Y-52220812D01*
X105183808Y-52230000D01*
X105090518Y-52239188D01*
X104970820Y-52275498D01*
X104860506Y-52334463D01*
X104763815Y-52413815D01*
X104684463Y-52510506D01*
X104625498Y-52620820D01*
X104589188Y-52740518D01*
X104580000Y-52833808D01*
X104570812Y-52740518D01*
X104534502Y-52620820D01*
X104475537Y-52510506D01*
X104396185Y-52413815D01*
X104299494Y-52334463D01*
X104189180Y-52275498D01*
X104069482Y-52239188D01*
X103976192Y-52230000D01*
X104069482Y-52220812D01*
X104189180Y-52184502D01*
X104299494Y-52125537D01*
X104396185Y-52046185D01*
X104475537Y-51949494D01*
X104534502Y-51839180D01*
X104570812Y-51719482D01*
X104580000Y-51626192D01*
X104589188Y-51719482D01*
G37*
%TD.AperFunction*%
D18*
X84269188Y-51719482D02*
X84305498Y-51839180D01*
X84364463Y-51949494D01*
X84443815Y-52046185D01*
X84540506Y-52125537D01*
X84650820Y-52184502D01*
X84770518Y-52220812D01*
X84863808Y-52230000D01*
X84770518Y-52239188D01*
X84650820Y-52275498D01*
X84540506Y-52334463D01*
X84443815Y-52413815D01*
X84364463Y-52510506D01*
X84305498Y-52620820D01*
X84269188Y-52740518D01*
X84260000Y-52833808D01*
X84250812Y-52740518D01*
X84214502Y-52620820D01*
X84155537Y-52510506D01*
X84076185Y-52413815D01*
X83979494Y-52334463D01*
X83869180Y-52275498D01*
X83749482Y-52239188D01*
X83656192Y-52230000D01*
X83749482Y-52220812D01*
X83869180Y-52184502D01*
X83979494Y-52125537D01*
X84076185Y-52046185D01*
X84155537Y-51949494D01*
X84214502Y-51839180D01*
X84250812Y-51719482D01*
X84260000Y-51626192D01*
X84269188Y-51719482D01*
%TA.AperFunction,NonConductor*%
D19*
G36*
X84269188Y-51719482D02*
G01*
X84305498Y-51839180D01*
X84364463Y-51949494D01*
X84443815Y-52046185D01*
X84540506Y-52125537D01*
X84650820Y-52184502D01*
X84770518Y-52220812D01*
X84863808Y-52230000D01*
X84770518Y-52239188D01*
X84650820Y-52275498D01*
X84540506Y-52334463D01*
X84443815Y-52413815D01*
X84364463Y-52510506D01*
X84305498Y-52620820D01*
X84269188Y-52740518D01*
X84260000Y-52833808D01*
X84250812Y-52740518D01*
X84214502Y-52620820D01*
X84155537Y-52510506D01*
X84076185Y-52413815D01*
X83979494Y-52334463D01*
X83869180Y-52275498D01*
X83749482Y-52239188D01*
X83656192Y-52230000D01*
X83749482Y-52220812D01*
X83869180Y-52184502D01*
X83979494Y-52125537D01*
X84076185Y-52046185D01*
X84155537Y-51949494D01*
X84214502Y-51839180D01*
X84250812Y-51719482D01*
X84260000Y-51626192D01*
X84269188Y-51719482D01*
G37*
%TD.AperFunction*%
D18*
X86809188Y-51719482D02*
X86845498Y-51839180D01*
X86904463Y-51949494D01*
X86983815Y-52046185D01*
X87080506Y-52125537D01*
X87190820Y-52184502D01*
X87310518Y-52220812D01*
X87403808Y-52230000D01*
X87310518Y-52239188D01*
X87190820Y-52275498D01*
X87080506Y-52334463D01*
X86983815Y-52413815D01*
X86904463Y-52510506D01*
X86845498Y-52620820D01*
X86809188Y-52740518D01*
X86800000Y-52833808D01*
X86790812Y-52740518D01*
X86754502Y-52620820D01*
X86695537Y-52510506D01*
X86616185Y-52413815D01*
X86519494Y-52334463D01*
X86409180Y-52275498D01*
X86289482Y-52239188D01*
X86196192Y-52230000D01*
X86289482Y-52220812D01*
X86409180Y-52184502D01*
X86519494Y-52125537D01*
X86616185Y-52046185D01*
X86695537Y-51949494D01*
X86754502Y-51839180D01*
X86790812Y-51719482D01*
X86800000Y-51626192D01*
X86809188Y-51719482D01*
%TA.AperFunction,NonConductor*%
D19*
G36*
X86809188Y-51719482D02*
G01*
X86845498Y-51839180D01*
X86904463Y-51949494D01*
X86983815Y-52046185D01*
X87080506Y-52125537D01*
X87190820Y-52184502D01*
X87310518Y-52220812D01*
X87403808Y-52230000D01*
X87310518Y-52239188D01*
X87190820Y-52275498D01*
X87080506Y-52334463D01*
X86983815Y-52413815D01*
X86904463Y-52510506D01*
X86845498Y-52620820D01*
X86809188Y-52740518D01*
X86800000Y-52833808D01*
X86790812Y-52740518D01*
X86754502Y-52620820D01*
X86695537Y-52510506D01*
X86616185Y-52413815D01*
X86519494Y-52334463D01*
X86409180Y-52275498D01*
X86289482Y-52239188D01*
X86196192Y-52230000D01*
X86289482Y-52220812D01*
X86409180Y-52184502D01*
X86519494Y-52125537D01*
X86616185Y-52046185D01*
X86695537Y-51949494D01*
X86754502Y-51839180D01*
X86790812Y-51719482D01*
X86800000Y-51626192D01*
X86809188Y-51719482D01*
G37*
%TD.AperFunction*%
D18*
X91889188Y-51719482D02*
X91925498Y-51839180D01*
X91984463Y-51949494D01*
X92063815Y-52046185D01*
X92160506Y-52125537D01*
X92270820Y-52184502D01*
X92390518Y-52220812D01*
X92483808Y-52230000D01*
X92390518Y-52239188D01*
X92270820Y-52275498D01*
X92160506Y-52334463D01*
X92063815Y-52413815D01*
X91984463Y-52510506D01*
X91925498Y-52620820D01*
X91889188Y-52740518D01*
X91880000Y-52833808D01*
X91870812Y-52740518D01*
X91834502Y-52620820D01*
X91775537Y-52510506D01*
X91696185Y-52413815D01*
X91599494Y-52334463D01*
X91489180Y-52275498D01*
X91369482Y-52239188D01*
X91276192Y-52230000D01*
X91369482Y-52220812D01*
X91489180Y-52184502D01*
X91599494Y-52125537D01*
X91696185Y-52046185D01*
X91775537Y-51949494D01*
X91834502Y-51839180D01*
X91870812Y-51719482D01*
X91880000Y-51626192D01*
X91889188Y-51719482D01*
%TA.AperFunction,NonConductor*%
D19*
G36*
X91889188Y-51719482D02*
G01*
X91925498Y-51839180D01*
X91984463Y-51949494D01*
X92063815Y-52046185D01*
X92160506Y-52125537D01*
X92270820Y-52184502D01*
X92390518Y-52220812D01*
X92483808Y-52230000D01*
X92390518Y-52239188D01*
X92270820Y-52275498D01*
X92160506Y-52334463D01*
X92063815Y-52413815D01*
X91984463Y-52510506D01*
X91925498Y-52620820D01*
X91889188Y-52740518D01*
X91880000Y-52833808D01*
X91870812Y-52740518D01*
X91834502Y-52620820D01*
X91775537Y-52510506D01*
X91696185Y-52413815D01*
X91599494Y-52334463D01*
X91489180Y-52275498D01*
X91369482Y-52239188D01*
X91276192Y-52230000D01*
X91369482Y-52220812D01*
X91489180Y-52184502D01*
X91599494Y-52125537D01*
X91696185Y-52046185D01*
X91775537Y-51949494D01*
X91834502Y-51839180D01*
X91870812Y-51719482D01*
X91880000Y-51626192D01*
X91889188Y-51719482D01*
G37*
%TD.AperFunction*%
D18*
X94429188Y-51719482D02*
X94465498Y-51839180D01*
X94524463Y-51949494D01*
X94603815Y-52046185D01*
X94700506Y-52125537D01*
X94810820Y-52184502D01*
X94930518Y-52220812D01*
X95023808Y-52230000D01*
X94930518Y-52239188D01*
X94810820Y-52275498D01*
X94700506Y-52334463D01*
X94603815Y-52413815D01*
X94524463Y-52510506D01*
X94465498Y-52620820D01*
X94429188Y-52740518D01*
X94420000Y-52833808D01*
X94410812Y-52740518D01*
X94374502Y-52620820D01*
X94315537Y-52510506D01*
X94236185Y-52413815D01*
X94139494Y-52334463D01*
X94029180Y-52275498D01*
X93909482Y-52239188D01*
X93816192Y-52230000D01*
X93909482Y-52220812D01*
X94029180Y-52184502D01*
X94139494Y-52125537D01*
X94236185Y-52046185D01*
X94315537Y-51949494D01*
X94374502Y-51839180D01*
X94410812Y-51719482D01*
X94420000Y-51626192D01*
X94429188Y-51719482D01*
%TA.AperFunction,NonConductor*%
D19*
G36*
X94429188Y-51719482D02*
G01*
X94465498Y-51839180D01*
X94524463Y-51949494D01*
X94603815Y-52046185D01*
X94700506Y-52125537D01*
X94810820Y-52184502D01*
X94930518Y-52220812D01*
X95023808Y-52230000D01*
X94930518Y-52239188D01*
X94810820Y-52275498D01*
X94700506Y-52334463D01*
X94603815Y-52413815D01*
X94524463Y-52510506D01*
X94465498Y-52620820D01*
X94429188Y-52740518D01*
X94420000Y-52833808D01*
X94410812Y-52740518D01*
X94374502Y-52620820D01*
X94315537Y-52510506D01*
X94236185Y-52413815D01*
X94139494Y-52334463D01*
X94029180Y-52275498D01*
X93909482Y-52239188D01*
X93816192Y-52230000D01*
X93909482Y-52220812D01*
X94029180Y-52184502D01*
X94139494Y-52125537D01*
X94236185Y-52046185D01*
X94315537Y-51949494D01*
X94374502Y-51839180D01*
X94410812Y-51719482D01*
X94420000Y-51626192D01*
X94429188Y-51719482D01*
G37*
%TD.AperFunction*%
D18*
X96969188Y-51719482D02*
X97005498Y-51839180D01*
X97064463Y-51949494D01*
X97143815Y-52046185D01*
X97240506Y-52125537D01*
X97350820Y-52184502D01*
X97470518Y-52220812D01*
X97563808Y-52230000D01*
X97470518Y-52239188D01*
X97350820Y-52275498D01*
X97240506Y-52334463D01*
X97143815Y-52413815D01*
X97064463Y-52510506D01*
X97005498Y-52620820D01*
X96969188Y-52740518D01*
X96960000Y-52833808D01*
X96950812Y-52740518D01*
X96914502Y-52620820D01*
X96855537Y-52510506D01*
X96776185Y-52413815D01*
X96679494Y-52334463D01*
X96569180Y-52275498D01*
X96449482Y-52239188D01*
X96356192Y-52230000D01*
X96449482Y-52220812D01*
X96569180Y-52184502D01*
X96679494Y-52125537D01*
X96776185Y-52046185D01*
X96855537Y-51949494D01*
X96914502Y-51839180D01*
X96950812Y-51719482D01*
X96960000Y-51626192D01*
X96969188Y-51719482D01*
%TA.AperFunction,NonConductor*%
D19*
G36*
X96969188Y-51719482D02*
G01*
X97005498Y-51839180D01*
X97064463Y-51949494D01*
X97143815Y-52046185D01*
X97240506Y-52125537D01*
X97350820Y-52184502D01*
X97470518Y-52220812D01*
X97563808Y-52230000D01*
X97470518Y-52239188D01*
X97350820Y-52275498D01*
X97240506Y-52334463D01*
X97143815Y-52413815D01*
X97064463Y-52510506D01*
X97005498Y-52620820D01*
X96969188Y-52740518D01*
X96960000Y-52833808D01*
X96950812Y-52740518D01*
X96914502Y-52620820D01*
X96855537Y-52510506D01*
X96776185Y-52413815D01*
X96679494Y-52334463D01*
X96569180Y-52275498D01*
X96449482Y-52239188D01*
X96356192Y-52230000D01*
X96449482Y-52220812D01*
X96569180Y-52184502D01*
X96679494Y-52125537D01*
X96776185Y-52046185D01*
X96855537Y-51949494D01*
X96914502Y-51839180D01*
X96950812Y-51719482D01*
X96960000Y-51626192D01*
X96969188Y-51719482D01*
G37*
%TD.AperFunction*%
D18*
X99509188Y-51719482D02*
X99545498Y-51839180D01*
X99604463Y-51949494D01*
X99683815Y-52046185D01*
X99780506Y-52125537D01*
X99890820Y-52184502D01*
X100010518Y-52220812D01*
X100103808Y-52230000D01*
X100010518Y-52239188D01*
X99890820Y-52275498D01*
X99780506Y-52334463D01*
X99683815Y-52413815D01*
X99604463Y-52510506D01*
X99545498Y-52620820D01*
X99509188Y-52740518D01*
X99500000Y-52833808D01*
X99490812Y-52740518D01*
X99454502Y-52620820D01*
X99395537Y-52510506D01*
X99316185Y-52413815D01*
X99219494Y-52334463D01*
X99109180Y-52275498D01*
X98989482Y-52239188D01*
X98896192Y-52230000D01*
X98989482Y-52220812D01*
X99109180Y-52184502D01*
X99219494Y-52125537D01*
X99316185Y-52046185D01*
X99395537Y-51949494D01*
X99454502Y-51839180D01*
X99490812Y-51719482D01*
X99500000Y-51626192D01*
X99509188Y-51719482D01*
%TA.AperFunction,NonConductor*%
D19*
G36*
X99509188Y-51719482D02*
G01*
X99545498Y-51839180D01*
X99604463Y-51949494D01*
X99683815Y-52046185D01*
X99780506Y-52125537D01*
X99890820Y-52184502D01*
X100010518Y-52220812D01*
X100103808Y-52230000D01*
X100010518Y-52239188D01*
X99890820Y-52275498D01*
X99780506Y-52334463D01*
X99683815Y-52413815D01*
X99604463Y-52510506D01*
X99545498Y-52620820D01*
X99509188Y-52740518D01*
X99500000Y-52833808D01*
X99490812Y-52740518D01*
X99454502Y-52620820D01*
X99395537Y-52510506D01*
X99316185Y-52413815D01*
X99219494Y-52334463D01*
X99109180Y-52275498D01*
X98989482Y-52239188D01*
X98896192Y-52230000D01*
X98989482Y-52220812D01*
X99109180Y-52184502D01*
X99219494Y-52125537D01*
X99316185Y-52046185D01*
X99395537Y-51949494D01*
X99454502Y-51839180D01*
X99490812Y-51719482D01*
X99500000Y-51626192D01*
X99509188Y-51719482D01*
G37*
%TD.AperFunction*%
D18*
X102049188Y-51719482D02*
X102085498Y-51839180D01*
X102144463Y-51949494D01*
X102223815Y-52046185D01*
X102320506Y-52125537D01*
X102430820Y-52184502D01*
X102550518Y-52220812D01*
X102643808Y-52230000D01*
X102550518Y-52239188D01*
X102430820Y-52275498D01*
X102320506Y-52334463D01*
X102223815Y-52413815D01*
X102144463Y-52510506D01*
X102085498Y-52620820D01*
X102049188Y-52740518D01*
X102040000Y-52833808D01*
X102030812Y-52740518D01*
X101994502Y-52620820D01*
X101935537Y-52510506D01*
X101856185Y-52413815D01*
X101759494Y-52334463D01*
X101649180Y-52275498D01*
X101529482Y-52239188D01*
X101436192Y-52230000D01*
X101529482Y-52220812D01*
X101649180Y-52184502D01*
X101759494Y-52125537D01*
X101856185Y-52046185D01*
X101935537Y-51949494D01*
X101994502Y-51839180D01*
X102030812Y-51719482D01*
X102040000Y-51626192D01*
X102049188Y-51719482D01*
%TA.AperFunction,NonConductor*%
D19*
G36*
X102049188Y-51719482D02*
G01*
X102085498Y-51839180D01*
X102144463Y-51949494D01*
X102223815Y-52046185D01*
X102320506Y-52125537D01*
X102430820Y-52184502D01*
X102550518Y-52220812D01*
X102643808Y-52230000D01*
X102550518Y-52239188D01*
X102430820Y-52275498D01*
X102320506Y-52334463D01*
X102223815Y-52413815D01*
X102144463Y-52510506D01*
X102085498Y-52620820D01*
X102049188Y-52740518D01*
X102040000Y-52833808D01*
X102030812Y-52740518D01*
X101994502Y-52620820D01*
X101935537Y-52510506D01*
X101856185Y-52413815D01*
X101759494Y-52334463D01*
X101649180Y-52275498D01*
X101529482Y-52239188D01*
X101436192Y-52230000D01*
X101529482Y-52220812D01*
X101649180Y-52184502D01*
X101759494Y-52125537D01*
X101856185Y-52046185D01*
X101935537Y-51949494D01*
X101994502Y-51839180D01*
X102030812Y-51719482D01*
X102040000Y-51626192D01*
X102049188Y-51719482D01*
G37*
%TD.AperFunction*%
D18*
X71569188Y-51719482D02*
X71605498Y-51839180D01*
X71664463Y-51949494D01*
X71743815Y-52046185D01*
X71840506Y-52125537D01*
X71950820Y-52184502D01*
X72070518Y-52220812D01*
X72163808Y-52230000D01*
X72070518Y-52239188D01*
X71950820Y-52275498D01*
X71840506Y-52334463D01*
X71743815Y-52413815D01*
X71664463Y-52510506D01*
X71605498Y-52620820D01*
X71569188Y-52740518D01*
X71560000Y-52833808D01*
X71550812Y-52740518D01*
X71514502Y-52620820D01*
X71455537Y-52510506D01*
X71376185Y-52413815D01*
X71279494Y-52334463D01*
X71169180Y-52275498D01*
X71049482Y-52239188D01*
X70956192Y-52230000D01*
X71049482Y-52220812D01*
X71169180Y-52184502D01*
X71279494Y-52125537D01*
X71376185Y-52046185D01*
X71455537Y-51949494D01*
X71514502Y-51839180D01*
X71550812Y-51719482D01*
X71560000Y-51626192D01*
X71569188Y-51719482D01*
%TA.AperFunction,NonConductor*%
D19*
G36*
X71569188Y-51719482D02*
G01*
X71605498Y-51839180D01*
X71664463Y-51949494D01*
X71743815Y-52046185D01*
X71840506Y-52125537D01*
X71950820Y-52184502D01*
X72070518Y-52220812D01*
X72163808Y-52230000D01*
X72070518Y-52239188D01*
X71950820Y-52275498D01*
X71840506Y-52334463D01*
X71743815Y-52413815D01*
X71664463Y-52510506D01*
X71605498Y-52620820D01*
X71569188Y-52740518D01*
X71560000Y-52833808D01*
X71550812Y-52740518D01*
X71514502Y-52620820D01*
X71455537Y-52510506D01*
X71376185Y-52413815D01*
X71279494Y-52334463D01*
X71169180Y-52275498D01*
X71049482Y-52239188D01*
X70956192Y-52230000D01*
X71049482Y-52220812D01*
X71169180Y-52184502D01*
X71279494Y-52125537D01*
X71376185Y-52046185D01*
X71455537Y-51949494D01*
X71514502Y-51839180D01*
X71550812Y-51719482D01*
X71560000Y-51626192D01*
X71569188Y-51719482D01*
G37*
%TD.AperFunction*%
D18*
X81729188Y-51719482D02*
X81765498Y-51839180D01*
X81824463Y-51949494D01*
X81903815Y-52046185D01*
X82000506Y-52125537D01*
X82110820Y-52184502D01*
X82230518Y-52220812D01*
X82323808Y-52230000D01*
X82230518Y-52239188D01*
X82110820Y-52275498D01*
X82000506Y-52334463D01*
X81903815Y-52413815D01*
X81824463Y-52510506D01*
X81765498Y-52620820D01*
X81729188Y-52740518D01*
X81720000Y-52833808D01*
X81710812Y-52740518D01*
X81674502Y-52620820D01*
X81615537Y-52510506D01*
X81536185Y-52413815D01*
X81439494Y-52334463D01*
X81329180Y-52275498D01*
X81209482Y-52239188D01*
X81116192Y-52230000D01*
X81209482Y-52220812D01*
X81329180Y-52184502D01*
X81439494Y-52125537D01*
X81536185Y-52046185D01*
X81615537Y-51949494D01*
X81674502Y-51839180D01*
X81710812Y-51719482D01*
X81720000Y-51626192D01*
X81729188Y-51719482D01*
%TA.AperFunction,NonConductor*%
D19*
G36*
X81729188Y-51719482D02*
G01*
X81765498Y-51839180D01*
X81824463Y-51949494D01*
X81903815Y-52046185D01*
X82000506Y-52125537D01*
X82110820Y-52184502D01*
X82230518Y-52220812D01*
X82323808Y-52230000D01*
X82230518Y-52239188D01*
X82110820Y-52275498D01*
X82000506Y-52334463D01*
X81903815Y-52413815D01*
X81824463Y-52510506D01*
X81765498Y-52620820D01*
X81729188Y-52740518D01*
X81720000Y-52833808D01*
X81710812Y-52740518D01*
X81674502Y-52620820D01*
X81615537Y-52510506D01*
X81536185Y-52413815D01*
X81439494Y-52334463D01*
X81329180Y-52275498D01*
X81209482Y-52239188D01*
X81116192Y-52230000D01*
X81209482Y-52220812D01*
X81329180Y-52184502D01*
X81439494Y-52125537D01*
X81536185Y-52046185D01*
X81615537Y-51949494D01*
X81674502Y-51839180D01*
X81710812Y-51719482D01*
X81720000Y-51626192D01*
X81729188Y-51719482D01*
G37*
%TD.AperFunction*%
D18*
X69029188Y-51719482D02*
X69065498Y-51839180D01*
X69124463Y-51949494D01*
X69203815Y-52046185D01*
X69300506Y-52125537D01*
X69410820Y-52184502D01*
X69530518Y-52220812D01*
X69623808Y-52230000D01*
X69530518Y-52239188D01*
X69410820Y-52275498D01*
X69300506Y-52334463D01*
X69203815Y-52413815D01*
X69124463Y-52510506D01*
X69065498Y-52620820D01*
X69029188Y-52740518D01*
X69020000Y-52833808D01*
X69010812Y-52740518D01*
X68974502Y-52620820D01*
X68915537Y-52510506D01*
X68836185Y-52413815D01*
X68739494Y-52334463D01*
X68629180Y-52275498D01*
X68509482Y-52239188D01*
X68416192Y-52230000D01*
X68509482Y-52220812D01*
X68629180Y-52184502D01*
X68739494Y-52125537D01*
X68836185Y-52046185D01*
X68915537Y-51949494D01*
X68974502Y-51839180D01*
X69010812Y-51719482D01*
X69020000Y-51626192D01*
X69029188Y-51719482D01*
%TA.AperFunction,NonConductor*%
D19*
G36*
X69029188Y-51719482D02*
G01*
X69065498Y-51839180D01*
X69124463Y-51949494D01*
X69203815Y-52046185D01*
X69300506Y-52125537D01*
X69410820Y-52184502D01*
X69530518Y-52220812D01*
X69623808Y-52230000D01*
X69530518Y-52239188D01*
X69410820Y-52275498D01*
X69300506Y-52334463D01*
X69203815Y-52413815D01*
X69124463Y-52510506D01*
X69065498Y-52620820D01*
X69029188Y-52740518D01*
X69020000Y-52833808D01*
X69010812Y-52740518D01*
X68974502Y-52620820D01*
X68915537Y-52510506D01*
X68836185Y-52413815D01*
X68739494Y-52334463D01*
X68629180Y-52275498D01*
X68509482Y-52239188D01*
X68416192Y-52230000D01*
X68509482Y-52220812D01*
X68629180Y-52184502D01*
X68739494Y-52125537D01*
X68836185Y-52046185D01*
X68915537Y-51949494D01*
X68974502Y-51839180D01*
X69010812Y-51719482D01*
X69020000Y-51626192D01*
X69029188Y-51719482D01*
G37*
%TD.AperFunction*%
D18*
X107139583Y-51781472D02*
X107139868Y-51782410D01*
X107187557Y-51897520D01*
X107188019Y-51898385D01*
X107257264Y-52002148D01*
X107257885Y-52002906D01*
X107347094Y-52092115D01*
X107347852Y-52092736D01*
X107451615Y-52161981D01*
X107452480Y-52162443D01*
X107567590Y-52210132D01*
X107568528Y-52210417D01*
X107666870Y-52230000D01*
X107568528Y-52249583D01*
X107567590Y-52249868D01*
X107452480Y-52297557D01*
X107451615Y-52298019D01*
X107347852Y-52367264D01*
X107347094Y-52367885D01*
X107257885Y-52457094D01*
X107257264Y-52457852D01*
X107188019Y-52561615D01*
X107187557Y-52562480D01*
X107139868Y-52677590D01*
X107139583Y-52678528D01*
X107116248Y-52795712D01*
X107110812Y-52740518D01*
X107074502Y-52620820D01*
X107015537Y-52510506D01*
X106936185Y-52413815D01*
X106839494Y-52334463D01*
X106729180Y-52275498D01*
X106609482Y-52239188D01*
X106516192Y-52230000D01*
X106609482Y-52220812D01*
X106729180Y-52184502D01*
X106839494Y-52125537D01*
X106936185Y-52046185D01*
X107015537Y-51949494D01*
X107074502Y-51839180D01*
X107110812Y-51719482D01*
X107116248Y-51664288D01*
X107139583Y-51781472D01*
%TA.AperFunction,NonConductor*%
D19*
G36*
X107139583Y-51781472D02*
G01*
X107139868Y-51782410D01*
X107187557Y-51897520D01*
X107188019Y-51898385D01*
X107257264Y-52002148D01*
X107257885Y-52002906D01*
X107347094Y-52092115D01*
X107347852Y-52092736D01*
X107451615Y-52161981D01*
X107452480Y-52162443D01*
X107567590Y-52210132D01*
X107568528Y-52210417D01*
X107666870Y-52230000D01*
X107568528Y-52249583D01*
X107567590Y-52249868D01*
X107452480Y-52297557D01*
X107451615Y-52298019D01*
X107347852Y-52367264D01*
X107347094Y-52367885D01*
X107257885Y-52457094D01*
X107257264Y-52457852D01*
X107188019Y-52561615D01*
X107187557Y-52562480D01*
X107139868Y-52677590D01*
X107139583Y-52678528D01*
X107116248Y-52795712D01*
X107110812Y-52740518D01*
X107074502Y-52620820D01*
X107015537Y-52510506D01*
X106936185Y-52413815D01*
X106839494Y-52334463D01*
X106729180Y-52275498D01*
X106609482Y-52239188D01*
X106516192Y-52230000D01*
X106609482Y-52220812D01*
X106729180Y-52184502D01*
X106839494Y-52125537D01*
X106936185Y-52046185D01*
X107015537Y-51949494D01*
X107074502Y-51839180D01*
X107110812Y-51719482D01*
X107116248Y-51664288D01*
X107139583Y-51781472D01*
G37*
%TD.AperFunction*%
D18*
X66489188Y-51719482D02*
X66525498Y-51839180D01*
X66584463Y-51949494D01*
X66663815Y-52046185D01*
X66760506Y-52125537D01*
X66870820Y-52184502D01*
X66990518Y-52220812D01*
X67083808Y-52230000D01*
X66990518Y-52239188D01*
X66870820Y-52275498D01*
X66760506Y-52334463D01*
X66663815Y-52413815D01*
X66584463Y-52510506D01*
X66525498Y-52620820D01*
X66489188Y-52740518D01*
X66483752Y-52795712D01*
X66460417Y-52678528D01*
X66460132Y-52677590D01*
X66412443Y-52562480D01*
X66411981Y-52561615D01*
X66342736Y-52457852D01*
X66342115Y-52457094D01*
X66252906Y-52367885D01*
X66252148Y-52367264D01*
X66148385Y-52298019D01*
X66147520Y-52297557D01*
X66032410Y-52249868D01*
X66031472Y-52249583D01*
X65933130Y-52230000D01*
X66031472Y-52210417D01*
X66032410Y-52210132D01*
X66147520Y-52162443D01*
X66148385Y-52161981D01*
X66252148Y-52092736D01*
X66252906Y-52092115D01*
X66342115Y-52002906D01*
X66342736Y-52002148D01*
X66411981Y-51898385D01*
X66412443Y-51897520D01*
X66460132Y-51782410D01*
X66460417Y-51781472D01*
X66483752Y-51664288D01*
X66489188Y-51719482D01*
%TA.AperFunction,NonConductor*%
D19*
G36*
X66489188Y-51719482D02*
G01*
X66525498Y-51839180D01*
X66584463Y-51949494D01*
X66663815Y-52046185D01*
X66760506Y-52125537D01*
X66870820Y-52184502D01*
X66990518Y-52220812D01*
X67083808Y-52230000D01*
X66990518Y-52239188D01*
X66870820Y-52275498D01*
X66760506Y-52334463D01*
X66663815Y-52413815D01*
X66584463Y-52510506D01*
X66525498Y-52620820D01*
X66489188Y-52740518D01*
X66483752Y-52795712D01*
X66460417Y-52678528D01*
X66460132Y-52677590D01*
X66412443Y-52562480D01*
X66411981Y-52561615D01*
X66342736Y-52457852D01*
X66342115Y-52457094D01*
X66252906Y-52367885D01*
X66252148Y-52367264D01*
X66148385Y-52298019D01*
X66147520Y-52297557D01*
X66032410Y-52249868D01*
X66031472Y-52249583D01*
X65933130Y-52230000D01*
X66031472Y-52210417D01*
X66032410Y-52210132D01*
X66147520Y-52162443D01*
X66148385Y-52161981D01*
X66252148Y-52092736D01*
X66252906Y-52092115D01*
X66342115Y-52002906D01*
X66342736Y-52002148D01*
X66411981Y-51898385D01*
X66412443Y-51897520D01*
X66460132Y-51782410D01*
X66460417Y-51781472D01*
X66483752Y-51664288D01*
X66489188Y-51719482D01*
G37*
%TD.AperFunction*%
D18*
X77150000Y-46024802D02*
X77150000Y-47289345D01*
X77030820Y-47325498D01*
X76920506Y-47384463D01*
X76823815Y-47463815D01*
X76744463Y-47560506D01*
X76685498Y-47670820D01*
X76649188Y-47790518D01*
X76640000Y-47883808D01*
X76630812Y-47790518D01*
X76594502Y-47670820D01*
X76535537Y-47560506D01*
X76456185Y-47463815D01*
X76359494Y-47384463D01*
X76249180Y-47325498D01*
X76130000Y-47289345D01*
X76130000Y-45807333D01*
X76133677Y-45770000D01*
X76119003Y-45621014D01*
X76075546Y-45477753D01*
X76004974Y-45345724D01*
X75933799Y-45258997D01*
X75910001Y-45229999D01*
X75881004Y-45206202D01*
X74734801Y-44060000D01*
X75185199Y-44060000D01*
X77150000Y-46024802D01*
%TA.AperFunction,NonConductor*%
D19*
G36*
X77150000Y-46024802D02*
G01*
X77150000Y-47289345D01*
X77030820Y-47325498D01*
X76920506Y-47384463D01*
X76823815Y-47463815D01*
X76744463Y-47560506D01*
X76685498Y-47670820D01*
X76649188Y-47790518D01*
X76640000Y-47883808D01*
X76630812Y-47790518D01*
X76594502Y-47670820D01*
X76535537Y-47560506D01*
X76456185Y-47463815D01*
X76359494Y-47384463D01*
X76249180Y-47325498D01*
X76130000Y-47289345D01*
X76130000Y-45807333D01*
X76133677Y-45770000D01*
X76119003Y-45621014D01*
X76075546Y-45477753D01*
X76004974Y-45345724D01*
X75933799Y-45258997D01*
X75910001Y-45229999D01*
X75881004Y-45206202D01*
X74734801Y-44060000D01*
X75185199Y-44060000D01*
X77150000Y-46024802D01*
G37*
%TD.AperFunction*%
M02*
