%TF.GenerationSoftware,KiCad,Pcbnew,(5.1.9)-1*%
%TF.CreationDate,2025-05-03T12:54:25-07:00*%
%TF.ProjectId,RADA3K,52414441-334b-42e6-9b69-6361645f7063,rev?*%
%TF.SameCoordinates,Original*%
%TF.FileFunction,Copper,L3,Inr*%
%TF.FilePolarity,Positive*%
%FSLAX46Y46*%
G04 Gerber Fmt 4.6, Leading zero omitted, Abs format (unit mm)*
G04 Created by KiCad (PCBNEW (5.1.9)-1) date 2025-05-03 12:54:25*
%MOMM*%
%LPD*%
G01*
G04 APERTURE LIST*
%TA.AperFunction,ComponentPad*%
%ADD10O,3.000000X2.500000*%
%TD*%
%TA.AperFunction,ComponentPad*%
%ADD11C,4.064000*%
%TD*%
%TA.AperFunction,ViaPad*%
%ADD12C,0.600000*%
%TD*%
%TA.AperFunction,Conductor*%
%ADD13C,0.254000*%
%TD*%
%TA.AperFunction,Conductor*%
%ADD14C,0.100000*%
%TD*%
G04 APERTURE END LIST*
D10*
%TO.N,GND*%
%TO.C,SW3*%
X109505000Y-58400000D03*
%TO.N,/GPIO_1_1*%
X109505000Y-63400000D03*
%TO.N,GND*%
X97005000Y-58400000D03*
%TO.N,/GPIO_1_1*%
X97005000Y-63400000D03*
%TD*%
%TO.N,GND*%
%TO.C,SW1*%
X76485000Y-58400000D03*
%TO.N,/FPGA__RST*%
X76485000Y-63400000D03*
%TO.N,GND*%
X63985000Y-58400000D03*
%TO.N,/FPGA__RST*%
X63985000Y-63400000D03*
%TD*%
%TO.N,GND*%
%TO.C,SW2*%
X92995000Y-58400000D03*
%TO.N,/GPIO_1_3*%
X92995000Y-63400000D03*
%TO.N,GND*%
X80495000Y-58400000D03*
%TO.N,/GPIO_1_3*%
X80495000Y-63400000D03*
%TD*%
D11*
%TO.N,N/C*%
%TO.C,GND*%
X36791900Y-135242300D03*
%TD*%
%TO.N,N/C*%
%TO.C,GND*%
X137063972Y-135496300D03*
%TD*%
%TO.N,N/C*%
%TO.C,GND*%
X36791900Y-30314900D03*
%TD*%
%TO.N,N/C*%
%TO.C,GND*%
X137063972Y-30314900D03*
%TD*%
D12*
%TO.N,GND*%
X86350000Y-87350000D03*
%TO.N,Net-(D1-Pad2)*%
X80050000Y-87350000D03*
%TO.N,Net-(D2-Pad2)*%
X92700000Y-87300000D03*
%TD*%
D13*
%TO.N,GND*%
X141433972Y-139612300D02*
X32421900Y-139612300D01*
X32421900Y-134979623D01*
X34124900Y-134979623D01*
X34124900Y-135504977D01*
X34227392Y-136020235D01*
X34428436Y-136505598D01*
X34720306Y-136942413D01*
X35091787Y-137313894D01*
X35528602Y-137605764D01*
X36013965Y-137806808D01*
X36529223Y-137909300D01*
X37054577Y-137909300D01*
X37569835Y-137806808D01*
X38055198Y-137605764D01*
X38492013Y-137313894D01*
X38863494Y-136942413D01*
X39155364Y-136505598D01*
X39356408Y-136020235D01*
X39458900Y-135504977D01*
X39458900Y-135233623D01*
X134396972Y-135233623D01*
X134396972Y-135758977D01*
X134499464Y-136274235D01*
X134700508Y-136759598D01*
X134992378Y-137196413D01*
X135363859Y-137567894D01*
X135800674Y-137859764D01*
X136286037Y-138060808D01*
X136801295Y-138163300D01*
X137326649Y-138163300D01*
X137841907Y-138060808D01*
X138327270Y-137859764D01*
X138764085Y-137567894D01*
X139135566Y-137196413D01*
X139427436Y-136759598D01*
X139628480Y-136274235D01*
X139730972Y-135758977D01*
X139730972Y-135233623D01*
X139628480Y-134718365D01*
X139427436Y-134233002D01*
X139135566Y-133796187D01*
X138764085Y-133424706D01*
X138327270Y-133132836D01*
X137841907Y-132931792D01*
X137326649Y-132829300D01*
X136801295Y-132829300D01*
X136286037Y-132931792D01*
X135800674Y-133132836D01*
X135363859Y-133424706D01*
X134992378Y-133796187D01*
X134700508Y-134233002D01*
X134499464Y-134718365D01*
X134396972Y-135233623D01*
X39458900Y-135233623D01*
X39458900Y-134979623D01*
X39356408Y-134464365D01*
X39155364Y-133979002D01*
X38863494Y-133542187D01*
X38492013Y-133170706D01*
X38055198Y-132878836D01*
X37569835Y-132677792D01*
X37054577Y-132575300D01*
X36529223Y-132575300D01*
X36013965Y-132677792D01*
X35528602Y-132878836D01*
X35091787Y-133170706D01*
X34720306Y-133542187D01*
X34428436Y-133979002D01*
X34227392Y-134464365D01*
X34124900Y-134979623D01*
X32421900Y-134979623D01*
X32421900Y-87257911D01*
X79115000Y-87257911D01*
X79115000Y-87442089D01*
X79150932Y-87622729D01*
X79221414Y-87792889D01*
X79323738Y-87946028D01*
X79453972Y-88076262D01*
X79607111Y-88178586D01*
X79777271Y-88249068D01*
X79957911Y-88285000D01*
X80142089Y-88285000D01*
X80322729Y-88249068D01*
X80492889Y-88178586D01*
X80646028Y-88076262D01*
X80776262Y-87946028D01*
X80878586Y-87792889D01*
X80949068Y-87622729D01*
X80985000Y-87442089D01*
X80985000Y-87257911D01*
X80975055Y-87207911D01*
X91765000Y-87207911D01*
X91765000Y-87392089D01*
X91800932Y-87572729D01*
X91871414Y-87742889D01*
X91973738Y-87896028D01*
X92103972Y-88026262D01*
X92257111Y-88128586D01*
X92427271Y-88199068D01*
X92607911Y-88235000D01*
X92792089Y-88235000D01*
X92972729Y-88199068D01*
X93142889Y-88128586D01*
X93296028Y-88026262D01*
X93426262Y-87896028D01*
X93528586Y-87742889D01*
X93599068Y-87572729D01*
X93635000Y-87392089D01*
X93635000Y-87207911D01*
X93599068Y-87027271D01*
X93528586Y-86857111D01*
X93426262Y-86703972D01*
X93296028Y-86573738D01*
X93142889Y-86471414D01*
X92972729Y-86400932D01*
X92792089Y-86365000D01*
X92607911Y-86365000D01*
X92427271Y-86400932D01*
X92257111Y-86471414D01*
X92103972Y-86573738D01*
X91973738Y-86703972D01*
X91871414Y-86857111D01*
X91800932Y-87027271D01*
X91765000Y-87207911D01*
X80975055Y-87207911D01*
X80949068Y-87077271D01*
X80878586Y-86907111D01*
X80776262Y-86753972D01*
X80646028Y-86623738D01*
X80492889Y-86521414D01*
X80322729Y-86450932D01*
X80142089Y-86415000D01*
X79957911Y-86415000D01*
X79777271Y-86450932D01*
X79607111Y-86521414D01*
X79453972Y-86623738D01*
X79323738Y-86753972D01*
X79221414Y-86907111D01*
X79150932Y-87077271D01*
X79115000Y-87257911D01*
X32421900Y-87257911D01*
X32421900Y-63400000D01*
X61840880Y-63400000D01*
X61877275Y-63769524D01*
X61985061Y-64124848D01*
X62160097Y-64452317D01*
X62395655Y-64739345D01*
X62682683Y-64974903D01*
X63010152Y-65149939D01*
X63365476Y-65257725D01*
X63642403Y-65285000D01*
X64327597Y-65285000D01*
X64604524Y-65257725D01*
X64959848Y-65149939D01*
X65287317Y-64974903D01*
X65574345Y-64739345D01*
X65809903Y-64452317D01*
X65984939Y-64124848D01*
X66092725Y-63769524D01*
X66129120Y-63400000D01*
X74340880Y-63400000D01*
X74377275Y-63769524D01*
X74485061Y-64124848D01*
X74660097Y-64452317D01*
X74895655Y-64739345D01*
X75182683Y-64974903D01*
X75510152Y-65149939D01*
X75865476Y-65257725D01*
X76142403Y-65285000D01*
X76827597Y-65285000D01*
X77104524Y-65257725D01*
X77459848Y-65149939D01*
X77787317Y-64974903D01*
X78074345Y-64739345D01*
X78309903Y-64452317D01*
X78484939Y-64124848D01*
X78490000Y-64108164D01*
X78495061Y-64124848D01*
X78670097Y-64452317D01*
X78905655Y-64739345D01*
X79192683Y-64974903D01*
X79520152Y-65149939D01*
X79875476Y-65257725D01*
X80152403Y-65285000D01*
X80837597Y-65285000D01*
X81114524Y-65257725D01*
X81469848Y-65149939D01*
X81797317Y-64974903D01*
X82084345Y-64739345D01*
X82319903Y-64452317D01*
X82494939Y-64124848D01*
X82602725Y-63769524D01*
X82639120Y-63400000D01*
X90850880Y-63400000D01*
X90887275Y-63769524D01*
X90995061Y-64124848D01*
X91170097Y-64452317D01*
X91405655Y-64739345D01*
X91692683Y-64974903D01*
X92020152Y-65149939D01*
X92375476Y-65257725D01*
X92652403Y-65285000D01*
X93337597Y-65285000D01*
X93614524Y-65257725D01*
X93969848Y-65149939D01*
X94297317Y-64974903D01*
X94584345Y-64739345D01*
X94819903Y-64452317D01*
X94994939Y-64124848D01*
X95000000Y-64108164D01*
X95005061Y-64124848D01*
X95180097Y-64452317D01*
X95415655Y-64739345D01*
X95702683Y-64974903D01*
X96030152Y-65149939D01*
X96385476Y-65257725D01*
X96662403Y-65285000D01*
X97347597Y-65285000D01*
X97624524Y-65257725D01*
X97979848Y-65149939D01*
X98307317Y-64974903D01*
X98594345Y-64739345D01*
X98829903Y-64452317D01*
X99004939Y-64124848D01*
X99112725Y-63769524D01*
X99149120Y-63400000D01*
X107360880Y-63400000D01*
X107397275Y-63769524D01*
X107505061Y-64124848D01*
X107680097Y-64452317D01*
X107915655Y-64739345D01*
X108202683Y-64974903D01*
X108530152Y-65149939D01*
X108885476Y-65257725D01*
X109162403Y-65285000D01*
X109847597Y-65285000D01*
X110124524Y-65257725D01*
X110479848Y-65149939D01*
X110807317Y-64974903D01*
X111094345Y-64739345D01*
X111329903Y-64452317D01*
X111504939Y-64124848D01*
X111612725Y-63769524D01*
X111649120Y-63400000D01*
X111612725Y-63030476D01*
X111504939Y-62675152D01*
X111329903Y-62347683D01*
X111094345Y-62060655D01*
X110807317Y-61825097D01*
X110479848Y-61650061D01*
X110124524Y-61542275D01*
X109847597Y-61515000D01*
X109162403Y-61515000D01*
X108885476Y-61542275D01*
X108530152Y-61650061D01*
X108202683Y-61825097D01*
X107915655Y-62060655D01*
X107680097Y-62347683D01*
X107505061Y-62675152D01*
X107397275Y-63030476D01*
X107360880Y-63400000D01*
X99149120Y-63400000D01*
X99112725Y-63030476D01*
X99004939Y-62675152D01*
X98829903Y-62347683D01*
X98594345Y-62060655D01*
X98307317Y-61825097D01*
X97979848Y-61650061D01*
X97624524Y-61542275D01*
X97347597Y-61515000D01*
X96662403Y-61515000D01*
X96385476Y-61542275D01*
X96030152Y-61650061D01*
X95702683Y-61825097D01*
X95415655Y-62060655D01*
X95180097Y-62347683D01*
X95005061Y-62675152D01*
X95000000Y-62691836D01*
X94994939Y-62675152D01*
X94819903Y-62347683D01*
X94584345Y-62060655D01*
X94297317Y-61825097D01*
X93969848Y-61650061D01*
X93614524Y-61542275D01*
X93337597Y-61515000D01*
X92652403Y-61515000D01*
X92375476Y-61542275D01*
X92020152Y-61650061D01*
X91692683Y-61825097D01*
X91405655Y-62060655D01*
X91170097Y-62347683D01*
X90995061Y-62675152D01*
X90887275Y-63030476D01*
X90850880Y-63400000D01*
X82639120Y-63400000D01*
X82602725Y-63030476D01*
X82494939Y-62675152D01*
X82319903Y-62347683D01*
X82084345Y-62060655D01*
X81797317Y-61825097D01*
X81469848Y-61650061D01*
X81114524Y-61542275D01*
X80837597Y-61515000D01*
X80152403Y-61515000D01*
X79875476Y-61542275D01*
X79520152Y-61650061D01*
X79192683Y-61825097D01*
X78905655Y-62060655D01*
X78670097Y-62347683D01*
X78495061Y-62675152D01*
X78490000Y-62691836D01*
X78484939Y-62675152D01*
X78309903Y-62347683D01*
X78074345Y-62060655D01*
X77787317Y-61825097D01*
X77459848Y-61650061D01*
X77104524Y-61542275D01*
X76827597Y-61515000D01*
X76142403Y-61515000D01*
X75865476Y-61542275D01*
X75510152Y-61650061D01*
X75182683Y-61825097D01*
X74895655Y-62060655D01*
X74660097Y-62347683D01*
X74485061Y-62675152D01*
X74377275Y-63030476D01*
X74340880Y-63400000D01*
X66129120Y-63400000D01*
X66092725Y-63030476D01*
X65984939Y-62675152D01*
X65809903Y-62347683D01*
X65574345Y-62060655D01*
X65287317Y-61825097D01*
X64959848Y-61650061D01*
X64604524Y-61542275D01*
X64327597Y-61515000D01*
X63642403Y-61515000D01*
X63365476Y-61542275D01*
X63010152Y-61650061D01*
X62682683Y-61825097D01*
X62395655Y-62060655D01*
X62160097Y-62347683D01*
X61985061Y-62675152D01*
X61877275Y-63030476D01*
X61840880Y-63400000D01*
X32421900Y-63400000D01*
X32421900Y-58819645D01*
X61897305Y-58819645D01*
X61926777Y-58960611D01*
X62070891Y-59302606D01*
X62278956Y-59609914D01*
X62542976Y-59870726D01*
X62852805Y-60075019D01*
X63196536Y-60214942D01*
X63560960Y-60285118D01*
X63858000Y-60130385D01*
X63858000Y-58527000D01*
X64112000Y-58527000D01*
X64112000Y-60130385D01*
X64409040Y-60285118D01*
X64773464Y-60214942D01*
X65117195Y-60075019D01*
X65427024Y-59870726D01*
X65691044Y-59609914D01*
X65899109Y-59302606D01*
X66043223Y-58960611D01*
X66072695Y-58819645D01*
X74397305Y-58819645D01*
X74426777Y-58960611D01*
X74570891Y-59302606D01*
X74778956Y-59609914D01*
X75042976Y-59870726D01*
X75352805Y-60075019D01*
X75696536Y-60214942D01*
X76060960Y-60285118D01*
X76358000Y-60130385D01*
X76358000Y-58527000D01*
X76612000Y-58527000D01*
X76612000Y-60130385D01*
X76909040Y-60285118D01*
X77273464Y-60214942D01*
X77617195Y-60075019D01*
X77927024Y-59870726D01*
X78191044Y-59609914D01*
X78399109Y-59302606D01*
X78490000Y-59086914D01*
X78580891Y-59302606D01*
X78788956Y-59609914D01*
X79052976Y-59870726D01*
X79362805Y-60075019D01*
X79706536Y-60214942D01*
X80070960Y-60285118D01*
X80368000Y-60130385D01*
X80368000Y-58527000D01*
X80622000Y-58527000D01*
X80622000Y-60130385D01*
X80919040Y-60285118D01*
X81283464Y-60214942D01*
X81627195Y-60075019D01*
X81937024Y-59870726D01*
X82201044Y-59609914D01*
X82409109Y-59302606D01*
X82553223Y-58960611D01*
X82582695Y-58819645D01*
X90907305Y-58819645D01*
X90936777Y-58960611D01*
X91080891Y-59302606D01*
X91288956Y-59609914D01*
X91552976Y-59870726D01*
X91862805Y-60075019D01*
X92206536Y-60214942D01*
X92570960Y-60285118D01*
X92868000Y-60130385D01*
X92868000Y-58527000D01*
X93122000Y-58527000D01*
X93122000Y-60130385D01*
X93419040Y-60285118D01*
X93783464Y-60214942D01*
X94127195Y-60075019D01*
X94437024Y-59870726D01*
X94701044Y-59609914D01*
X94909109Y-59302606D01*
X95000000Y-59086914D01*
X95090891Y-59302606D01*
X95298956Y-59609914D01*
X95562976Y-59870726D01*
X95872805Y-60075019D01*
X96216536Y-60214942D01*
X96580960Y-60285118D01*
X96878000Y-60130385D01*
X96878000Y-58527000D01*
X97132000Y-58527000D01*
X97132000Y-60130385D01*
X97429040Y-60285118D01*
X97793464Y-60214942D01*
X98137195Y-60075019D01*
X98447024Y-59870726D01*
X98711044Y-59609914D01*
X98919109Y-59302606D01*
X99063223Y-58960611D01*
X99092695Y-58819645D01*
X107417305Y-58819645D01*
X107446777Y-58960611D01*
X107590891Y-59302606D01*
X107798956Y-59609914D01*
X108062976Y-59870726D01*
X108372805Y-60075019D01*
X108716536Y-60214942D01*
X109080960Y-60285118D01*
X109378000Y-60130385D01*
X109378000Y-58527000D01*
X109632000Y-58527000D01*
X109632000Y-60130385D01*
X109929040Y-60285118D01*
X110293464Y-60214942D01*
X110637195Y-60075019D01*
X110947024Y-59870726D01*
X111211044Y-59609914D01*
X111419109Y-59302606D01*
X111563223Y-58960611D01*
X111592695Y-58819645D01*
X111476572Y-58527000D01*
X109632000Y-58527000D01*
X109378000Y-58527000D01*
X107533428Y-58527000D01*
X107417305Y-58819645D01*
X99092695Y-58819645D01*
X98976572Y-58527000D01*
X97132000Y-58527000D01*
X96878000Y-58527000D01*
X95033428Y-58527000D01*
X95000000Y-58611243D01*
X94966572Y-58527000D01*
X93122000Y-58527000D01*
X92868000Y-58527000D01*
X91023428Y-58527000D01*
X90907305Y-58819645D01*
X82582695Y-58819645D01*
X82466572Y-58527000D01*
X80622000Y-58527000D01*
X80368000Y-58527000D01*
X78523428Y-58527000D01*
X78490000Y-58611243D01*
X78456572Y-58527000D01*
X76612000Y-58527000D01*
X76358000Y-58527000D01*
X74513428Y-58527000D01*
X74397305Y-58819645D01*
X66072695Y-58819645D01*
X65956572Y-58527000D01*
X64112000Y-58527000D01*
X63858000Y-58527000D01*
X62013428Y-58527000D01*
X61897305Y-58819645D01*
X32421900Y-58819645D01*
X32421900Y-57980355D01*
X61897305Y-57980355D01*
X62013428Y-58273000D01*
X63858000Y-58273000D01*
X63858000Y-56669615D01*
X64112000Y-56669615D01*
X64112000Y-58273000D01*
X65956572Y-58273000D01*
X66072695Y-57980355D01*
X74397305Y-57980355D01*
X74513428Y-58273000D01*
X76358000Y-58273000D01*
X76358000Y-56669615D01*
X76612000Y-56669615D01*
X76612000Y-58273000D01*
X78456572Y-58273000D01*
X78490000Y-58188757D01*
X78523428Y-58273000D01*
X80368000Y-58273000D01*
X80368000Y-56669615D01*
X80622000Y-56669615D01*
X80622000Y-58273000D01*
X82466572Y-58273000D01*
X82582695Y-57980355D01*
X90907305Y-57980355D01*
X91023428Y-58273000D01*
X92868000Y-58273000D01*
X92868000Y-56669615D01*
X93122000Y-56669615D01*
X93122000Y-58273000D01*
X94966572Y-58273000D01*
X95000000Y-58188757D01*
X95033428Y-58273000D01*
X96878000Y-58273000D01*
X96878000Y-56669615D01*
X97132000Y-56669615D01*
X97132000Y-58273000D01*
X98976572Y-58273000D01*
X99092695Y-57980355D01*
X107417305Y-57980355D01*
X107533428Y-58273000D01*
X109378000Y-58273000D01*
X109378000Y-56669615D01*
X109632000Y-56669615D01*
X109632000Y-58273000D01*
X111476572Y-58273000D01*
X111592695Y-57980355D01*
X111563223Y-57839389D01*
X111419109Y-57497394D01*
X111211044Y-57190086D01*
X110947024Y-56929274D01*
X110637195Y-56724981D01*
X110293464Y-56585058D01*
X109929040Y-56514882D01*
X109632000Y-56669615D01*
X109378000Y-56669615D01*
X109080960Y-56514882D01*
X108716536Y-56585058D01*
X108372805Y-56724981D01*
X108062976Y-56929274D01*
X107798956Y-57190086D01*
X107590891Y-57497394D01*
X107446777Y-57839389D01*
X107417305Y-57980355D01*
X99092695Y-57980355D01*
X99063223Y-57839389D01*
X98919109Y-57497394D01*
X98711044Y-57190086D01*
X98447024Y-56929274D01*
X98137195Y-56724981D01*
X97793464Y-56585058D01*
X97429040Y-56514882D01*
X97132000Y-56669615D01*
X96878000Y-56669615D01*
X96580960Y-56514882D01*
X96216536Y-56585058D01*
X95872805Y-56724981D01*
X95562976Y-56929274D01*
X95298956Y-57190086D01*
X95090891Y-57497394D01*
X95000000Y-57713086D01*
X94909109Y-57497394D01*
X94701044Y-57190086D01*
X94437024Y-56929274D01*
X94127195Y-56724981D01*
X93783464Y-56585058D01*
X93419040Y-56514882D01*
X93122000Y-56669615D01*
X92868000Y-56669615D01*
X92570960Y-56514882D01*
X92206536Y-56585058D01*
X91862805Y-56724981D01*
X91552976Y-56929274D01*
X91288956Y-57190086D01*
X91080891Y-57497394D01*
X90936777Y-57839389D01*
X90907305Y-57980355D01*
X82582695Y-57980355D01*
X82553223Y-57839389D01*
X82409109Y-57497394D01*
X82201044Y-57190086D01*
X81937024Y-56929274D01*
X81627195Y-56724981D01*
X81283464Y-56585058D01*
X80919040Y-56514882D01*
X80622000Y-56669615D01*
X80368000Y-56669615D01*
X80070960Y-56514882D01*
X79706536Y-56585058D01*
X79362805Y-56724981D01*
X79052976Y-56929274D01*
X78788956Y-57190086D01*
X78580891Y-57497394D01*
X78490000Y-57713086D01*
X78399109Y-57497394D01*
X78191044Y-57190086D01*
X77927024Y-56929274D01*
X77617195Y-56724981D01*
X77273464Y-56585058D01*
X76909040Y-56514882D01*
X76612000Y-56669615D01*
X76358000Y-56669615D01*
X76060960Y-56514882D01*
X75696536Y-56585058D01*
X75352805Y-56724981D01*
X75042976Y-56929274D01*
X74778956Y-57190086D01*
X74570891Y-57497394D01*
X74426777Y-57839389D01*
X74397305Y-57980355D01*
X66072695Y-57980355D01*
X66043223Y-57839389D01*
X65899109Y-57497394D01*
X65691044Y-57190086D01*
X65427024Y-56929274D01*
X65117195Y-56724981D01*
X64773464Y-56585058D01*
X64409040Y-56514882D01*
X64112000Y-56669615D01*
X63858000Y-56669615D01*
X63560960Y-56514882D01*
X63196536Y-56585058D01*
X62852805Y-56724981D01*
X62542976Y-56929274D01*
X62278956Y-57190086D01*
X62070891Y-57497394D01*
X61926777Y-57839389D01*
X61897305Y-57980355D01*
X32421900Y-57980355D01*
X32421900Y-52082263D01*
X62440000Y-52082263D01*
X62440000Y-52377737D01*
X62497644Y-52667534D01*
X62610717Y-52940517D01*
X62774874Y-53186194D01*
X62983806Y-53395126D01*
X63229483Y-53559283D01*
X63502466Y-53672356D01*
X63792263Y-53730000D01*
X64087737Y-53730000D01*
X64377534Y-53672356D01*
X64650517Y-53559283D01*
X64896194Y-53395126D01*
X65105126Y-53186194D01*
X65269283Y-52940517D01*
X65382356Y-52667534D01*
X65440000Y-52377737D01*
X65440000Y-52082263D01*
X108160000Y-52082263D01*
X108160000Y-52377737D01*
X108217644Y-52667534D01*
X108330717Y-52940517D01*
X108494874Y-53186194D01*
X108703806Y-53395126D01*
X108949483Y-53559283D01*
X109222466Y-53672356D01*
X109512263Y-53730000D01*
X109807737Y-53730000D01*
X110097534Y-53672356D01*
X110370517Y-53559283D01*
X110616194Y-53395126D01*
X110825126Y-53186194D01*
X110989283Y-52940517D01*
X111102356Y-52667534D01*
X111160000Y-52377737D01*
X111160000Y-52082263D01*
X111102356Y-51792466D01*
X110989283Y-51519483D01*
X110825126Y-51273806D01*
X110616194Y-51064874D01*
X110370517Y-50900717D01*
X110097534Y-50787644D01*
X109807737Y-50730000D01*
X109512263Y-50730000D01*
X109222466Y-50787644D01*
X108949483Y-50900717D01*
X108703806Y-51064874D01*
X108494874Y-51273806D01*
X108330717Y-51519483D01*
X108217644Y-51792466D01*
X108160000Y-52082263D01*
X65440000Y-52082263D01*
X65382356Y-51792466D01*
X65269283Y-51519483D01*
X65105126Y-51273806D01*
X64896194Y-51064874D01*
X64650517Y-50900717D01*
X64377534Y-50787644D01*
X64087737Y-50730000D01*
X63792263Y-50730000D01*
X63502466Y-50787644D01*
X63229483Y-50900717D01*
X62983806Y-51064874D01*
X62774874Y-51273806D01*
X62610717Y-51519483D01*
X62497644Y-51792466D01*
X62440000Y-52082263D01*
X32421900Y-52082263D01*
X32421900Y-30052223D01*
X34124900Y-30052223D01*
X34124900Y-30577577D01*
X34227392Y-31092835D01*
X34428436Y-31578198D01*
X34720306Y-32015013D01*
X35091787Y-32386494D01*
X35528602Y-32678364D01*
X36013965Y-32879408D01*
X36529223Y-32981900D01*
X37054577Y-32981900D01*
X37569835Y-32879408D01*
X38055198Y-32678364D01*
X38492013Y-32386494D01*
X38863494Y-32015013D01*
X39155364Y-31578198D01*
X39356408Y-31092835D01*
X39458900Y-30577577D01*
X39458900Y-30052223D01*
X134396972Y-30052223D01*
X134396972Y-30577577D01*
X134499464Y-31092835D01*
X134700508Y-31578198D01*
X134992378Y-32015013D01*
X135363859Y-32386494D01*
X135800674Y-32678364D01*
X136286037Y-32879408D01*
X136801295Y-32981900D01*
X137326649Y-32981900D01*
X137841907Y-32879408D01*
X138327270Y-32678364D01*
X138764085Y-32386494D01*
X139135566Y-32015013D01*
X139427436Y-31578198D01*
X139628480Y-31092835D01*
X139730972Y-30577577D01*
X139730972Y-30052223D01*
X139628480Y-29536965D01*
X139427436Y-29051602D01*
X139135566Y-28614787D01*
X138764085Y-28243306D01*
X138327270Y-27951436D01*
X137841907Y-27750392D01*
X137326649Y-27647900D01*
X136801295Y-27647900D01*
X136286037Y-27750392D01*
X135800674Y-27951436D01*
X135363859Y-28243306D01*
X134992378Y-28614787D01*
X134700508Y-29051602D01*
X134499464Y-29536965D01*
X134396972Y-30052223D01*
X39458900Y-30052223D01*
X39356408Y-29536965D01*
X39155364Y-29051602D01*
X38863494Y-28614787D01*
X38492013Y-28243306D01*
X38055198Y-27951436D01*
X37569835Y-27750392D01*
X37054577Y-27647900D01*
X36529223Y-27647900D01*
X36013965Y-27750392D01*
X35528602Y-27951436D01*
X35091787Y-28243306D01*
X34720306Y-28614787D01*
X34428436Y-29051602D01*
X34227392Y-29536965D01*
X34124900Y-30052223D01*
X32421900Y-30052223D01*
X32421900Y-25944900D01*
X141433973Y-25944900D01*
X141433972Y-139612300D01*
%TA.AperFunction,Conductor*%
D14*
G36*
X141433972Y-139612300D02*
G01*
X32421900Y-139612300D01*
X32421900Y-134979623D01*
X34124900Y-134979623D01*
X34124900Y-135504977D01*
X34227392Y-136020235D01*
X34428436Y-136505598D01*
X34720306Y-136942413D01*
X35091787Y-137313894D01*
X35528602Y-137605764D01*
X36013965Y-137806808D01*
X36529223Y-137909300D01*
X37054577Y-137909300D01*
X37569835Y-137806808D01*
X38055198Y-137605764D01*
X38492013Y-137313894D01*
X38863494Y-136942413D01*
X39155364Y-136505598D01*
X39356408Y-136020235D01*
X39458900Y-135504977D01*
X39458900Y-135233623D01*
X134396972Y-135233623D01*
X134396972Y-135758977D01*
X134499464Y-136274235D01*
X134700508Y-136759598D01*
X134992378Y-137196413D01*
X135363859Y-137567894D01*
X135800674Y-137859764D01*
X136286037Y-138060808D01*
X136801295Y-138163300D01*
X137326649Y-138163300D01*
X137841907Y-138060808D01*
X138327270Y-137859764D01*
X138764085Y-137567894D01*
X139135566Y-137196413D01*
X139427436Y-136759598D01*
X139628480Y-136274235D01*
X139730972Y-135758977D01*
X139730972Y-135233623D01*
X139628480Y-134718365D01*
X139427436Y-134233002D01*
X139135566Y-133796187D01*
X138764085Y-133424706D01*
X138327270Y-133132836D01*
X137841907Y-132931792D01*
X137326649Y-132829300D01*
X136801295Y-132829300D01*
X136286037Y-132931792D01*
X135800674Y-133132836D01*
X135363859Y-133424706D01*
X134992378Y-133796187D01*
X134700508Y-134233002D01*
X134499464Y-134718365D01*
X134396972Y-135233623D01*
X39458900Y-135233623D01*
X39458900Y-134979623D01*
X39356408Y-134464365D01*
X39155364Y-133979002D01*
X38863494Y-133542187D01*
X38492013Y-133170706D01*
X38055198Y-132878836D01*
X37569835Y-132677792D01*
X37054577Y-132575300D01*
X36529223Y-132575300D01*
X36013965Y-132677792D01*
X35528602Y-132878836D01*
X35091787Y-133170706D01*
X34720306Y-133542187D01*
X34428436Y-133979002D01*
X34227392Y-134464365D01*
X34124900Y-134979623D01*
X32421900Y-134979623D01*
X32421900Y-87257911D01*
X79115000Y-87257911D01*
X79115000Y-87442089D01*
X79150932Y-87622729D01*
X79221414Y-87792889D01*
X79323738Y-87946028D01*
X79453972Y-88076262D01*
X79607111Y-88178586D01*
X79777271Y-88249068D01*
X79957911Y-88285000D01*
X80142089Y-88285000D01*
X80322729Y-88249068D01*
X80492889Y-88178586D01*
X80646028Y-88076262D01*
X80776262Y-87946028D01*
X80878586Y-87792889D01*
X80949068Y-87622729D01*
X80985000Y-87442089D01*
X80985000Y-87257911D01*
X80975055Y-87207911D01*
X91765000Y-87207911D01*
X91765000Y-87392089D01*
X91800932Y-87572729D01*
X91871414Y-87742889D01*
X91973738Y-87896028D01*
X92103972Y-88026262D01*
X92257111Y-88128586D01*
X92427271Y-88199068D01*
X92607911Y-88235000D01*
X92792089Y-88235000D01*
X92972729Y-88199068D01*
X93142889Y-88128586D01*
X93296028Y-88026262D01*
X93426262Y-87896028D01*
X93528586Y-87742889D01*
X93599068Y-87572729D01*
X93635000Y-87392089D01*
X93635000Y-87207911D01*
X93599068Y-87027271D01*
X93528586Y-86857111D01*
X93426262Y-86703972D01*
X93296028Y-86573738D01*
X93142889Y-86471414D01*
X92972729Y-86400932D01*
X92792089Y-86365000D01*
X92607911Y-86365000D01*
X92427271Y-86400932D01*
X92257111Y-86471414D01*
X92103972Y-86573738D01*
X91973738Y-86703972D01*
X91871414Y-86857111D01*
X91800932Y-87027271D01*
X91765000Y-87207911D01*
X80975055Y-87207911D01*
X80949068Y-87077271D01*
X80878586Y-86907111D01*
X80776262Y-86753972D01*
X80646028Y-86623738D01*
X80492889Y-86521414D01*
X80322729Y-86450932D01*
X80142089Y-86415000D01*
X79957911Y-86415000D01*
X79777271Y-86450932D01*
X79607111Y-86521414D01*
X79453972Y-86623738D01*
X79323738Y-86753972D01*
X79221414Y-86907111D01*
X79150932Y-87077271D01*
X79115000Y-87257911D01*
X32421900Y-87257911D01*
X32421900Y-63400000D01*
X61840880Y-63400000D01*
X61877275Y-63769524D01*
X61985061Y-64124848D01*
X62160097Y-64452317D01*
X62395655Y-64739345D01*
X62682683Y-64974903D01*
X63010152Y-65149939D01*
X63365476Y-65257725D01*
X63642403Y-65285000D01*
X64327597Y-65285000D01*
X64604524Y-65257725D01*
X64959848Y-65149939D01*
X65287317Y-64974903D01*
X65574345Y-64739345D01*
X65809903Y-64452317D01*
X65984939Y-64124848D01*
X66092725Y-63769524D01*
X66129120Y-63400000D01*
X74340880Y-63400000D01*
X74377275Y-63769524D01*
X74485061Y-64124848D01*
X74660097Y-64452317D01*
X74895655Y-64739345D01*
X75182683Y-64974903D01*
X75510152Y-65149939D01*
X75865476Y-65257725D01*
X76142403Y-65285000D01*
X76827597Y-65285000D01*
X77104524Y-65257725D01*
X77459848Y-65149939D01*
X77787317Y-64974903D01*
X78074345Y-64739345D01*
X78309903Y-64452317D01*
X78484939Y-64124848D01*
X78490000Y-64108164D01*
X78495061Y-64124848D01*
X78670097Y-64452317D01*
X78905655Y-64739345D01*
X79192683Y-64974903D01*
X79520152Y-65149939D01*
X79875476Y-65257725D01*
X80152403Y-65285000D01*
X80837597Y-65285000D01*
X81114524Y-65257725D01*
X81469848Y-65149939D01*
X81797317Y-64974903D01*
X82084345Y-64739345D01*
X82319903Y-64452317D01*
X82494939Y-64124848D01*
X82602725Y-63769524D01*
X82639120Y-63400000D01*
X90850880Y-63400000D01*
X90887275Y-63769524D01*
X90995061Y-64124848D01*
X91170097Y-64452317D01*
X91405655Y-64739345D01*
X91692683Y-64974903D01*
X92020152Y-65149939D01*
X92375476Y-65257725D01*
X92652403Y-65285000D01*
X93337597Y-65285000D01*
X93614524Y-65257725D01*
X93969848Y-65149939D01*
X94297317Y-64974903D01*
X94584345Y-64739345D01*
X94819903Y-64452317D01*
X94994939Y-64124848D01*
X95000000Y-64108164D01*
X95005061Y-64124848D01*
X95180097Y-64452317D01*
X95415655Y-64739345D01*
X95702683Y-64974903D01*
X96030152Y-65149939D01*
X96385476Y-65257725D01*
X96662403Y-65285000D01*
X97347597Y-65285000D01*
X97624524Y-65257725D01*
X97979848Y-65149939D01*
X98307317Y-64974903D01*
X98594345Y-64739345D01*
X98829903Y-64452317D01*
X99004939Y-64124848D01*
X99112725Y-63769524D01*
X99149120Y-63400000D01*
X107360880Y-63400000D01*
X107397275Y-63769524D01*
X107505061Y-64124848D01*
X107680097Y-64452317D01*
X107915655Y-64739345D01*
X108202683Y-64974903D01*
X108530152Y-65149939D01*
X108885476Y-65257725D01*
X109162403Y-65285000D01*
X109847597Y-65285000D01*
X110124524Y-65257725D01*
X110479848Y-65149939D01*
X110807317Y-64974903D01*
X111094345Y-64739345D01*
X111329903Y-64452317D01*
X111504939Y-64124848D01*
X111612725Y-63769524D01*
X111649120Y-63400000D01*
X111612725Y-63030476D01*
X111504939Y-62675152D01*
X111329903Y-62347683D01*
X111094345Y-62060655D01*
X110807317Y-61825097D01*
X110479848Y-61650061D01*
X110124524Y-61542275D01*
X109847597Y-61515000D01*
X109162403Y-61515000D01*
X108885476Y-61542275D01*
X108530152Y-61650061D01*
X108202683Y-61825097D01*
X107915655Y-62060655D01*
X107680097Y-62347683D01*
X107505061Y-62675152D01*
X107397275Y-63030476D01*
X107360880Y-63400000D01*
X99149120Y-63400000D01*
X99112725Y-63030476D01*
X99004939Y-62675152D01*
X98829903Y-62347683D01*
X98594345Y-62060655D01*
X98307317Y-61825097D01*
X97979848Y-61650061D01*
X97624524Y-61542275D01*
X97347597Y-61515000D01*
X96662403Y-61515000D01*
X96385476Y-61542275D01*
X96030152Y-61650061D01*
X95702683Y-61825097D01*
X95415655Y-62060655D01*
X95180097Y-62347683D01*
X95005061Y-62675152D01*
X95000000Y-62691836D01*
X94994939Y-62675152D01*
X94819903Y-62347683D01*
X94584345Y-62060655D01*
X94297317Y-61825097D01*
X93969848Y-61650061D01*
X93614524Y-61542275D01*
X93337597Y-61515000D01*
X92652403Y-61515000D01*
X92375476Y-61542275D01*
X92020152Y-61650061D01*
X91692683Y-61825097D01*
X91405655Y-62060655D01*
X91170097Y-62347683D01*
X90995061Y-62675152D01*
X90887275Y-63030476D01*
X90850880Y-63400000D01*
X82639120Y-63400000D01*
X82602725Y-63030476D01*
X82494939Y-62675152D01*
X82319903Y-62347683D01*
X82084345Y-62060655D01*
X81797317Y-61825097D01*
X81469848Y-61650061D01*
X81114524Y-61542275D01*
X80837597Y-61515000D01*
X80152403Y-61515000D01*
X79875476Y-61542275D01*
X79520152Y-61650061D01*
X79192683Y-61825097D01*
X78905655Y-62060655D01*
X78670097Y-62347683D01*
X78495061Y-62675152D01*
X78490000Y-62691836D01*
X78484939Y-62675152D01*
X78309903Y-62347683D01*
X78074345Y-62060655D01*
X77787317Y-61825097D01*
X77459848Y-61650061D01*
X77104524Y-61542275D01*
X76827597Y-61515000D01*
X76142403Y-61515000D01*
X75865476Y-61542275D01*
X75510152Y-61650061D01*
X75182683Y-61825097D01*
X74895655Y-62060655D01*
X74660097Y-62347683D01*
X74485061Y-62675152D01*
X74377275Y-63030476D01*
X74340880Y-63400000D01*
X66129120Y-63400000D01*
X66092725Y-63030476D01*
X65984939Y-62675152D01*
X65809903Y-62347683D01*
X65574345Y-62060655D01*
X65287317Y-61825097D01*
X64959848Y-61650061D01*
X64604524Y-61542275D01*
X64327597Y-61515000D01*
X63642403Y-61515000D01*
X63365476Y-61542275D01*
X63010152Y-61650061D01*
X62682683Y-61825097D01*
X62395655Y-62060655D01*
X62160097Y-62347683D01*
X61985061Y-62675152D01*
X61877275Y-63030476D01*
X61840880Y-63400000D01*
X32421900Y-63400000D01*
X32421900Y-58819645D01*
X61897305Y-58819645D01*
X61926777Y-58960611D01*
X62070891Y-59302606D01*
X62278956Y-59609914D01*
X62542976Y-59870726D01*
X62852805Y-60075019D01*
X63196536Y-60214942D01*
X63560960Y-60285118D01*
X63858000Y-60130385D01*
X63858000Y-58527000D01*
X64112000Y-58527000D01*
X64112000Y-60130385D01*
X64409040Y-60285118D01*
X64773464Y-60214942D01*
X65117195Y-60075019D01*
X65427024Y-59870726D01*
X65691044Y-59609914D01*
X65899109Y-59302606D01*
X66043223Y-58960611D01*
X66072695Y-58819645D01*
X74397305Y-58819645D01*
X74426777Y-58960611D01*
X74570891Y-59302606D01*
X74778956Y-59609914D01*
X75042976Y-59870726D01*
X75352805Y-60075019D01*
X75696536Y-60214942D01*
X76060960Y-60285118D01*
X76358000Y-60130385D01*
X76358000Y-58527000D01*
X76612000Y-58527000D01*
X76612000Y-60130385D01*
X76909040Y-60285118D01*
X77273464Y-60214942D01*
X77617195Y-60075019D01*
X77927024Y-59870726D01*
X78191044Y-59609914D01*
X78399109Y-59302606D01*
X78490000Y-59086914D01*
X78580891Y-59302606D01*
X78788956Y-59609914D01*
X79052976Y-59870726D01*
X79362805Y-60075019D01*
X79706536Y-60214942D01*
X80070960Y-60285118D01*
X80368000Y-60130385D01*
X80368000Y-58527000D01*
X80622000Y-58527000D01*
X80622000Y-60130385D01*
X80919040Y-60285118D01*
X81283464Y-60214942D01*
X81627195Y-60075019D01*
X81937024Y-59870726D01*
X82201044Y-59609914D01*
X82409109Y-59302606D01*
X82553223Y-58960611D01*
X82582695Y-58819645D01*
X90907305Y-58819645D01*
X90936777Y-58960611D01*
X91080891Y-59302606D01*
X91288956Y-59609914D01*
X91552976Y-59870726D01*
X91862805Y-60075019D01*
X92206536Y-60214942D01*
X92570960Y-60285118D01*
X92868000Y-60130385D01*
X92868000Y-58527000D01*
X93122000Y-58527000D01*
X93122000Y-60130385D01*
X93419040Y-60285118D01*
X93783464Y-60214942D01*
X94127195Y-60075019D01*
X94437024Y-59870726D01*
X94701044Y-59609914D01*
X94909109Y-59302606D01*
X95000000Y-59086914D01*
X95090891Y-59302606D01*
X95298956Y-59609914D01*
X95562976Y-59870726D01*
X95872805Y-60075019D01*
X96216536Y-60214942D01*
X96580960Y-60285118D01*
X96878000Y-60130385D01*
X96878000Y-58527000D01*
X97132000Y-58527000D01*
X97132000Y-60130385D01*
X97429040Y-60285118D01*
X97793464Y-60214942D01*
X98137195Y-60075019D01*
X98447024Y-59870726D01*
X98711044Y-59609914D01*
X98919109Y-59302606D01*
X99063223Y-58960611D01*
X99092695Y-58819645D01*
X107417305Y-58819645D01*
X107446777Y-58960611D01*
X107590891Y-59302606D01*
X107798956Y-59609914D01*
X108062976Y-59870726D01*
X108372805Y-60075019D01*
X108716536Y-60214942D01*
X109080960Y-60285118D01*
X109378000Y-60130385D01*
X109378000Y-58527000D01*
X109632000Y-58527000D01*
X109632000Y-60130385D01*
X109929040Y-60285118D01*
X110293464Y-60214942D01*
X110637195Y-60075019D01*
X110947024Y-59870726D01*
X111211044Y-59609914D01*
X111419109Y-59302606D01*
X111563223Y-58960611D01*
X111592695Y-58819645D01*
X111476572Y-58527000D01*
X109632000Y-58527000D01*
X109378000Y-58527000D01*
X107533428Y-58527000D01*
X107417305Y-58819645D01*
X99092695Y-58819645D01*
X98976572Y-58527000D01*
X97132000Y-58527000D01*
X96878000Y-58527000D01*
X95033428Y-58527000D01*
X95000000Y-58611243D01*
X94966572Y-58527000D01*
X93122000Y-58527000D01*
X92868000Y-58527000D01*
X91023428Y-58527000D01*
X90907305Y-58819645D01*
X82582695Y-58819645D01*
X82466572Y-58527000D01*
X80622000Y-58527000D01*
X80368000Y-58527000D01*
X78523428Y-58527000D01*
X78490000Y-58611243D01*
X78456572Y-58527000D01*
X76612000Y-58527000D01*
X76358000Y-58527000D01*
X74513428Y-58527000D01*
X74397305Y-58819645D01*
X66072695Y-58819645D01*
X65956572Y-58527000D01*
X64112000Y-58527000D01*
X63858000Y-58527000D01*
X62013428Y-58527000D01*
X61897305Y-58819645D01*
X32421900Y-58819645D01*
X32421900Y-57980355D01*
X61897305Y-57980355D01*
X62013428Y-58273000D01*
X63858000Y-58273000D01*
X63858000Y-56669615D01*
X64112000Y-56669615D01*
X64112000Y-58273000D01*
X65956572Y-58273000D01*
X66072695Y-57980355D01*
X74397305Y-57980355D01*
X74513428Y-58273000D01*
X76358000Y-58273000D01*
X76358000Y-56669615D01*
X76612000Y-56669615D01*
X76612000Y-58273000D01*
X78456572Y-58273000D01*
X78490000Y-58188757D01*
X78523428Y-58273000D01*
X80368000Y-58273000D01*
X80368000Y-56669615D01*
X80622000Y-56669615D01*
X80622000Y-58273000D01*
X82466572Y-58273000D01*
X82582695Y-57980355D01*
X90907305Y-57980355D01*
X91023428Y-58273000D01*
X92868000Y-58273000D01*
X92868000Y-56669615D01*
X93122000Y-56669615D01*
X93122000Y-58273000D01*
X94966572Y-58273000D01*
X95000000Y-58188757D01*
X95033428Y-58273000D01*
X96878000Y-58273000D01*
X96878000Y-56669615D01*
X97132000Y-56669615D01*
X97132000Y-58273000D01*
X98976572Y-58273000D01*
X99092695Y-57980355D01*
X107417305Y-57980355D01*
X107533428Y-58273000D01*
X109378000Y-58273000D01*
X109378000Y-56669615D01*
X109632000Y-56669615D01*
X109632000Y-58273000D01*
X111476572Y-58273000D01*
X111592695Y-57980355D01*
X111563223Y-57839389D01*
X111419109Y-57497394D01*
X111211044Y-57190086D01*
X110947024Y-56929274D01*
X110637195Y-56724981D01*
X110293464Y-56585058D01*
X109929040Y-56514882D01*
X109632000Y-56669615D01*
X109378000Y-56669615D01*
X109080960Y-56514882D01*
X108716536Y-56585058D01*
X108372805Y-56724981D01*
X108062976Y-56929274D01*
X107798956Y-57190086D01*
X107590891Y-57497394D01*
X107446777Y-57839389D01*
X107417305Y-57980355D01*
X99092695Y-57980355D01*
X99063223Y-57839389D01*
X98919109Y-57497394D01*
X98711044Y-57190086D01*
X98447024Y-56929274D01*
X98137195Y-56724981D01*
X97793464Y-56585058D01*
X97429040Y-56514882D01*
X97132000Y-56669615D01*
X96878000Y-56669615D01*
X96580960Y-56514882D01*
X96216536Y-56585058D01*
X95872805Y-56724981D01*
X95562976Y-56929274D01*
X95298956Y-57190086D01*
X95090891Y-57497394D01*
X95000000Y-57713086D01*
X94909109Y-57497394D01*
X94701044Y-57190086D01*
X94437024Y-56929274D01*
X94127195Y-56724981D01*
X93783464Y-56585058D01*
X93419040Y-56514882D01*
X93122000Y-56669615D01*
X92868000Y-56669615D01*
X92570960Y-56514882D01*
X92206536Y-56585058D01*
X91862805Y-56724981D01*
X91552976Y-56929274D01*
X91288956Y-57190086D01*
X91080891Y-57497394D01*
X90936777Y-57839389D01*
X90907305Y-57980355D01*
X82582695Y-57980355D01*
X82553223Y-57839389D01*
X82409109Y-57497394D01*
X82201044Y-57190086D01*
X81937024Y-56929274D01*
X81627195Y-56724981D01*
X81283464Y-56585058D01*
X80919040Y-56514882D01*
X80622000Y-56669615D01*
X80368000Y-56669615D01*
X80070960Y-56514882D01*
X79706536Y-56585058D01*
X79362805Y-56724981D01*
X79052976Y-56929274D01*
X78788956Y-57190086D01*
X78580891Y-57497394D01*
X78490000Y-57713086D01*
X78399109Y-57497394D01*
X78191044Y-57190086D01*
X77927024Y-56929274D01*
X77617195Y-56724981D01*
X77273464Y-56585058D01*
X76909040Y-56514882D01*
X76612000Y-56669615D01*
X76358000Y-56669615D01*
X76060960Y-56514882D01*
X75696536Y-56585058D01*
X75352805Y-56724981D01*
X75042976Y-56929274D01*
X74778956Y-57190086D01*
X74570891Y-57497394D01*
X74426777Y-57839389D01*
X74397305Y-57980355D01*
X66072695Y-57980355D01*
X66043223Y-57839389D01*
X65899109Y-57497394D01*
X65691044Y-57190086D01*
X65427024Y-56929274D01*
X65117195Y-56724981D01*
X64773464Y-56585058D01*
X64409040Y-56514882D01*
X64112000Y-56669615D01*
X63858000Y-56669615D01*
X63560960Y-56514882D01*
X63196536Y-56585058D01*
X62852805Y-56724981D01*
X62542976Y-56929274D01*
X62278956Y-57190086D01*
X62070891Y-57497394D01*
X61926777Y-57839389D01*
X61897305Y-57980355D01*
X32421900Y-57980355D01*
X32421900Y-52082263D01*
X62440000Y-52082263D01*
X62440000Y-52377737D01*
X62497644Y-52667534D01*
X62610717Y-52940517D01*
X62774874Y-53186194D01*
X62983806Y-53395126D01*
X63229483Y-53559283D01*
X63502466Y-53672356D01*
X63792263Y-53730000D01*
X64087737Y-53730000D01*
X64377534Y-53672356D01*
X64650517Y-53559283D01*
X64896194Y-53395126D01*
X65105126Y-53186194D01*
X65269283Y-52940517D01*
X65382356Y-52667534D01*
X65440000Y-52377737D01*
X65440000Y-52082263D01*
X108160000Y-52082263D01*
X108160000Y-52377737D01*
X108217644Y-52667534D01*
X108330717Y-52940517D01*
X108494874Y-53186194D01*
X108703806Y-53395126D01*
X108949483Y-53559283D01*
X109222466Y-53672356D01*
X109512263Y-53730000D01*
X109807737Y-53730000D01*
X110097534Y-53672356D01*
X110370517Y-53559283D01*
X110616194Y-53395126D01*
X110825126Y-53186194D01*
X110989283Y-52940517D01*
X111102356Y-52667534D01*
X111160000Y-52377737D01*
X111160000Y-52082263D01*
X111102356Y-51792466D01*
X110989283Y-51519483D01*
X110825126Y-51273806D01*
X110616194Y-51064874D01*
X110370517Y-50900717D01*
X110097534Y-50787644D01*
X109807737Y-50730000D01*
X109512263Y-50730000D01*
X109222466Y-50787644D01*
X108949483Y-50900717D01*
X108703806Y-51064874D01*
X108494874Y-51273806D01*
X108330717Y-51519483D01*
X108217644Y-51792466D01*
X108160000Y-52082263D01*
X65440000Y-52082263D01*
X65382356Y-51792466D01*
X65269283Y-51519483D01*
X65105126Y-51273806D01*
X64896194Y-51064874D01*
X64650517Y-50900717D01*
X64377534Y-50787644D01*
X64087737Y-50730000D01*
X63792263Y-50730000D01*
X63502466Y-50787644D01*
X63229483Y-50900717D01*
X62983806Y-51064874D01*
X62774874Y-51273806D01*
X62610717Y-51519483D01*
X62497644Y-51792466D01*
X62440000Y-52082263D01*
X32421900Y-52082263D01*
X32421900Y-30052223D01*
X34124900Y-30052223D01*
X34124900Y-30577577D01*
X34227392Y-31092835D01*
X34428436Y-31578198D01*
X34720306Y-32015013D01*
X35091787Y-32386494D01*
X35528602Y-32678364D01*
X36013965Y-32879408D01*
X36529223Y-32981900D01*
X37054577Y-32981900D01*
X37569835Y-32879408D01*
X38055198Y-32678364D01*
X38492013Y-32386494D01*
X38863494Y-32015013D01*
X39155364Y-31578198D01*
X39356408Y-31092835D01*
X39458900Y-30577577D01*
X39458900Y-30052223D01*
X134396972Y-30052223D01*
X134396972Y-30577577D01*
X134499464Y-31092835D01*
X134700508Y-31578198D01*
X134992378Y-32015013D01*
X135363859Y-32386494D01*
X135800674Y-32678364D01*
X136286037Y-32879408D01*
X136801295Y-32981900D01*
X137326649Y-32981900D01*
X137841907Y-32879408D01*
X138327270Y-32678364D01*
X138764085Y-32386494D01*
X139135566Y-32015013D01*
X139427436Y-31578198D01*
X139628480Y-31092835D01*
X139730972Y-30577577D01*
X139730972Y-30052223D01*
X139628480Y-29536965D01*
X139427436Y-29051602D01*
X139135566Y-28614787D01*
X138764085Y-28243306D01*
X138327270Y-27951436D01*
X137841907Y-27750392D01*
X137326649Y-27647900D01*
X136801295Y-27647900D01*
X136286037Y-27750392D01*
X135800674Y-27951436D01*
X135363859Y-28243306D01*
X134992378Y-28614787D01*
X134700508Y-29051602D01*
X134499464Y-29536965D01*
X134396972Y-30052223D01*
X39458900Y-30052223D01*
X39356408Y-29536965D01*
X39155364Y-29051602D01*
X38863494Y-28614787D01*
X38492013Y-28243306D01*
X38055198Y-27951436D01*
X37569835Y-27750392D01*
X37054577Y-27647900D01*
X36529223Y-27647900D01*
X36013965Y-27750392D01*
X35528602Y-27951436D01*
X35091787Y-28243306D01*
X34720306Y-28614787D01*
X34428436Y-29051602D01*
X34227392Y-29536965D01*
X34124900Y-30052223D01*
X32421900Y-30052223D01*
X32421900Y-25944900D01*
X141433973Y-25944900D01*
X141433972Y-139612300D01*
G37*
%TD.AperFunction*%
%TD*%
M02*
