%TF.GenerationSoftware,KiCad,Pcbnew,(5.1.9)-1*%
%TF.CreationDate,2025-05-03T12:54:25-07:00*%
%TF.ProjectId,RADA3K,52414441-334b-42e6-9b69-6361645f7063,rev?*%
%TF.SameCoordinates,Original*%
%TF.FileFunction,Legend,Bot*%
%TF.FilePolarity,Positive*%
%FSLAX46Y46*%
G04 Gerber Fmt 4.6, Leading zero omitted, Abs format (unit mm)*
G04 Created by KiCad (PCBNEW (5.1.9)-1) date 2025-05-03 12:54:25*
%MOMM*%
%LPD*%
G01*
G04 APERTURE LIST*
%ADD10C,0.120000*%
%ADD11C,0.200000*%
%ADD12C,0.150000*%
G04 APERTURE END LIST*
D10*
%TO.C,R4*%
X78020000Y-82150000D02*
X78020000Y-83350000D01*
X79780000Y-83350000D02*
X79780000Y-82150000D01*
%TO.C,R3*%
X92770000Y-82150000D02*
X92770000Y-83350000D01*
X94530000Y-83350000D02*
X94530000Y-82150000D01*
D11*
%TO.C,J1*%
X61400000Y-49690000D02*
X61400000Y-54770000D01*
X112200000Y-54770000D02*
X112200000Y-49690000D01*
X62770000Y-47330000D02*
G75*
G03*
X62770000Y-47330000I-100000J0D01*
G01*
D10*
%TO.C,R2*%
X87650000Y-69270000D02*
X86450000Y-69270000D01*
X86450000Y-71030000D02*
X87650000Y-71030000D01*
%TO.C,R1*%
X104300000Y-69270000D02*
X103100000Y-69270000D01*
X103100000Y-71030000D02*
X104300000Y-71030000D01*
%TO.C,R4*%
D12*
X77652380Y-82583333D02*
X77176190Y-82250000D01*
X77652380Y-82011904D02*
X76652380Y-82011904D01*
X76652380Y-82392857D01*
X76700000Y-82488095D01*
X76747619Y-82535714D01*
X76842857Y-82583333D01*
X76985714Y-82583333D01*
X77080952Y-82535714D01*
X77128571Y-82488095D01*
X77176190Y-82392857D01*
X77176190Y-82011904D01*
X76985714Y-83440476D02*
X77652380Y-83440476D01*
X76604761Y-83202380D02*
X77319047Y-82964285D01*
X77319047Y-83583333D01*
%TO.C,R3*%
X92402380Y-82583333D02*
X91926190Y-82250000D01*
X92402380Y-82011904D02*
X91402380Y-82011904D01*
X91402380Y-82392857D01*
X91450000Y-82488095D01*
X91497619Y-82535714D01*
X91592857Y-82583333D01*
X91735714Y-82583333D01*
X91830952Y-82535714D01*
X91878571Y-82488095D01*
X91926190Y-82392857D01*
X91926190Y-82011904D01*
X91402380Y-82916666D02*
X91402380Y-83535714D01*
X91783333Y-83202380D01*
X91783333Y-83345238D01*
X91830952Y-83440476D01*
X91878571Y-83488095D01*
X91973809Y-83535714D01*
X92211904Y-83535714D01*
X92307142Y-83488095D01*
X92354761Y-83440476D01*
X92402380Y-83345238D01*
X92402380Y-83059523D01*
X92354761Y-82964285D01*
X92307142Y-82916666D01*
%TO.C,J1*%
X109358333Y-45717380D02*
X109358333Y-46431666D01*
X109405952Y-46574523D01*
X109501190Y-46669761D01*
X109644047Y-46717380D01*
X109739285Y-46717380D01*
X108358333Y-46717380D02*
X108929761Y-46717380D01*
X108644047Y-46717380D02*
X108644047Y-45717380D01*
X108739285Y-45860238D01*
X108834523Y-45955476D01*
X108929761Y-46003095D01*
%TO.C,R2*%
X87216666Y-72302380D02*
X87550000Y-71826190D01*
X87788095Y-72302380D02*
X87788095Y-71302380D01*
X87407142Y-71302380D01*
X87311904Y-71350000D01*
X87264285Y-71397619D01*
X87216666Y-71492857D01*
X87216666Y-71635714D01*
X87264285Y-71730952D01*
X87311904Y-71778571D01*
X87407142Y-71826190D01*
X87788095Y-71826190D01*
X86835714Y-71397619D02*
X86788095Y-71350000D01*
X86692857Y-71302380D01*
X86454761Y-71302380D01*
X86359523Y-71350000D01*
X86311904Y-71397619D01*
X86264285Y-71492857D01*
X86264285Y-71588095D01*
X86311904Y-71730952D01*
X86883333Y-72302380D01*
X86264285Y-72302380D01*
%TO.C,R1*%
X103866666Y-72302380D02*
X104200000Y-71826190D01*
X104438095Y-72302380D02*
X104438095Y-71302380D01*
X104057142Y-71302380D01*
X103961904Y-71350000D01*
X103914285Y-71397619D01*
X103866666Y-71492857D01*
X103866666Y-71635714D01*
X103914285Y-71730952D01*
X103961904Y-71778571D01*
X104057142Y-71826190D01*
X104438095Y-71826190D01*
X102914285Y-72302380D02*
X103485714Y-72302380D01*
X103200000Y-72302380D02*
X103200000Y-71302380D01*
X103295238Y-71445238D01*
X103390476Y-71540476D01*
X103485714Y-71588095D01*
%TD*%
M02*
